  0
SECTION
  2
HEADER
  9
$ACADVER
  1
AC1009
  9
$EXTMIN
 10
0.0
 20
0.0
 30
0.0
  9
$EXTMAX
 10
1000.0
 20
1000.0
 30
0.0
  9
$FILLMODE
 70
 0
  9
$SPLFRAME
 70
 1
  0
ENDSEC
  0
SECTION
  2
TABLES
  0
TABLE
  2
LAYER
 70
1
  0
LAYER
  2
0
 70
     0
 62
     7
  6
CONTINUOUS
  0
ENDTAB
  0
ENDSEC
  0
SECTION
  2
ENTITIES
  0
LINE
  8
0
 62
     0
 10
0.0950846
 20
100.446
 30
0.0
 11
371.57
 21
100.446
 31
0.0
  0
LINE
  8
0
 62
     0
 10
371.57
 20
100.446
 30
0.0
 11
371.57
 21
0.434082
 31
0.0
  0
LINE
  8
0
 62
     0
 10
371.57
 20
0.434082
 30
0.0
 11
0.0950846
 21
0.434082
 31
0.0
  0
LINE
  8
0
 62
     0
 10
0.0950846
 20
0.434082
 30
0.0
 11
0.0950846
 21
100.446
 31
0.0
  0
LINE
  8
0
 62
     0
 10
293.132
 20
16.9595
 30
0.0
 11
293.132
 21
15.9604
 31
0.0
  0
LINE
  8
0
 62
     0
 10
293.132
 20
15.9604
 30
0.0
 11
292.331
 21
15.9604
 31
0.0
  0
LINE
  8
0
 62
     0
 10
292.331
 20
15.9604
 30
0.0
 11
292.331
 21
12.8598
 31
0.0
  0
LINE
  8
0
 62
     0
 10
292.331
 20
12.8598
 30
0.0
 11
293.132
 21
12.8598
 31
0.0
  0
LINE
  8
0
 62
     0
 10
293.132
 20
12.8598
 30
0.0
 11
293.132
 21
7.05968
 31
0.0
  0
LINE
  8
0
 62
     0
 10
293.132
 20
7.05968
 30
0.0
 11
292.331
 21
7.05968
 31
0.0
  0
LINE
  8
0
 62
     0
 10
292.331
 20
7.05968
 30
0.0
 11
292.331
 21
3.96049
 31
0.0
  0
LINE
  8
0
 62
     0
 10
292.331
 20
3.96049
 30
0.0
 11
293.132
 21
3.96049
 31
0.0
  0
LINE
  8
0
 62
     0
 10
293.132
 20
3.96049
 30
0.0
 11
293.132
 21
2.96003
 31
0.0
  0
LINE
  8
0
 62
     0
 10
293.132
 20
2.96003
 30
0.0
 11
307.132
 21
2.96003
 31
0.0
  0
LINE
  8
0
 62
     0
 10
307.132
 20
2.96003
 30
0.0
 11
307.132
 21
3.96049
 31
0.0
  0
LINE
  8
0
 62
     0
 10
307.132
 20
3.96049
 30
0.0
 11
307.931
 21
3.96049
 31
0.0
  0
LINE
  8
0
 62
     0
 10
307.931
 20
3.96049
 30
0.0
 11
307.931
 21
7.05968
 31
0.0
  0
LINE
  8
0
 62
     0
 10
307.931
 20
7.05968
 30
0.0
 11
307.132
 21
7.05968
 31
0.0
  0
LINE
  8
0
 62
     0
 10
307.132
 20
7.05968
 30
0.0
 11
307.132
 21
12.8598
 31
0.0
  0
LINE
  8
0
 62
     0
 10
307.132
 20
12.8598
 30
0.0
 11
307.931
 21
12.8598
 31
0.0
  0
LINE
  8
0
 62
     0
 10
307.931
 20
12.8598
 30
0.0
 11
307.931
 21
15.9604
 31
0.0
  0
LINE
  8
0
 62
     0
 10
307.931
 20
15.9604
 30
0.0
 11
307.132
 21
15.9604
 31
0.0
  0
LINE
  8
0
 62
     0
 10
307.132
 20
15.9604
 30
0.0
 11
307.132
 21
16.9595
 31
0.0
  0
LINE
  8
0
 62
     0
 10
307.132
 20
16.9595
 30
0.0
 11
293.132
 21
16.9595
 31
0.0
  0
LINE
  8
0
 62
     0
 10
274.082
 20
16.9595
 30
0.0
 11
274.082
 21
15.9604
 31
0.0
  0
LINE
  8
0
 62
     0
 10
274.082
 20
15.9604
 30
0.0
 11
273.281
 21
15.9604
 31
0.0
  0
LINE
  8
0
 62
     0
 10
273.281
 20
15.9604
 30
0.0
 11
273.281
 21
12.8598
 31
0.0
  0
LINE
  8
0
 62
     0
 10
273.281
 20
12.8598
 30
0.0
 11
274.082
 21
12.8598
 31
0.0
  0
LINE
  8
0
 62
     0
 10
274.082
 20
12.8598
 30
0.0
 11
274.082
 21
7.05968
 31
0.0
  0
LINE
  8
0
 62
     0
 10
274.082
 20
7.05968
 30
0.0
 11
273.281
 21
7.05968
 31
0.0
  0
LINE
  8
0
 62
     0
 10
273.281
 20
7.05968
 30
0.0
 11
273.281
 21
3.96049
 31
0.0
  0
LINE
  8
0
 62
     0
 10
273.281
 20
3.96049
 30
0.0
 11
274.082
 21
3.96049
 31
0.0
  0
LINE
  8
0
 62
     0
 10
274.082
 20
3.96049
 30
0.0
 11
274.082
 21
2.96003
 31
0.0
  0
LINE
  8
0
 62
     0
 10
274.082
 20
2.96003
 30
0.0
 11
288.082
 21
2.96003
 31
0.0
  0
LINE
  8
0
 62
     0
 10
288.082
 20
2.96003
 30
0.0
 11
288.082
 21
3.96049
 31
0.0
  0
LINE
  8
0
 62
     0
 10
288.082
 20
3.96049
 30
0.0
 11
288.881
 21
3.96049
 31
0.0
  0
LINE
  8
0
 62
     0
 10
288.881
 20
3.96049
 30
0.0
 11
288.881
 21
7.05968
 31
0.0
  0
LINE
  8
0
 62
     0
 10
288.881
 20
7.05968
 30
0.0
 11
288.082
 21
7.05968
 31
0.0
  0
LINE
  8
0
 62
     0
 10
288.082
 20
7.05968
 30
0.0
 11
288.082
 21
12.8598
 31
0.0
  0
LINE
  8
0
 62
     0
 10
288.082
 20
12.8598
 30
0.0
 11
288.881
 21
12.8598
 31
0.0
  0
LINE
  8
0
 62
     0
 10
288.881
 20
12.8598
 30
0.0
 11
288.881
 21
15.9604
 31
0.0
  0
LINE
  8
0
 62
     0
 10
288.881
 20
15.9604
 30
0.0
 11
288.082
 21
15.9604
 31
0.0
  0
LINE
  8
0
 62
     0
 10
288.082
 20
15.9604
 30
0.0
 11
288.082
 21
16.9595
 31
0.0
  0
LINE
  8
0
 62
     0
 10
288.082
 20
16.9595
 30
0.0
 11
274.082
 21
16.9595
 31
0.0
  0
LINE
  8
0
 62
     0
 10
255.032
 20
16.9595
 30
0.0
 11
255.032
 21
15.9604
 31
0.0
  0
LINE
  8
0
 62
     0
 10
255.032
 20
15.9604
 30
0.0
 11
254.231
 21
15.9604
 31
0.0
  0
LINE
  8
0
 62
     0
 10
254.231
 20
15.9604
 30
0.0
 11
254.231
 21
12.8598
 31
0.0
  0
LINE
  8
0
 62
     0
 10
254.231
 20
12.8598
 30
0.0
 11
255.032
 21
12.8598
 31
0.0
  0
LINE
  8
0
 62
     0
 10
255.032
 20
12.8598
 30
0.0
 11
255.032
 21
7.05968
 31
0.0
  0
LINE
  8
0
 62
     0
 10
255.032
 20
7.05968
 30
0.0
 11
254.231
 21
7.05968
 31
0.0
  0
LINE
  8
0
 62
     0
 10
254.231
 20
7.05968
 30
0.0
 11
254.231
 21
3.96049
 31
0.0
  0
LINE
  8
0
 62
     0
 10
254.231
 20
3.96049
 30
0.0
 11
255.032
 21
3.96049
 31
0.0
  0
LINE
  8
0
 62
     0
 10
255.032
 20
3.96049
 30
0.0
 11
255.032
 21
2.96003
 31
0.0
  0
LINE
  8
0
 62
     0
 10
255.032
 20
2.96003
 30
0.0
 11
269.032
 21
2.96003
 31
0.0
  0
LINE
  8
0
 62
     0
 10
269.032
 20
2.96003
 30
0.0
 11
269.032
 21
3.96049
 31
0.0
  0
LINE
  8
0
 62
     0
 10
269.032
 20
3.96049
 30
0.0
 11
269.831
 21
3.96049
 31
0.0
  0
LINE
  8
0
 62
     0
 10
269.831
 20
3.96049
 30
0.0
 11
269.831
 21
7.05968
 31
0.0
  0
LINE
  8
0
 62
     0
 10
269.831
 20
7.05968
 30
0.0
 11
269.032
 21
7.05968
 31
0.0
  0
LINE
  8
0
 62
     0
 10
269.032
 20
7.05968
 30
0.0
 11
269.032
 21
12.8598
 31
0.0
  0
LINE
  8
0
 62
     0
 10
269.032
 20
12.8598
 30
0.0
 11
269.831
 21
12.8598
 31
0.0
  0
LINE
  8
0
 62
     0
 10
269.831
 20
12.8598
 30
0.0
 11
269.831
 21
15.9604
 31
0.0
  0
LINE
  8
0
 62
     0
 10
269.831
 20
15.9604
 30
0.0
 11
269.032
 21
15.9604
 31
0.0
  0
LINE
  8
0
 62
     0
 10
269.032
 20
15.9604
 30
0.0
 11
269.032
 21
16.9595
 31
0.0
  0
LINE
  8
0
 62
     0
 10
269.032
 20
16.9595
 30
0.0
 11
255.032
 21
16.9595
 31
0.0
  0
LINE
  8
0
 62
     0
 10
164.545
 20
21.722
 30
0.0
 11
164.545
 21
20.7216
 31
0.0
  0
LINE
  8
0
 62
     0
 10
164.545
 20
20.7216
 30
0.0
 11
163.744
 21
20.7216
 31
0.0
  0
LINE
  8
0
 62
     0
 10
163.744
 20
20.7216
 30
0.0
 11
163.744
 21
17.6223
 31
0.0
  0
LINE
  8
0
 62
     0
 10
163.744
 20
17.6223
 30
0.0
 11
164.545
 21
17.6223
 31
0.0
  0
LINE
  8
0
 62
     0
 10
164.545
 20
17.6223
 30
0.0
 11
164.545
 21
17.0215
 31
0.0
  0
LINE
  8
0
 62
     0
 10
164.545
 20
17.0215
 30
0.0
 11
163.019
 21
17.0215
 31
0.0
  0
LINE
  8
0
 62
     0
 10
163.019
 20
17.0215
 30
0.0
 11
163.019
 21
20.2517
 31
0.0
  0
LINE
  8
0
 62
     0
 10
163.019
 20
20.2517
 30
0.0
 11
161.294
 21
20.2517
 31
0.0
  0
LINE
  8
0
 62
     0
 10
161.294
 20
20.2517
 30
0.0
 11
161.294
 21
21.1722
 31
0.0
  0
LINE
  8
0
 62
     0
 10
161.294
 20
21.1722
 30
0.0
 11
157.993
 21
21.1722
 31
0.0
  0
LINE
  8
0
 62
     0
 10
157.993
 20
21.1722
 30
0.0
 11
157.993
 21
20.2517
 31
0.0
  0
LINE
  8
0
 62
     0
 10
157.993
 20
20.2517
 30
0.0
 11
156.268
 21
20.2517
 31
0.0
  0
LINE
  8
0
 62
     0
 10
156.268
 20
20.2517
 30
0.0
 11
156.268
 21
17.0215
 31
0.0
  0
LINE
  8
0
 62
     0
 10
156.268
 20
17.0215
 30
0.0
 11
155.444
 21
17.0215
 31
0.0
  0
LINE
  8
0
 62
     0
 10
155.444
 20
17.0215
 30
0.0
 11
155.444
 21
14.2227
 31
0.0
  0
LINE
  8
0
 62
     0
 10
155.444
 20
14.2227
 30
0.0
 11
156.268
 21
14.2227
 31
0.0
  0
LINE
  8
0
 62
     0
 10
156.268
 20
14.2227
 30
0.0
 11
156.268
 21
7.95267
 31
0.0
  0
LINE
  8
0
 62
     0
 10
156.268
 20
7.95267
 30
0.0
 11
157.993
 21
7.95267
 31
0.0
  0
LINE
  8
0
 62
     0
 10
157.993
 20
7.95267
 30
0.0
 11
157.993
 21
6.97149
 31
0.0
  0
LINE
  8
0
 62
     0
 10
157.993
 20
6.97149
 30
0.0
 11
161.294
 21
6.97149
 31
0.0
  0
LINE
  8
0
 62
     0
 10
161.294
 20
6.97149
 30
0.0
 11
161.294
 21
7.95267
 31
0.0
  0
LINE
  8
0
 62
     0
 10
161.294
 20
7.95267
 30
0.0
 11
163.019
 21
7.95267
 31
0.0
  0
LINE
  8
0
 62
     0
 10
163.019
 20
7.95267
 30
0.0
 11
163.019
 21
12.4216
 31
0.0
  0
LINE
  8
0
 62
     0
 10
163.019
 20
12.4216
 30
0.0
 11
164.545
 21
12.4216
 31
0.0
  0
LINE
  8
0
 62
     0
 10
164.545
 20
12.4216
 30
0.0
 11
164.545
 21
11.8222
 31
0.0
  0
LINE
  8
0
 62
     0
 10
164.545
 20
11.8222
 30
0.0
 11
163.744
 21
11.8222
 31
0.0
  0
LINE
  8
0
 62
     0
 10
163.744
 20
11.8222
 30
0.0
 11
163.744
 21
8.72162
 31
0.0
  0
LINE
  8
0
 62
     0
 10
163.744
 20
8.72162
 30
0.0
 11
164.545
 21
8.72162
 31
0.0
  0
LINE
  8
0
 62
     0
 10
164.545
 20
8.72162
 30
0.0
 11
164.545
 21
7.72252
 31
0.0
  0
LINE
  8
0
 62
     0
 10
164.545
 20
7.72252
 30
0.0
 11
178.544
 21
7.72252
 31
0.0
  0
LINE
  8
0
 62
     0
 10
178.544
 20
7.72252
 30
0.0
 11
178.544
 21
8.72162
 31
0.0
  0
LINE
  8
0
 62
     0
 10
178.544
 20
8.72162
 30
0.0
 11
179.345
 21
8.72162
 31
0.0
  0
LINE
  8
0
 62
     0
 10
179.345
 20
8.72162
 30
0.0
 11
179.345
 21
11.8222
 31
0.0
  0
LINE
  8
0
 62
     0
 10
179.345
 20
11.8222
 30
0.0
 11
178.544
 21
11.8222
 31
0.0
  0
LINE
  8
0
 62
     0
 10
178.544
 20
11.8222
 30
0.0
 11
178.544
 21
12.4216
 31
0.0
  0
LINE
  8
0
 62
     0
 10
178.544
 20
12.4216
 30
0.0
 11
180.07
 21
12.4216
 31
0.0
  0
LINE
  8
0
 62
     0
 10
180.07
 20
12.4216
 30
0.0
 11
180.07
 21
7.95267
 31
0.0
  0
LINE
  8
0
 62
     0
 10
180.07
 20
7.95267
 30
0.0
 11
181.795
 21
7.95267
 31
0.0
  0
LINE
  8
0
 62
     0
 10
181.795
 20
7.95267
 30
0.0
 11
181.795
 21
6.97149
 31
0.0
  0
LINE
  8
0
 62
     0
 10
181.795
 20
6.97149
 30
0.0
 11
185.094
 21
6.97149
 31
0.0
  0
LINE
  8
0
 62
     0
 10
185.094
 20
6.97149
 30
0.0
 11
185.094
 21
7.95267
 31
0.0
  0
LINE
  8
0
 62
     0
 10
185.094
 20
7.95267
 30
0.0
 11
186.819
 21
7.95267
 31
0.0
  0
LINE
  8
0
 62
     0
 10
186.819
 20
7.95267
 30
0.0
 11
186.819
 21
14.2227
 31
0.0
  0
LINE
  8
0
 62
     0
 10
186.819
 20
14.2227
 30
0.0
 11
187.643
 21
14.2227
 31
0.0
  0
LINE
  8
0
 62
     0
 10
187.643
 20
14.2227
 30
0.0
 11
187.643
 21
17.0215
 31
0.0
  0
LINE
  8
0
 62
     0
 10
187.643
 20
17.0215
 30
0.0
 11
186.819
 21
17.0215
 31
0.0
  0
LINE
  8
0
 62
     0
 10
186.819
 20
17.0215
 30
0.0
 11
186.819
 21
20.2517
 31
0.0
  0
LINE
  8
0
 62
     0
 10
186.819
 20
20.2517
 30
0.0
 11
185.094
 21
20.2517
 31
0.0
  0
LINE
  8
0
 62
     0
 10
185.094
 20
20.2517
 30
0.0
 11
185.094
 21
21.1722
 31
0.0
  0
LINE
  8
0
 62
     0
 10
185.094
 20
21.1722
 30
0.0
 11
181.795
 21
21.1722
 31
0.0
  0
LINE
  8
0
 62
     0
 10
181.795
 20
21.1722
 30
0.0
 11
181.795
 21
20.2517
 31
0.0
  0
LINE
  8
0
 62
     0
 10
181.795
 20
20.2517
 30
0.0
 11
180.07
 21
20.2517
 31
0.0
  0
LINE
  8
0
 62
     0
 10
180.07
 20
20.2517
 30
0.0
 11
180.07
 21
17.0215
 31
0.0
  0
LINE
  8
0
 62
     0
 10
180.07
 20
17.0215
 30
0.0
 11
178.544
 21
17.0215
 31
0.0
  0
LINE
  8
0
 62
     0
 10
178.544
 20
17.0215
 30
0.0
 11
178.544
 21
17.6223
 31
0.0
  0
LINE
  8
0
 62
     0
 10
178.544
 20
17.6223
 30
0.0
 11
179.345
 21
17.6223
 31
0.0
  0
LINE
  8
0
 62
     0
 10
179.345
 20
17.6223
 30
0.0
 11
179.345
 21
20.7216
 31
0.0
  0
LINE
  8
0
 62
     0
 10
179.345
 20
20.7216
 30
0.0
 11
178.544
 21
20.7216
 31
0.0
  0
LINE
  8
0
 62
     0
 10
178.544
 20
20.7216
 30
0.0
 11
178.544
 21
21.722
 31
0.0
  0
LINE
  8
0
 62
     0
 10
178.544
 20
21.722
 30
0.0
 11
164.545
 21
21.722
 31
0.0
  0
LINE
  8
0
 62
     0
 10
116.918
 20
21.722
 30
0.0
 11
116.918
 21
20.7216
 31
0.0
  0
LINE
  8
0
 62
     0
 10
116.918
 20
20.7216
 30
0.0
 11
116.119
 21
20.7216
 31
0.0
  0
LINE
  8
0
 62
     0
 10
116.119
 20
20.7216
 30
0.0
 11
116.119
 21
17.6223
 31
0.0
  0
LINE
  8
0
 62
     0
 10
116.119
 20
17.6223
 30
0.0
 11
116.918
 21
17.6223
 31
0.0
  0
LINE
  8
0
 62
     0
 10
116.918
 20
17.6223
 30
0.0
 11
116.918
 21
17.0215
 31
0.0
  0
LINE
  8
0
 62
     0
 10
116.918
 20
17.0215
 30
0.0
 11
108.244
 21
17.0215
 31
0.0
  0
LINE
  8
0
 62
     0
 10
108.244
 20
17.0215
 30
0.0
 11
108.244
 21
20.2517
 31
0.0
  0
LINE
  8
0
 62
     0
 10
108.244
 20
20.2517
 30
0.0
 11
106.518
 21
20.2517
 31
0.0
  0
LINE
  8
0
 62
     0
 10
106.518
 20
20.2517
 30
0.0
 11
106.518
 21
21.1722
 31
0.0
  0
LINE
  8
0
 62
     0
 10
106.518
 20
21.1722
 30
0.0
 11
103.218
 21
21.1722
 31
0.0
  0
LINE
  8
0
 62
     0
 10
103.218
 20
21.1722
 30
0.0
 11
103.218
 21
20.2517
 31
0.0
  0
LINE
  8
0
 62
     0
 10
103.218
 20
20.2517
 30
0.0
 11
101.494
 21
20.2517
 31
0.0
  0
LINE
  8
0
 62
     0
 10
101.494
 20
20.2517
 30
0.0
 11
101.494
 21
17.0215
 31
0.0
  0
LINE
  8
0
 62
     0
 10
101.494
 20
17.0215
 30
0.0
 11
100.668
 21
17.0215
 31
0.0
  0
LINE
  8
0
 62
     0
 10
100.668
 20
17.0215
 30
0.0
 11
100.668
 21
14.2227
 31
0.0
  0
LINE
  8
0
 62
     0
 10
100.668
 20
14.2227
 30
0.0
 11
101.494
 21
14.2227
 31
0.0
  0
LINE
  8
0
 62
     0
 10
101.494
 20
14.2227
 30
0.0
 11
101.494
 21
7.95267
 31
0.0
  0
LINE
  8
0
 62
     0
 10
101.494
 20
7.95267
 30
0.0
 11
103.218
 21
7.95267
 31
0.0
  0
LINE
  8
0
 62
     0
 10
103.218
 20
7.95267
 30
0.0
 11
103.218
 21
6.97149
 31
0.0
  0
LINE
  8
0
 62
     0
 10
103.218
 20
6.97149
 30
0.0
 11
106.518
 21
6.97149
 31
0.0
  0
LINE
  8
0
 62
     0
 10
106.518
 20
6.97149
 30
0.0
 11
106.518
 21
7.95267
 31
0.0
  0
LINE
  8
0
 62
     0
 10
106.518
 20
7.95267
 30
0.0
 11
108.244
 21
7.95267
 31
0.0
  0
LINE
  8
0
 62
     0
 10
108.244
 20
7.95267
 30
0.0
 11
108.244
 21
12.4216
 31
0.0
  0
LINE
  8
0
 62
     0
 10
108.244
 20
12.4216
 30
0.0
 11
116.918
 21
12.4216
 31
0.0
  0
LINE
  8
0
 62
     0
 10
116.918
 20
12.4216
 30
0.0
 11
116.918
 21
11.8222
 31
0.0
  0
LINE
  8
0
 62
     0
 10
116.918
 20
11.8222
 30
0.0
 11
116.119
 21
11.8222
 31
0.0
  0
LINE
  8
0
 62
     0
 10
116.119
 20
11.8222
 30
0.0
 11
116.119
 21
8.72162
 31
0.0
  0
LINE
  8
0
 62
     0
 10
116.119
 20
8.72162
 30
0.0
 11
116.918
 21
8.72162
 31
0.0
  0
LINE
  8
0
 62
     0
 10
116.918
 20
8.72162
 30
0.0
 11
116.918
 21
7.72252
 31
0.0
  0
LINE
  8
0
 62
     0
 10
116.918
 20
7.72252
 30
0.0
 11
130.919
 21
7.72252
 31
0.0
  0
LINE
  8
0
 62
     0
 10
130.919
 20
7.72252
 30
0.0
 11
130.919
 21
8.72162
 31
0.0
  0
LINE
  8
0
 62
     0
 10
130.919
 20
8.72162
 30
0.0
 11
131.72
 21
8.72162
 31
0.0
  0
LINE
  8
0
 62
     0
 10
131.72
 20
8.72162
 30
0.0
 11
131.72
 21
11.8222
 31
0.0
  0
LINE
  8
0
 62
     0
 10
131.72
 20
11.8222
 30
0.0
 11
130.919
 21
11.8222
 31
0.0
  0
LINE
  8
0
 62
     0
 10
130.919
 20
11.8222
 30
0.0
 11
130.919
 21
12.4216
 31
0.0
  0
LINE
  8
0
 62
     0
 10
130.919
 20
12.4216
 30
0.0
 11
139.594
 21
12.4216
 31
0.0
  0
LINE
  8
0
 62
     0
 10
139.594
 20
12.4216
 30
0.0
 11
139.594
 21
7.95267
 31
0.0
  0
LINE
  8
0
 62
     0
 10
139.594
 20
7.95267
 30
0.0
 11
141.319
 21
7.95267
 31
0.0
  0
LINE
  8
0
 62
     0
 10
141.319
 20
7.95267
 30
0.0
 11
141.319
 21
6.97149
 31
0.0
  0
LINE
  8
0
 62
     0
 10
141.319
 20
6.97149
 30
0.0
 11
144.618
 21
6.97149
 31
0.0
  0
LINE
  8
0
 62
     0
 10
144.618
 20
6.97149
 30
0.0
 11
144.618
 21
7.95267
 31
0.0
  0
LINE
  8
0
 62
     0
 10
144.618
 20
7.95267
 30
0.0
 11
146.345
 21
7.95267
 31
0.0
  0
LINE
  8
0
 62
     0
 10
146.345
 20
7.95267
 30
0.0
 11
146.345
 21
14.2227
 31
0.0
  0
LINE
  8
0
 62
     0
 10
146.345
 20
14.2227
 30
0.0
 11
147.169
 21
14.2227
 31
0.0
  0
LINE
  8
0
 62
     0
 10
147.169
 20
14.2227
 30
0.0
 11
147.169
 21
17.0215
 31
0.0
  0
LINE
  8
0
 62
     0
 10
147.169
 20
17.0215
 30
0.0
 11
146.345
 21
17.0215
 31
0.0
  0
LINE
  8
0
 62
     0
 10
146.345
 20
17.0215
 30
0.0
 11
146.345
 21
20.2517
 31
0.0
  0
LINE
  8
0
 62
     0
 10
146.345
 20
20.2517
 30
0.0
 11
144.618
 21
20.2517
 31
0.0
  0
LINE
  8
0
 62
     0
 10
144.618
 20
20.2517
 30
0.0
 11
144.618
 21
21.1722
 31
0.0
  0
LINE
  8
0
 62
     0
 10
144.618
 20
21.1722
 30
0.0
 11
141.319
 21
21.1722
 31
0.0
  0
LINE
  8
0
 62
     0
 10
141.319
 20
21.1722
 30
0.0
 11
141.319
 21
20.2517
 31
0.0
  0
LINE
  8
0
 62
     0
 10
141.319
 20
20.2517
 30
0.0
 11
139.594
 21
20.2517
 31
0.0
  0
LINE
  8
0
 62
     0
 10
139.594
 20
20.2517
 30
0.0
 11
139.594
 21
17.0215
 31
0.0
  0
LINE
  8
0
 62
     0
 10
139.594
 20
17.0215
 30
0.0
 11
130.919
 21
17.0215
 31
0.0
  0
LINE
  8
0
 62
     0
 10
130.919
 20
17.0215
 30
0.0
 11
130.919
 21
17.6223
 31
0.0
  0
LINE
  8
0
 62
     0
 10
130.919
 20
17.6223
 30
0.0
 11
131.72
 21
17.6223
 31
0.0
  0
LINE
  8
0
 62
     0
 10
131.72
 20
17.6223
 30
0.0
 11
131.72
 21
20.7216
 31
0.0
  0
LINE
  8
0
 62
     0
 10
131.72
 20
20.7216
 30
0.0
 11
130.919
 21
20.7216
 31
0.0
  0
LINE
  8
0
 62
     0
 10
130.919
 20
20.7216
 30
0.0
 11
130.919
 21
21.722
 31
0.0
  0
LINE
  8
0
 62
     0
 10
130.919
 20
21.722
 30
0.0
 11
116.918
 21
21.722
 31
0.0
  0
LINE
  8
0
 62
     0
 10
335.995
 20
21.722
 30
0.0
 11
335.995
 21
20.7216
 31
0.0
  0
LINE
  8
0
 62
     0
 10
335.995
 20
20.7216
 30
0.0
 11
335.194
 21
20.7216
 31
0.0
  0
LINE
  8
0
 62
     0
 10
335.194
 20
20.7216
 30
0.0
 11
335.194
 21
17.6223
 31
0.0
  0
LINE
  8
0
 62
     0
 10
335.194
 20
17.6223
 30
0.0
 11
335.995
 21
17.6223
 31
0.0
  0
LINE
  8
0
 62
     0
 10
335.995
 20
17.6223
 30
0.0
 11
335.995
 21
11.8222
 31
0.0
  0
LINE
  8
0
 62
     0
 10
335.995
 20
11.8222
 30
0.0
 11
335.194
 21
11.8222
 31
0.0
  0
LINE
  8
0
 62
     0
 10
335.194
 20
11.8222
 30
0.0
 11
335.194
 21
8.72162
 31
0.0
  0
LINE
  8
0
 62
     0
 10
335.194
 20
8.72162
 30
0.0
 11
335.995
 21
8.72162
 31
0.0
  0
LINE
  8
0
 62
     0
 10
335.995
 20
8.72162
 30
0.0
 11
335.995
 21
7.72252
 31
0.0
  0
LINE
  8
0
 62
     0
 10
335.995
 20
7.72252
 30
0.0
 11
349.994
 21
7.72252
 31
0.0
  0
LINE
  8
0
 62
     0
 10
349.994
 20
7.72252
 30
0.0
 11
349.994
 21
8.72162
 31
0.0
  0
LINE
  8
0
 62
     0
 10
349.994
 20
8.72162
 30
0.0
 11
350.795
 21
8.72162
 31
0.0
  0
LINE
  8
0
 62
     0
 10
350.795
 20
8.72162
 30
0.0
 11
350.795
 21
11.8222
 31
0.0
  0
LINE
  8
0
 62
     0
 10
350.795
 20
11.8222
 30
0.0
 11
349.994
 21
11.8222
 31
0.0
  0
LINE
  8
0
 62
     0
 10
349.994
 20
11.8222
 30
0.0
 11
349.994
 21
17.6223
 31
0.0
  0
LINE
  8
0
 62
     0
 10
349.994
 20
17.6223
 30
0.0
 11
350.795
 21
17.6223
 31
0.0
  0
LINE
  8
0
 62
     0
 10
350.795
 20
17.6223
 30
0.0
 11
350.795
 21
20.7216
 31
0.0
  0
LINE
  8
0
 62
     0
 10
350.795
 20
20.7216
 30
0.0
 11
349.994
 21
20.7216
 31
0.0
  0
LINE
  8
0
 62
     0
 10
349.994
 20
20.7216
 30
0.0
 11
349.994
 21
21.722
 31
0.0
  0
LINE
  8
0
 62
     0
 10
349.994
 20
21.722
 30
0.0
 11
335.995
 21
21.722
 31
0.0
  0
LINE
  8
0
 62
     0
 10
316.945
 20
21.722
 30
0.0
 11
316.945
 21
20.7216
 31
0.0
  0
LINE
  8
0
 62
     0
 10
316.945
 20
20.7216
 30
0.0
 11
316.144
 21
20.7216
 31
0.0
  0
LINE
  8
0
 62
     0
 10
316.144
 20
20.7216
 30
0.0
 11
316.144
 21
17.6223
 31
0.0
  0
LINE
  8
0
 62
     0
 10
316.144
 20
17.6223
 30
0.0
 11
316.945
 21
17.6223
 31
0.0
  0
LINE
  8
0
 62
     0
 10
316.945
 20
17.6223
 30
0.0
 11
316.945
 21
11.8222
 31
0.0
  0
LINE
  8
0
 62
     0
 10
316.945
 20
11.8222
 30
0.0
 11
316.144
 21
11.8222
 31
0.0
  0
LINE
  8
0
 62
     0
 10
316.144
 20
11.8222
 30
0.0
 11
316.144
 21
8.72162
 31
0.0
  0
LINE
  8
0
 62
     0
 10
316.144
 20
8.72162
 30
0.0
 11
316.945
 21
8.72162
 31
0.0
  0
LINE
  8
0
 62
     0
 10
316.945
 20
8.72162
 30
0.0
 11
316.945
 21
7.72252
 31
0.0
  0
LINE
  8
0
 62
     0
 10
316.945
 20
7.72252
 30
0.0
 11
330.944
 21
7.72252
 31
0.0
  0
LINE
  8
0
 62
     0
 10
330.944
 20
7.72252
 30
0.0
 11
330.944
 21
8.72162
 31
0.0
  0
LINE
  8
0
 62
     0
 10
330.944
 20
8.72162
 30
0.0
 11
331.745
 21
8.72162
 31
0.0
  0
LINE
  8
0
 62
     0
 10
331.745
 20
8.72162
 30
0.0
 11
331.745
 21
11.8222
 31
0.0
  0
LINE
  8
0
 62
     0
 10
331.745
 20
11.8222
 30
0.0
 11
330.944
 21
11.8222
 31
0.0
  0
LINE
  8
0
 62
     0
 10
330.944
 20
11.8222
 30
0.0
 11
330.944
 21
17.6223
 31
0.0
  0
LINE
  8
0
 62
     0
 10
330.944
 20
17.6223
 30
0.0
 11
331.745
 21
17.6223
 31
0.0
  0
LINE
  8
0
 62
     0
 10
331.745
 20
17.6223
 30
0.0
 11
331.745
 21
20.7216
 31
0.0
  0
LINE
  8
0
 62
     0
 10
331.745
 20
20.7216
 30
0.0
 11
330.944
 21
20.7216
 31
0.0
  0
LINE
  8
0
 62
     0
 10
330.944
 20
20.7216
 30
0.0
 11
330.944
 21
21.722
 31
0.0
  0
LINE
  8
0
 62
     0
 10
330.944
 20
21.722
 30
0.0
 11
316.945
 21
21.722
 31
0.0
  0
LINE
  8
0
 62
     0
 10
231.22
 20
21.722
 30
0.0
 11
231.22
 21
20.7216
 31
0.0
  0
LINE
  8
0
 62
     0
 10
231.22
 20
20.7216
 30
0.0
 11
230.419
 21
20.7216
 31
0.0
  0
LINE
  8
0
 62
     0
 10
230.419
 20
20.7216
 30
0.0
 11
230.419
 21
17.6223
 31
0.0
  0
LINE
  8
0
 62
     0
 10
230.419
 20
17.6223
 30
0.0
 11
231.22
 21
17.6223
 31
0.0
  0
LINE
  8
0
 62
     0
 10
231.22
 20
17.6223
 30
0.0
 11
231.22
 21
11.8222
 31
0.0
  0
LINE
  8
0
 62
     0
 10
231.22
 20
11.8222
 30
0.0
 11
230.419
 21
11.8222
 31
0.0
  0
LINE
  8
0
 62
     0
 10
230.419
 20
11.8222
 30
0.0
 11
230.419
 21
8.72162
 31
0.0
  0
LINE
  8
0
 62
     0
 10
230.419
 20
8.72162
 30
0.0
 11
231.22
 21
8.72162
 31
0.0
  0
LINE
  8
0
 62
     0
 10
231.22
 20
8.72162
 30
0.0
 11
231.22
 21
7.72252
 31
0.0
  0
LINE
  8
0
 62
     0
 10
231.22
 20
7.72252
 30
0.0
 11
245.219
 21
7.72252
 31
0.0
  0
LINE
  8
0
 62
     0
 10
245.219
 20
7.72252
 30
0.0
 11
245.219
 21
8.72162
 31
0.0
  0
LINE
  8
0
 62
     0
 10
245.219
 20
8.72162
 30
0.0
 11
246.02
 21
8.72162
 31
0.0
  0
LINE
  8
0
 62
     0
 10
246.02
 20
8.72162
 30
0.0
 11
246.02
 21
11.8222
 31
0.0
  0
LINE
  8
0
 62
     0
 10
246.02
 20
11.8222
 30
0.0
 11
245.219
 21
11.8222
 31
0.0
  0
LINE
  8
0
 62
     0
 10
245.219
 20
11.8222
 30
0.0
 11
245.219
 21
17.6223
 31
0.0
  0
LINE
  8
0
 62
     0
 10
245.219
 20
17.6223
 30
0.0
 11
246.02
 21
17.6223
 31
0.0
  0
LINE
  8
0
 62
     0
 10
246.02
 20
17.6223
 30
0.0
 11
246.02
 21
20.7216
 31
0.0
  0
LINE
  8
0
 62
     0
 10
246.02
 20
20.7216
 30
0.0
 11
245.219
 21
20.7216
 31
0.0
  0
LINE
  8
0
 62
     0
 10
245.219
 20
20.7216
 30
0.0
 11
245.219
 21
21.722
 31
0.0
  0
LINE
  8
0
 62
     0
 10
245.219
 20
21.722
 30
0.0
 11
231.22
 21
21.722
 31
0.0
  0
LINE
  8
0
 62
     0
 10
212.17
 20
21.722
 30
0.0
 11
212.17
 21
20.7216
 31
0.0
  0
LINE
  8
0
 62
     0
 10
212.17
 20
20.7216
 30
0.0
 11
211.369
 21
20.7216
 31
0.0
  0
LINE
  8
0
 62
     0
 10
211.369
 20
20.7216
 30
0.0
 11
211.369
 21
17.6223
 31
0.0
  0
LINE
  8
0
 62
     0
 10
211.369
 20
17.6223
 30
0.0
 11
212.17
 21
17.6223
 31
0.0
  0
LINE
  8
0
 62
     0
 10
212.17
 20
17.6223
 30
0.0
 11
212.17
 21
11.8222
 31
0.0
  0
LINE
  8
0
 62
     0
 10
212.17
 20
11.8222
 30
0.0
 11
211.369
 21
11.8222
 31
0.0
  0
LINE
  8
0
 62
     0
 10
211.369
 20
11.8222
 30
0.0
 11
211.369
 21
8.72162
 31
0.0
  0
LINE
  8
0
 62
     0
 10
211.369
 20
8.72162
 30
0.0
 11
212.17
 21
8.72162
 31
0.0
  0
LINE
  8
0
 62
     0
 10
212.17
 20
8.72162
 30
0.0
 11
212.17
 21
7.72252
 31
0.0
  0
LINE
  8
0
 62
     0
 10
212.17
 20
7.72252
 30
0.0
 11
226.169
 21
7.72252
 31
0.0
  0
LINE
  8
0
 62
     0
 10
226.169
 20
7.72252
 30
0.0
 11
226.169
 21
8.72162
 31
0.0
  0
LINE
  8
0
 62
     0
 10
226.169
 20
8.72162
 30
0.0
 11
226.97
 21
8.72162
 31
0.0
  0
LINE
  8
0
 62
     0
 10
226.97
 20
8.72162
 30
0.0
 11
226.97
 21
11.8222
 31
0.0
  0
LINE
  8
0
 62
     0
 10
226.97
 20
11.8222
 30
0.0
 11
226.169
 21
11.8222
 31
0.0
  0
LINE
  8
0
 62
     0
 10
226.169
 20
11.8222
 30
0.0
 11
226.169
 21
17.6223
 31
0.0
  0
LINE
  8
0
 62
     0
 10
226.169
 20
17.6223
 30
0.0
 11
226.97
 21
17.6223
 31
0.0
  0
LINE
  8
0
 62
     0
 10
226.97
 20
17.6223
 30
0.0
 11
226.97
 21
20.7216
 31
0.0
  0
LINE
  8
0
 62
     0
 10
226.97
 20
20.7216
 30
0.0
 11
226.169
 21
20.7216
 31
0.0
  0
LINE
  8
0
 62
     0
 10
226.169
 20
20.7216
 30
0.0
 11
226.169
 21
21.722
 31
0.0
  0
LINE
  8
0
 62
     0
 10
226.169
 20
21.722
 30
0.0
 11
212.17
 21
21.722
 31
0.0
  0
LINE
  8
0
 62
     0
 10
193.118
 20
21.722
 30
0.0
 11
193.118
 21
20.7216
 31
0.0
  0
LINE
  8
0
 62
     0
 10
193.118
 20
20.7216
 30
0.0
 11
192.319
 21
20.7216
 31
0.0
  0
LINE
  8
0
 62
     0
 10
192.319
 20
20.7216
 30
0.0
 11
192.319
 21
17.6223
 31
0.0
  0
LINE
  8
0
 62
     0
 10
192.319
 20
17.6223
 30
0.0
 11
193.118
 21
17.6223
 31
0.0
  0
LINE
  8
0
 62
     0
 10
193.118
 20
17.6223
 30
0.0
 11
193.118
 21
11.8222
 31
0.0
  0
LINE
  8
0
 62
     0
 10
193.118
 20
11.8222
 30
0.0
 11
192.319
 21
11.8222
 31
0.0
  0
LINE
  8
0
 62
     0
 10
192.319
 20
11.8222
 30
0.0
 11
192.319
 21
8.72162
 31
0.0
  0
LINE
  8
0
 62
     0
 10
192.319
 20
8.72162
 30
0.0
 11
193.118
 21
8.72162
 31
0.0
  0
LINE
  8
0
 62
     0
 10
193.118
 20
8.72162
 30
0.0
 11
193.118
 21
7.72252
 31
0.0
  0
LINE
  8
0
 62
     0
 10
193.118
 20
7.72252
 30
0.0
 11
207.119
 21
7.72252
 31
0.0
  0
LINE
  8
0
 62
     0
 10
207.119
 20
7.72252
 30
0.0
 11
207.119
 21
8.72162
 31
0.0
  0
LINE
  8
0
 62
     0
 10
207.119
 20
8.72162
 30
0.0
 11
207.92
 21
8.72162
 31
0.0
  0
LINE
  8
0
 62
     0
 10
207.92
 20
8.72162
 30
0.0
 11
207.92
 21
11.8222
 31
0.0
  0
LINE
  8
0
 62
     0
 10
207.92
 20
11.8222
 30
0.0
 11
207.119
 21
11.8222
 31
0.0
  0
LINE
  8
0
 62
     0
 10
207.119
 20
11.8222
 30
0.0
 11
207.119
 21
17.6223
 31
0.0
  0
LINE
  8
0
 62
     0
 10
207.119
 20
17.6223
 30
0.0
 11
207.92
 21
17.6223
 31
0.0
  0
LINE
  8
0
 62
     0
 10
207.92
 20
17.6223
 30
0.0
 11
207.92
 21
20.7216
 31
0.0
  0
LINE
  8
0
 62
     0
 10
207.92
 20
20.7216
 30
0.0
 11
207.119
 21
20.7216
 31
0.0
  0
LINE
  8
0
 62
     0
 10
207.119
 20
20.7216
 30
0.0
 11
207.119
 21
21.722
 31
0.0
  0
LINE
  8
0
 62
     0
 10
207.119
 20
21.722
 30
0.0
 11
193.118
 21
21.722
 31
0.0
  0
LINE
  8
0
 62
     0
 10
76.4371
 20
21.722
 30
0.0
 11
76.4371
 21
20.7216
 31
0.0
  0
LINE
  8
0
 62
     0
 10
76.4371
 20
20.7216
 30
0.0
 11
75.6377
 21
20.7216
 31
0.0
  0
LINE
  8
0
 62
     0
 10
75.6377
 20
20.7216
 30
0.0
 11
75.6377
 21
17.6223
 31
0.0
  0
LINE
  8
0
 62
     0
 10
75.6377
 20
17.6223
 30
0.0
 11
76.4371
 21
17.6223
 31
0.0
  0
LINE
  8
0
 62
     0
 10
76.4371
 20
17.6223
 30
0.0
 11
76.4371
 21
11.8222
 31
0.0
  0
LINE
  8
0
 62
     0
 10
76.4371
 20
11.8222
 30
0.0
 11
75.6377
 21
11.8222
 31
0.0
  0
LINE
  8
0
 62
     0
 10
75.6377
 20
11.8222
 30
0.0
 11
75.6377
 21
8.72162
 31
0.0
  0
LINE
  8
0
 62
     0
 10
75.6377
 20
8.72162
 30
0.0
 11
76.4371
 21
8.72162
 31
0.0
  0
LINE
  8
0
 62
     0
 10
76.4371
 20
8.72162
 30
0.0
 11
76.4371
 21
7.72252
 31
0.0
  0
LINE
  8
0
 62
     0
 10
76.4371
 20
7.72252
 30
0.0
 11
90.4378
 21
7.72252
 31
0.0
  0
LINE
  8
0
 62
     0
 10
90.4378
 20
7.72252
 30
0.0
 11
90.4378
 21
8.72162
 31
0.0
  0
LINE
  8
0
 62
     0
 10
90.4378
 20
8.72162
 30
0.0
 11
91.2372
 21
8.72162
 31
0.0
  0
LINE
  8
0
 62
     0
 10
91.2372
 20
8.72162
 30
0.0
 11
91.2372
 21
11.8222
 31
0.0
  0
LINE
  8
0
 62
     0
 10
91.2372
 20
11.8222
 30
0.0
 11
90.4378
 21
11.8222
 31
0.0
  0
LINE
  8
0
 62
     0
 10
90.4378
 20
11.8222
 30
0.0
 11
90.4378
 21
17.6223
 31
0.0
  0
LINE
  8
0
 62
     0
 10
90.4378
 20
17.6223
 30
0.0
 11
91.2372
 21
17.6223
 31
0.0
  0
LINE
  8
0
 62
     0
 10
91.2372
 20
17.6223
 30
0.0
 11
91.2372
 21
20.7216
 31
0.0
  0
LINE
  8
0
 62
     0
 10
91.2372
 20
20.7216
 30
0.0
 11
90.4378
 21
20.7216
 31
0.0
  0
LINE
  8
0
 62
     0
 10
90.4378
 20
20.7216
 30
0.0
 11
90.4378
 21
21.722
 31
0.0
  0
LINE
  8
0
 62
     0
 10
90.4378
 20
21.722
 30
0.0
 11
76.4371
 21
21.722
 31
0.0
  0
LINE
  8
0
 62
     0
 10
52.626
 20
21.722
 30
0.0
 11
52.626
 21
20.7216
 31
0.0
  0
LINE
  8
0
 62
     0
 10
52.626
 20
20.7216
 30
0.0
 11
51.8252
 21
20.7216
 31
0.0
  0
LINE
  8
0
 62
     0
 10
51.8252
 20
20.7216
 30
0.0
 11
51.8252
 21
17.6223
 31
0.0
  0
LINE
  8
0
 62
     0
 10
51.8252
 20
17.6223
 30
0.0
 11
52.626
 21
17.6223
 31
0.0
  0
LINE
  8
0
 62
     0
 10
52.626
 20
17.6223
 30
0.0
 11
52.626
 21
11.8222
 31
0.0
  0
LINE
  8
0
 62
     0
 10
52.626
 20
11.8222
 30
0.0
 11
51.8252
 21
11.8222
 31
0.0
  0
LINE
  8
0
 62
     0
 10
51.8252
 20
11.8222
 30
0.0
 11
51.8252
 21
8.72162
 31
0.0
  0
LINE
  8
0
 62
     0
 10
51.8252
 20
8.72162
 30
0.0
 11
52.626
 21
8.72162
 31
0.0
  0
LINE
  8
0
 62
     0
 10
52.626
 20
8.72162
 30
0.0
 11
52.626
 21
7.72252
 31
0.0
  0
LINE
  8
0
 62
     0
 10
52.626
 20
7.72252
 30
0.0
 11
66.6253
 21
7.72252
 31
0.0
  0
LINE
  8
0
 62
     0
 10
66.6253
 20
7.72252
 30
0.0
 11
66.6253
 21
8.72162
 31
0.0
  0
LINE
  8
0
 62
     0
 10
66.6253
 20
8.72162
 30
0.0
 11
67.4261
 21
8.72162
 31
0.0
  0
LINE
  8
0
 62
     0
 10
67.4261
 20
8.72162
 30
0.0
 11
67.4261
 21
11.8222
 31
0.0
  0
LINE
  8
0
 62
     0
 10
67.4261
 20
11.8222
 30
0.0
 11
66.6253
 21
11.8222
 31
0.0
  0
LINE
  8
0
 62
     0
 10
66.6253
 20
11.8222
 30
0.0
 11
66.6253
 21
17.6223
 31
0.0
  0
LINE
  8
0
 62
     0
 10
66.6253
 20
17.6223
 30
0.0
 11
67.4261
 21
17.6223
 31
0.0
  0
LINE
  8
0
 62
     0
 10
67.4261
 20
17.6223
 30
0.0
 11
67.4261
 21
20.7216
 31
0.0
  0
LINE
  8
0
 62
     0
 10
67.4261
 20
20.7216
 30
0.0
 11
66.6253
 21
20.7216
 31
0.0
  0
LINE
  8
0
 62
     0
 10
66.6253
 20
20.7216
 30
0.0
 11
66.6253
 21
21.722
 31
0.0
  0
LINE
  8
0
 62
     0
 10
66.6253
 20
21.722
 30
0.0
 11
52.626
 21
21.722
 31
0.0
  0
LINE
  8
0
 62
     0
 10
28.812
 20
21.722
 30
0.0
 11
28.812
 21
20.7216
 31
0.0
  0
LINE
  8
0
 62
     0
 10
28.812
 20
20.7216
 30
0.0
 11
28.0128
 21
20.7216
 31
0.0
  0
LINE
  8
0
 62
     0
 10
28.0128
 20
20.7216
 30
0.0
 11
28.0128
 21
17.6223
 31
0.0
  0
LINE
  8
0
 62
     0
 10
28.0128
 20
17.6223
 30
0.0
 11
28.812
 21
17.6223
 31
0.0
  0
LINE
  8
0
 62
     0
 10
28.812
 20
17.6223
 30
0.0
 11
28.812
 21
11.8222
 31
0.0
  0
LINE
  8
0
 62
     0
 10
28.812
 20
11.8222
 30
0.0
 11
28.0128
 21
11.8222
 31
0.0
  0
LINE
  8
0
 62
     0
 10
28.0128
 20
11.8222
 30
0.0
 11
28.0128
 21
8.72162
 31
0.0
  0
LINE
  8
0
 62
     0
 10
28.0128
 20
8.72162
 30
0.0
 11
28.812
 21
8.72162
 31
0.0
  0
LINE
  8
0
 62
     0
 10
28.812
 20
8.72162
 30
0.0
 11
28.812
 21
7.72252
 31
0.0
  0
LINE
  8
0
 62
     0
 10
28.812
 20
7.72252
 30
0.0
 11
42.8128
 21
7.72252
 31
0.0
  0
LINE
  8
0
 62
     0
 10
42.8128
 20
7.72252
 30
0.0
 11
42.8128
 21
8.72162
 31
0.0
  0
LINE
  8
0
 62
     0
 10
42.8128
 20
8.72162
 30
0.0
 11
43.6122
 21
8.72162
 31
0.0
  0
LINE
  8
0
 62
     0
 10
43.6122
 20
8.72162
 30
0.0
 11
43.6122
 21
11.8222
 31
0.0
  0
LINE
  8
0
 62
     0
 10
43.6122
 20
11.8222
 30
0.0
 11
42.8128
 21
11.8222
 31
0.0
  0
LINE
  8
0
 62
     0
 10
42.8128
 20
11.8222
 30
0.0
 11
42.8128
 21
17.6223
 31
0.0
  0
LINE
  8
0
 62
     0
 10
42.8128
 20
17.6223
 30
0.0
 11
43.6122
 21
17.6223
 31
0.0
  0
LINE
  8
0
 62
     0
 10
43.6122
 20
17.6223
 30
0.0
 11
43.6122
 21
20.7216
 31
0.0
  0
LINE
  8
0
 62
     0
 10
43.6122
 20
20.7216
 30
0.0
 11
42.8128
 21
20.7216
 31
0.0
  0
LINE
  8
0
 62
     0
 10
42.8128
 20
20.7216
 30
0.0
 11
42.8128
 21
21.722
 31
0.0
  0
LINE
  8
0
 62
     0
 10
42.8128
 20
21.722
 30
0.0
 11
28.812
 21
21.722
 31
0.0
  0
LINE
  8
0
 62
     0
 10
5.00091
 20
21.722
 30
0.0
 11
5.00091
 21
20.7216
 31
0.0
  0
LINE
  8
0
 62
     0
 10
5.00091
 20
20.7216
 30
0.0
 11
4.20028
 21
20.7216
 31
0.0
  0
LINE
  8
0
 62
     0
 10
4.20028
 20
20.7216
 30
0.0
 11
4.20028
 21
17.6223
 31
0.0
  0
LINE
  8
0
 62
     0
 10
4.20028
 20
17.6223
 30
0.0
 11
5.00091
 21
17.6223
 31
0.0
  0
LINE
  8
0
 62
     0
 10
5.00091
 20
17.6223
 30
0.0
 11
5.00091
 21
11.8222
 31
0.0
  0
LINE
  8
0
 62
     0
 10
5.00091
 20
11.8222
 30
0.0
 11
4.20028
 21
11.8222
 31
0.0
  0
LINE
  8
0
 62
     0
 10
4.20028
 20
11.8222
 30
0.0
 11
4.20028
 21
8.72162
 31
0.0
  0
LINE
  8
0
 62
     0
 10
4.20028
 20
8.72162
 30
0.0
 11
5.00091
 21
8.72162
 31
0.0
  0
LINE
  8
0
 62
     0
 10
5.00091
 20
8.72162
 30
0.0
 11
5.00091
 21
7.72252
 31
0.0
  0
LINE
  8
0
 62
     0
 10
5.00091
 20
7.72252
 30
0.0
 11
19.0004
 21
7.72252
 31
0.0
  0
LINE
  8
0
 62
     0
 10
19.0004
 20
7.72252
 30
0.0
 11
19.0004
 21
8.72162
 31
0.0
  0
LINE
  8
0
 62
     0
 10
19.0004
 20
8.72162
 30
0.0
 11
19.801
 21
8.72162
 31
0.0
  0
LINE
  8
0
 62
     0
 10
19.801
 20
8.72162
 30
0.0
 11
19.801
 21
11.8222
 31
0.0
  0
LINE
  8
0
 62
     0
 10
19.801
 20
11.8222
 30
0.0
 11
19.0004
 21
11.8222
 31
0.0
  0
LINE
  8
0
 62
     0
 10
19.0004
 20
11.8222
 30
0.0
 11
19.0004
 21
17.6223
 31
0.0
  0
LINE
  8
0
 62
     0
 10
19.0004
 20
17.6223
 30
0.0
 11
19.801
 21
17.6223
 31
0.0
  0
LINE
  8
0
 62
     0
 10
19.801
 20
17.6223
 30
0.0
 11
19.801
 21
20.7216
 31
0.0
  0
LINE
  8
0
 62
     0
 10
19.801
 20
20.7216
 30
0.0
 11
19.0004
 21
20.7216
 31
0.0
  0
LINE
  8
0
 62
     0
 10
19.0004
 20
20.7216
 30
0.0
 11
19.0004
 21
21.722
 31
0.0
  0
LINE
  8
0
 62
     0
 10
19.0004
 20
21.722
 30
0.0
 11
5.00091
 21
21.722
 31
0.0
  0
LINE
  8
0
 62
     0
 10
361.544
 20
40.3475
 30
0.0
 11
361.544
 21
39.522
 31
0.0
  0
LINE
  8
0
 62
     0
 10
361.544
 20
39.522
 30
0.0
 11
355.275
 21
39.522
 31
0.0
  0
LINE
  8
0
 62
     0
 10
355.275
 20
39.522
 30
0.0
 11
355.275
 21
37.797
 31
0.0
  0
LINE
  8
0
 62
     0
 10
355.275
 20
37.797
 30
0.0
 11
354.295
 21
37.797
 31
0.0
  0
LINE
  8
0
 62
     0
 10
354.295
 20
37.797
 30
0.0
 11
354.295
 21
34.4978
 31
0.0
  0
LINE
  8
0
 62
     0
 10
354.295
 20
34.4978
 30
0.0
 11
355.275
 21
34.4978
 31
0.0
  0
LINE
  8
0
 62
     0
 10
355.275
 20
34.4978
 30
0.0
 11
355.275
 21
32.7725
 31
0.0
  0
LINE
  8
0
 62
     0
 10
355.275
 20
32.7725
 30
0.0
 11
359.745
 21
32.7725
 31
0.0
  0
LINE
  8
0
 62
     0
 10
359.745
 20
32.7725
 30
0.0
 11
359.745
 21
31.247
 31
0.0
  0
LINE
  8
0
 62
     0
 10
359.745
 20
31.247
 30
0.0
 11
359.145
 21
31.247
 31
0.0
  0
LINE
  8
0
 62
     0
 10
359.145
 20
31.247
 30
0.0
 11
359.145
 21
32.0477
 31
0.0
  0
LINE
  8
0
 62
     0
 10
359.145
 20
32.0477
 30
0.0
 11
356.045
 21
32.0477
 31
0.0
  0
LINE
  8
0
 62
     0
 10
356.045
 20
32.0477
 30
0.0
 11
356.045
 21
31.247
 31
0.0
  0
LINE
  8
0
 62
     0
 10
356.045
 20
31.247
 30
0.0
 11
355.046
 21
31.247
 31
0.0
  0
LINE
  8
0
 62
     0
 10
355.046
 20
31.247
 30
0.0
 11
355.046
 21
17.2475
 31
0.0
  0
LINE
  8
0
 62
     0
 10
355.046
 20
17.2475
 30
0.0
 11
356.045
 21
17.2475
 31
0.0
  0
LINE
  8
0
 62
     0
 10
356.045
 20
17.2475
 30
0.0
 11
356.045
 21
16.4469
 31
0.0
  0
LINE
  8
0
 62
     0
 10
356.045
 20
16.4469
 30
0.0
 11
359.145
 21
16.4469
 31
0.0
  0
LINE
  8
0
 62
     0
 10
359.145
 20
16.4469
 30
0.0
 11
359.145
 21
17.2475
 31
0.0
  0
LINE
  8
0
 62
     0
 10
359.145
 20
17.2475
 30
0.0
 11
359.745
 21
17.2475
 31
0.0
  0
LINE
  8
0
 62
     0
 10
359.745
 20
17.2475
 30
0.0
 11
359.745
 21
15.722
 31
0.0
  0
LINE
  8
0
 62
     0
 10
359.745
 20
15.722
 30
0.0
 11
355.275
 21
15.722
 31
0.0
  0
LINE
  8
0
 62
     0
 10
355.275
 20
15.722
 30
0.0
 11
355.275
 21
13.9967
 31
0.0
  0
LINE
  8
0
 62
     0
 10
355.275
 20
13.9967
 30
0.0
 11
354.295
 21
13.9967
 31
0.0
  0
LINE
  8
0
 62
     0
 10
354.295
 20
13.9967
 30
0.0
 11
354.295
 21
10.6977
 31
0.0
  0
LINE
  8
0
 62
     0
 10
354.295
 20
10.6977
 30
0.0
 11
355.275
 21
10.6977
 31
0.0
  0
LINE
  8
0
 62
     0
 10
355.275
 20
10.6977
 30
0.0
 11
355.275
 21
8.97241
 31
0.0
  0
LINE
  8
0
 62
     0
 10
355.275
 20
8.97241
 30
0.0
 11
361.544
 21
8.97241
 31
0.0
  0
LINE
  8
0
 62
     0
 10
361.544
 20
8.97241
 30
0.0
 11
361.544
 21
8.14698
 31
0.0
  0
LINE
  8
0
 62
     0
 10
361.544
 20
8.14698
 30
0.0
 11
364.345
 21
8.14698
 31
0.0
  0
LINE
  8
0
 62
     0
 10
364.345
 20
8.14698
 30
0.0
 11
364.345
 21
8.97241
 31
0.0
  0
LINE
  8
0
 62
     0
 10
364.345
 20
8.97241
 30
0.0
 11
367.577
 21
8.97241
 31
0.0
  0
LINE
  8
0
 62
     0
 10
367.577
 20
8.97241
 30
0.0
 11
367.577
 21
10.6977
 31
0.0
  0
LINE
  8
0
 62
     0
 10
367.577
 20
10.6977
 30
0.0
 11
368.494
 21
10.6977
 31
0.0
  0
LINE
  8
0
 62
     0
 10
368.494
 20
10.6977
 30
0.0
 11
368.494
 21
13.9967
 31
0.0
  0
LINE
  8
0
 62
     0
 10
368.494
 20
13.9967
 30
0.0
 11
367.577
 21
13.9967
 31
0.0
  0
LINE
  8
0
 62
     0
 10
367.577
 20
13.9967
 30
0.0
 11
367.577
 21
15.722
 31
0.0
  0
LINE
  8
0
 62
     0
 10
367.577
 20
15.722
 30
0.0
 11
364.345
 21
15.722
 31
0.0
  0
LINE
  8
0
 62
     0
 10
364.345
 20
15.722
 30
0.0
 11
364.345
 21
17.2475
 31
0.0
  0
LINE
  8
0
 62
     0
 10
364.345
 20
17.2475
 30
0.0
 11
364.945
 21
17.2475
 31
0.0
  0
LINE
  8
0
 62
     0
 10
364.945
 20
17.2475
 30
0.0
 11
364.945
 21
16.4469
 31
0.0
  0
LINE
  8
0
 62
     0
 10
364.945
 20
16.4469
 30
0.0
 11
368.046
 21
16.4469
 31
0.0
  0
LINE
  8
0
 62
     0
 10
368.046
 20
16.4469
 30
0.0
 11
368.046
 21
17.2475
 31
0.0
  0
LINE
  8
0
 62
     0
 10
368.046
 20
17.2475
 30
0.0
 11
369.044
 21
17.2475
 31
0.0
  0
LINE
  8
0
 62
     0
 10
369.044
 20
17.2475
 30
0.0
 11
369.044
 21
31.247
 31
0.0
  0
LINE
  8
0
 62
     0
 10
369.044
 20
31.247
 30
0.0
 11
368.046
 21
31.247
 31
0.0
  0
LINE
  8
0
 62
     0
 10
368.046
 20
31.247
 30
0.0
 11
368.046
 21
32.0477
 31
0.0
  0
LINE
  8
0
 62
     0
 10
368.046
 20
32.0477
 30
0.0
 11
364.945
 21
32.0477
 31
0.0
  0
LINE
  8
0
 62
     0
 10
364.945
 20
32.0477
 30
0.0
 11
364.945
 21
31.247
 31
0.0
  0
LINE
  8
0
 62
     0
 10
364.945
 20
31.247
 30
0.0
 11
364.345
 21
31.247
 31
0.0
  0
LINE
  8
0
 62
     0
 10
364.345
 20
31.247
 30
0.0
 11
364.345
 21
32.7725
 31
0.0
  0
LINE
  8
0
 62
     0
 10
364.345
 20
32.7725
 30
0.0
 11
367.577
 21
32.7725
 31
0.0
  0
LINE
  8
0
 62
     0
 10
367.577
 20
32.7725
 30
0.0
 11
367.577
 21
34.4978
 31
0.0
  0
LINE
  8
0
 62
     0
 10
367.577
 20
34.4978
 30
0.0
 11
368.494
 21
34.4978
 31
0.0
  0
LINE
  8
0
 62
     0
 10
368.494
 20
34.4978
 30
0.0
 11
368.494
 21
37.797
 31
0.0
  0
LINE
  8
0
 62
     0
 10
368.494
 20
37.797
 30
0.0
 11
367.577
 21
37.797
 31
0.0
  0
LINE
  8
0
 62
     0
 10
367.577
 20
37.797
 30
0.0
 11
367.577
 21
39.522
 31
0.0
  0
LINE
  8
0
 62
     0
 10
367.577
 20
39.522
 30
0.0
 11
364.345
 21
39.522
 31
0.0
  0
LINE
  8
0
 62
     0
 10
364.345
 20
39.522
 30
0.0
 11
364.345
 21
40.3475
 31
0.0
  0
LINE
  8
0
 62
     0
 10
364.345
 20
40.3475
 30
0.0
 11
361.544
 21
40.3475
 31
0.0
  0
LINE
  8
0
 62
     0
 10
274.082
 20
36.0094
 30
0.0
 11
274.082
 21
35.0104
 31
0.0
  0
LINE
  8
0
 62
     0
 10
274.082
 20
35.0104
 30
0.0
 11
273.281
 21
35.0104
 31
0.0
  0
LINE
  8
0
 62
     0
 10
273.281
 20
35.0104
 30
0.0
 11
273.281
 21
31.9098
 31
0.0
  0
LINE
  8
0
 62
     0
 10
273.281
 20
31.9098
 30
0.0
 11
274.082
 21
31.9098
 31
0.0
  0
LINE
  8
0
 62
     0
 10
274.082
 20
31.9098
 30
0.0
 11
274.082
 21
26.1097
 31
0.0
  0
LINE
  8
0
 62
     0
 10
274.082
 20
26.1097
 30
0.0
 11
273.281
 21
26.1097
 31
0.0
  0
LINE
  8
0
 62
     0
 10
273.281
 20
26.1097
 30
0.0
 11
273.281
 21
23.0105
 31
0.0
  0
LINE
  8
0
 62
     0
 10
273.281
 20
23.0105
 30
0.0
 11
274.082
 21
23.0105
 31
0.0
  0
LINE
  8
0
 62
     0
 10
274.082
 20
23.0105
 30
0.0
 11
274.082
 21
22.01
 31
0.0
  0
LINE
  8
0
 62
     0
 10
274.082
 20
22.01
 30
0.0
 11
288.082
 21
22.01
 31
0.0
  0
LINE
  8
0
 62
     0
 10
288.082
 20
22.01
 30
0.0
 11
288.082
 21
23.0105
 31
0.0
  0
LINE
  8
0
 62
     0
 10
288.082
 20
23.0105
 30
0.0
 11
288.881
 21
23.0105
 31
0.0
  0
LINE
  8
0
 62
     0
 10
288.881
 20
23.0105
 30
0.0
 11
288.881
 21
26.1097
 31
0.0
  0
LINE
  8
0
 62
     0
 10
288.881
 20
26.1097
 30
0.0
 11
288.082
 21
26.1097
 31
0.0
  0
LINE
  8
0
 62
     0
 10
288.082
 20
26.1097
 30
0.0
 11
288.082
 21
31.9098
 31
0.0
  0
LINE
  8
0
 62
     0
 10
288.082
 20
31.9098
 30
0.0
 11
288.881
 21
31.9098
 31
0.0
  0
LINE
  8
0
 62
     0
 10
288.881
 20
31.9098
 30
0.0
 11
288.881
 21
35.0104
 31
0.0
  0
LINE
  8
0
 62
     0
 10
288.881
 20
35.0104
 30
0.0
 11
288.082
 21
35.0104
 31
0.0
  0
LINE
  8
0
 62
     0
 10
288.082
 20
35.0104
 30
0.0
 11
288.082
 21
36.0094
 31
0.0
  0
LINE
  8
0
 62
     0
 10
288.082
 20
36.0094
 30
0.0
 11
274.082
 21
36.0094
 31
0.0
  0
LINE
  8
0
 62
     0
 10
14.5259
 20
40.7719
 30
0.0
 11
14.5259
 21
39.7715
 31
0.0
  0
LINE
  8
0
 62
     0
 10
14.5259
 20
39.7715
 30
0.0
 11
13.7253
 21
39.7715
 31
0.0
  0
LINE
  8
0
 62
     0
 10
13.7253
 20
39.7715
 30
0.0
 11
13.7253
 21
36.6723
 31
0.0
  0
LINE
  8
0
 62
     0
 10
13.7253
 20
36.6723
 30
0.0
 11
14.5259
 21
36.6723
 31
0.0
  0
LINE
  8
0
 62
     0
 10
14.5259
 20
36.6723
 30
0.0
 11
14.5259
 21
36.0715
 31
0.0
  0
LINE
  8
0
 62
     0
 10
14.5259
 20
36.0715
 30
0.0
 11
13.0004
 21
36.0715
 31
0.0
  0
LINE
  8
0
 62
     0
 10
13.0004
 20
36.0715
 30
0.0
 11
13.0004
 21
39.3016
 31
0.0
  0
LINE
  8
0
 62
     0
 10
13.0004
 20
39.3016
 30
0.0
 11
11.2751
 21
39.3016
 31
0.0
  0
LINE
  8
0
 62
     0
 10
11.2751
 20
39.3016
 30
0.0
 11
11.2751
 21
40.2237
 31
0.0
  0
LINE
  8
0
 62
     0
 10
11.2751
 20
40.2237
 30
0.0
 11
7.97609
 21
40.2237
 31
0.0
  0
LINE
  8
0
 62
     0
 10
7.97609
 20
40.2237
 30
0.0
 11
7.97609
 21
39.3016
 31
0.0
  0
LINE
  8
0
 62
     0
 10
7.97609
 20
39.3016
 30
0.0
 11
6.2508
 21
39.3016
 31
0.0
  0
LINE
  8
0
 62
     0
 10
6.2508
 20
39.3016
 30
0.0
 11
6.2508
 21
36.0715
 31
0.0
  0
LINE
  8
0
 62
     0
 10
6.2508
 20
36.0715
 30
0.0
 11
5.42533
 21
36.0715
 31
0.0
  0
LINE
  8
0
 62
     0
 10
5.42533
 20
36.0715
 30
0.0
 11
5.42533
 21
33.2727
 31
0.0
  0
LINE
  8
0
 62
     0
 10
5.42533
 20
33.2727
 30
0.0
 11
6.2508
 21
33.2727
 31
0.0
  0
LINE
  8
0
 62
     0
 10
6.2508
 20
33.2727
 30
0.0
 11
6.2508
 21
27.0027
 31
0.0
  0
LINE
  8
0
 62
     0
 10
6.2508
 20
27.0027
 30
0.0
 11
7.97609
 21
27.0027
 31
0.0
  0
LINE
  8
0
 62
     0
 10
7.97609
 20
27.0027
 30
0.0
 11
7.97609
 21
26.0215
 31
0.0
  0
LINE
  8
0
 62
     0
 10
7.97609
 20
26.0215
 30
0.0
 11
11.2751
 21
26.0215
 31
0.0
  0
LINE
  8
0
 62
     0
 10
11.2751
 20
26.0215
 30
0.0
 11
11.2751
 21
27.0027
 31
0.0
  0
LINE
  8
0
 62
     0
 10
11.2751
 20
27.0027
 30
0.0
 11
13.0004
 21
27.0027
 31
0.0
  0
LINE
  8
0
 62
     0
 10
13.0004
 20
27.0027
 30
0.0
 11
13.0004
 21
31.4716
 31
0.0
  0
LINE
  8
0
 62
     0
 10
13.0004
 20
31.4716
 30
0.0
 11
14.5259
 21
31.4716
 31
0.0
  0
LINE
  8
0
 62
     0
 10
14.5259
 20
31.4716
 30
0.0
 11
14.5259
 21
30.8722
 31
0.0
  0
LINE
  8
0
 62
     0
 10
14.5259
 20
30.8722
 30
0.0
 11
13.7253
 21
30.8722
 31
0.0
  0
LINE
  8
0
 62
     0
 10
13.7253
 20
30.8722
 30
0.0
 11
13.7253
 21
27.7716
 31
0.0
  0
LINE
  8
0
 62
     0
 10
13.7253
 20
27.7716
 30
0.0
 11
14.5259
 21
27.7716
 31
0.0
  0
LINE
  8
0
 62
     0
 10
14.5259
 20
27.7716
 30
0.0
 11
14.5259
 21
26.7725
 31
0.0
  0
LINE
  8
0
 62
     0
 10
14.5259
 20
26.7725
 30
0.0
 11
28.5254
 21
26.7725
 31
0.0
  0
LINE
  8
0
 62
     0
 10
28.5254
 20
26.7725
 30
0.0
 11
28.5254
 21
27.7716
 31
0.0
  0
LINE
  8
0
 62
     0
 10
28.5254
 20
27.7716
 30
0.0
 11
29.326
 21
27.7716
 31
0.0
  0
LINE
  8
0
 62
     0
 10
29.326
 20
27.7716
 30
0.0
 11
29.326
 21
30.8722
 31
0.0
  0
LINE
  8
0
 62
     0
 10
29.326
 20
30.8722
 30
0.0
 11
28.5254
 21
30.8722
 31
0.0
  0
LINE
  8
0
 62
     0
 10
28.5254
 20
30.8722
 30
0.0
 11
28.5254
 21
31.4716
 31
0.0
  0
LINE
  8
0
 62
     0
 10
28.5254
 20
31.4716
 30
0.0
 11
30.0509
 21
31.4716
 31
0.0
  0
LINE
  8
0
 62
     0
 10
30.0509
 20
31.4716
 30
0.0
 11
30.0509
 21
27.0027
 31
0.0
  0
LINE
  8
0
 62
     0
 10
30.0509
 20
27.0027
 30
0.0
 11
31.7748
 21
27.0027
 31
0.0
  0
LINE
  8
0
 62
     0
 10
31.7748
 20
27.0027
 30
0.0
 11
31.7748
 21
26.0215
 31
0.0
  0
LINE
  8
0
 62
     0
 10
31.7748
 20
26.0215
 30
0.0
 11
35.0752
 21
26.0215
 31
0.0
  0
LINE
  8
0
 62
     0
 10
35.0752
 20
26.0215
 30
0.0
 11
35.0752
 21
27.0027
 31
0.0
  0
LINE
  8
0
 62
     0
 10
35.0752
 20
27.0027
 30
0.0
 11
36.8004
 21
27.0027
 31
0.0
  0
LINE
  8
0
 62
     0
 10
36.8004
 20
27.0027
 30
0.0
 11
36.8004
 21
33.2727
 31
0.0
  0
LINE
  8
0
 62
     0
 10
36.8004
 20
33.2727
 30
0.0
 11
37.6259
 21
33.2727
 31
0.0
  0
LINE
  8
0
 62
     0
 10
37.6259
 20
33.2727
 30
0.0
 11
37.6259
 21
36.0715
 31
0.0
  0
LINE
  8
0
 62
     0
 10
37.6259
 20
36.0715
 30
0.0
 11
36.8004
 21
36.0715
 31
0.0
  0
LINE
  8
0
 62
     0
 10
36.8004
 20
36.0715
 30
0.0
 11
36.8004
 21
39.3016
 31
0.0
  0
LINE
  8
0
 62
     0
 10
36.8004
 20
39.3016
 30
0.0
 11
35.0752
 21
39.3016
 31
0.0
  0
LINE
  8
0
 62
     0
 10
35.0752
 20
39.3016
 30
0.0
 11
35.0752
 21
40.2237
 31
0.0
  0
LINE
  8
0
 62
     0
 10
35.0752
 20
40.2237
 30
0.0
 11
31.7748
 21
40.2237
 31
0.0
  0
LINE
  8
0
 62
     0
 10
31.7748
 20
40.2237
 30
0.0
 11
31.7748
 21
39.3016
 31
0.0
  0
LINE
  8
0
 62
     0
 10
31.7748
 20
39.3016
 30
0.0
 11
30.0509
 21
39.3016
 31
0.0
  0
LINE
  8
0
 62
     0
 10
30.0509
 20
39.3016
 30
0.0
 11
30.0509
 21
36.0715
 31
0.0
  0
LINE
  8
0
 62
     0
 10
30.0509
 20
36.0715
 30
0.0
 11
28.5254
 21
36.0715
 31
0.0
  0
LINE
  8
0
 62
     0
 10
28.5254
 20
36.0715
 30
0.0
 11
28.5254
 21
36.6723
 31
0.0
  0
LINE
  8
0
 62
     0
 10
28.5254
 20
36.6723
 30
0.0
 11
29.326
 21
36.6723
 31
0.0
  0
LINE
  8
0
 62
     0
 10
29.326
 20
36.6723
 30
0.0
 11
29.326
 21
39.7715
 31
0.0
  0
LINE
  8
0
 62
     0
 10
29.326
 20
39.7715
 30
0.0
 11
28.5254
 21
39.7715
 31
0.0
  0
LINE
  8
0
 62
     0
 10
28.5254
 20
39.7715
 30
0.0
 11
28.5254
 21
40.7719
 31
0.0
  0
LINE
  8
0
 62
     0
 10
28.5254
 20
40.7719
 30
0.0
 11
14.5259
 21
40.7719
 31
0.0
  0
LINE
  8
0
 62
     0
 10
335.995
 20
40.7719
 30
0.0
 11
335.995
 21
39.7715
 31
0.0
  0
LINE
  8
0
 62
     0
 10
335.995
 20
39.7715
 30
0.0
 11
335.194
 21
39.7715
 31
0.0
  0
LINE
  8
0
 62
     0
 10
335.194
 20
39.7715
 30
0.0
 11
335.194
 21
36.6723
 31
0.0
  0
LINE
  8
0
 62
     0
 10
335.194
 20
36.6723
 30
0.0
 11
335.995
 21
36.6723
 31
0.0
  0
LINE
  8
0
 62
     0
 10
335.995
 20
36.6723
 30
0.0
 11
335.995
 21
30.8722
 31
0.0
  0
LINE
  8
0
 62
     0
 10
335.995
 20
30.8722
 30
0.0
 11
335.194
 21
30.8722
 31
0.0
  0
LINE
  8
0
 62
     0
 10
335.194
 20
30.8722
 30
0.0
 11
335.194
 21
27.7716
 31
0.0
  0
LINE
  8
0
 62
     0
 10
335.194
 20
27.7716
 30
0.0
 11
335.995
 21
27.7716
 31
0.0
  0
LINE
  8
0
 62
     0
 10
335.995
 20
27.7716
 30
0.0
 11
335.995
 21
26.7725
 31
0.0
  0
LINE
  8
0
 62
     0
 10
335.995
 20
26.7725
 30
0.0
 11
349.994
 21
26.7725
 31
0.0
  0
LINE
  8
0
 62
     0
 10
349.994
 20
26.7725
 30
0.0
 11
349.994
 21
27.7716
 31
0.0
  0
LINE
  8
0
 62
     0
 10
349.994
 20
27.7716
 30
0.0
 11
350.795
 21
27.7716
 31
0.0
  0
LINE
  8
0
 62
     0
 10
350.795
 20
27.7716
 30
0.0
 11
350.795
 21
30.8722
 31
0.0
  0
LINE
  8
0
 62
     0
 10
350.795
 20
30.8722
 30
0.0
 11
349.994
 21
30.8722
 31
0.0
  0
LINE
  8
0
 62
     0
 10
349.994
 20
30.8722
 30
0.0
 11
349.994
 21
36.6723
 31
0.0
  0
LINE
  8
0
 62
     0
 10
349.994
 20
36.6723
 30
0.0
 11
350.795
 21
36.6723
 31
0.0
  0
LINE
  8
0
 62
     0
 10
350.795
 20
36.6723
 30
0.0
 11
350.795
 21
39.7715
 31
0.0
  0
LINE
  8
0
 62
     0
 10
350.795
 20
39.7715
 30
0.0
 11
349.994
 21
39.7715
 31
0.0
  0
LINE
  8
0
 62
     0
 10
349.994
 20
39.7715
 30
0.0
 11
349.994
 21
40.7719
 31
0.0
  0
LINE
  8
0
 62
     0
 10
349.994
 20
40.7719
 30
0.0
 11
335.995
 21
40.7719
 31
0.0
  0
LINE
  8
0
 62
     0
 10
316.945
 20
40.7719
 30
0.0
 11
316.945
 21
39.7715
 31
0.0
  0
LINE
  8
0
 62
     0
 10
316.945
 20
39.7715
 30
0.0
 11
316.144
 21
39.7715
 31
0.0
  0
LINE
  8
0
 62
     0
 10
316.144
 20
39.7715
 30
0.0
 11
316.144
 21
36.6723
 31
0.0
  0
LINE
  8
0
 62
     0
 10
316.144
 20
36.6723
 30
0.0
 11
316.945
 21
36.6723
 31
0.0
  0
LINE
  8
0
 62
     0
 10
316.945
 20
36.6723
 30
0.0
 11
316.945
 21
30.8722
 31
0.0
  0
LINE
  8
0
 62
     0
 10
316.945
 20
30.8722
 30
0.0
 11
316.144
 21
30.8722
 31
0.0
  0
LINE
  8
0
 62
     0
 10
316.144
 20
30.8722
 30
0.0
 11
316.144
 21
27.7716
 31
0.0
  0
LINE
  8
0
 62
     0
 10
316.144
 20
27.7716
 30
0.0
 11
316.945
 21
27.7716
 31
0.0
  0
LINE
  8
0
 62
     0
 10
316.945
 20
27.7716
 30
0.0
 11
316.945
 21
26.7725
 31
0.0
  0
LINE
  8
0
 62
     0
 10
316.945
 20
26.7725
 30
0.0
 11
330.944
 21
26.7725
 31
0.0
  0
LINE
  8
0
 62
     0
 10
330.944
 20
26.7725
 30
0.0
 11
330.944
 21
27.7716
 31
0.0
  0
LINE
  8
0
 62
     0
 10
330.944
 20
27.7716
 30
0.0
 11
331.745
 21
27.7716
 31
0.0
  0
LINE
  8
0
 62
     0
 10
331.745
 20
27.7716
 30
0.0
 11
331.745
 21
30.8722
 31
0.0
  0
LINE
  8
0
 62
     0
 10
331.745
 20
30.8722
 30
0.0
 11
330.944
 21
30.8722
 31
0.0
  0
LINE
  8
0
 62
     0
 10
330.944
 20
30.8722
 30
0.0
 11
330.944
 21
36.6723
 31
0.0
  0
LINE
  8
0
 62
     0
 10
330.944
 20
36.6723
 30
0.0
 11
331.745
 21
36.6723
 31
0.0
  0
LINE
  8
0
 62
     0
 10
331.745
 20
36.6723
 30
0.0
 11
331.745
 21
39.7715
 31
0.0
  0
LINE
  8
0
 62
     0
 10
331.745
 20
39.7715
 30
0.0
 11
330.944
 21
39.7715
 31
0.0
  0
LINE
  8
0
 62
     0
 10
330.944
 20
39.7715
 30
0.0
 11
330.944
 21
40.7719
 31
0.0
  0
LINE
  8
0
 62
     0
 10
330.944
 20
40.7719
 30
0.0
 11
316.945
 21
40.7719
 31
0.0
  0
LINE
  8
0
 62
     0
 10
297.895
 20
40.7719
 30
0.0
 11
297.895
 21
39.7715
 31
0.0
  0
LINE
  8
0
 62
     0
 10
297.895
 20
39.7715
 30
0.0
 11
297.094
 21
39.7715
 31
0.0
  0
LINE
  8
0
 62
     0
 10
297.094
 20
39.7715
 30
0.0
 11
297.094
 21
36.6723
 31
0.0
  0
LINE
  8
0
 62
     0
 10
297.094
 20
36.6723
 30
0.0
 11
297.895
 21
36.6723
 31
0.0
  0
LINE
  8
0
 62
     0
 10
297.895
 20
36.6723
 30
0.0
 11
297.895
 21
30.8722
 31
0.0
  0
LINE
  8
0
 62
     0
 10
297.895
 20
30.8722
 30
0.0
 11
297.094
 21
30.8722
 31
0.0
  0
LINE
  8
0
 62
     0
 10
297.094
 20
30.8722
 30
0.0
 11
297.094
 21
27.7716
 31
0.0
  0
LINE
  8
0
 62
     0
 10
297.094
 20
27.7716
 30
0.0
 11
297.895
 21
27.7716
 31
0.0
  0
LINE
  8
0
 62
     0
 10
297.895
 20
27.7716
 30
0.0
 11
297.895
 21
26.7725
 31
0.0
  0
LINE
  8
0
 62
     0
 10
297.895
 20
26.7725
 30
0.0
 11
311.894
 21
26.7725
 31
0.0
  0
LINE
  8
0
 62
     0
 10
311.894
 20
26.7725
 30
0.0
 11
311.894
 21
27.7716
 31
0.0
  0
LINE
  8
0
 62
     0
 10
311.894
 20
27.7716
 30
0.0
 11
312.695
 21
27.7716
 31
0.0
  0
LINE
  8
0
 62
     0
 10
312.695
 20
27.7716
 30
0.0
 11
312.695
 21
30.8722
 31
0.0
  0
LINE
  8
0
 62
     0
 10
312.695
 20
30.8722
 30
0.0
 11
311.894
 21
30.8722
 31
0.0
  0
LINE
  8
0
 62
     0
 10
311.894
 20
30.8722
 30
0.0
 11
311.894
 21
36.6723
 31
0.0
  0
LINE
  8
0
 62
     0
 10
311.894
 20
36.6723
 30
0.0
 11
312.695
 21
36.6723
 31
0.0
  0
LINE
  8
0
 62
     0
 10
312.695
 20
36.6723
 30
0.0
 11
312.695
 21
39.7715
 31
0.0
  0
LINE
  8
0
 62
     0
 10
312.695
 20
39.7715
 30
0.0
 11
311.894
 21
39.7715
 31
0.0
  0
LINE
  8
0
 62
     0
 10
311.894
 20
39.7715
 30
0.0
 11
311.894
 21
40.7719
 31
0.0
  0
LINE
  8
0
 62
     0
 10
311.894
 20
40.7719
 30
0.0
 11
297.895
 21
40.7719
 31
0.0
  0
LINE
  8
0
 62
     0
 10
243.126
 20
40.7719
 30
0.0
 11
243.126
 21
39.7715
 31
0.0
  0
LINE
  8
0
 62
     0
 10
243.126
 20
39.7715
 30
0.0
 11
242.325
 21
39.7715
 31
0.0
  0
LINE
  8
0
 62
     0
 10
242.325
 20
39.7715
 30
0.0
 11
242.325
 21
36.6723
 31
0.0
  0
LINE
  8
0
 62
     0
 10
242.325
 20
36.6723
 30
0.0
 11
243.126
 21
36.6723
 31
0.0
  0
LINE
  8
0
 62
     0
 10
243.126
 20
36.6723
 30
0.0
 11
243.126
 21
30.8722
 31
0.0
  0
LINE
  8
0
 62
     0
 10
243.126
 20
30.8722
 30
0.0
 11
242.325
 21
30.8722
 31
0.0
  0
LINE
  8
0
 62
     0
 10
242.325
 20
30.8722
 30
0.0
 11
242.325
 21
27.7716
 31
0.0
  0
LINE
  8
0
 62
     0
 10
242.325
 20
27.7716
 30
0.0
 11
243.126
 21
27.7716
 31
0.0
  0
LINE
  8
0
 62
     0
 10
243.126
 20
27.7716
 30
0.0
 11
243.126
 21
26.7725
 31
0.0
  0
LINE
  8
0
 62
     0
 10
243.126
 20
26.7725
 30
0.0
 11
257.125
 21
26.7725
 31
0.0
  0
LINE
  8
0
 62
     0
 10
257.125
 20
26.7725
 30
0.0
 11
257.125
 21
27.7716
 31
0.0
  0
LINE
  8
0
 62
     0
 10
257.125
 20
27.7716
 30
0.0
 11
257.926
 21
27.7716
 31
0.0
  0
LINE
  8
0
 62
     0
 10
257.926
 20
27.7716
 30
0.0
 11
257.926
 21
30.8722
 31
0.0
  0
LINE
  8
0
 62
     0
 10
257.926
 20
30.8722
 30
0.0
 11
257.125
 21
30.8722
 31
0.0
  0
LINE
  8
0
 62
     0
 10
257.125
 20
30.8722
 30
0.0
 11
257.125
 21
36.6723
 31
0.0
  0
LINE
  8
0
 62
     0
 10
257.125
 20
36.6723
 30
0.0
 11
257.926
 21
36.6723
 31
0.0
  0
LINE
  8
0
 62
     0
 10
257.926
 20
36.6723
 30
0.0
 11
257.926
 21
39.7715
 31
0.0
  0
LINE
  8
0
 62
     0
 10
257.926
 20
39.7715
 30
0.0
 11
257.125
 21
39.7715
 31
0.0
  0
LINE
  8
0
 62
     0
 10
257.125
 20
39.7715
 30
0.0
 11
257.125
 21
40.7719
 31
0.0
  0
LINE
  8
0
 62
     0
 10
257.125
 20
40.7719
 30
0.0
 11
243.126
 21
40.7719
 31
0.0
  0
LINE
  8
0
 62
     0
 10
216.932
 20
40.7719
 30
0.0
 11
216.932
 21
39.7715
 31
0.0
  0
LINE
  8
0
 62
     0
 10
216.932
 20
39.7715
 30
0.0
 11
216.131
 21
39.7715
 31
0.0
  0
LINE
  8
0
 62
     0
 10
216.131
 20
39.7715
 30
0.0
 11
216.131
 21
36.6723
 31
0.0
  0
LINE
  8
0
 62
     0
 10
216.131
 20
36.6723
 30
0.0
 11
216.932
 21
36.6723
 31
0.0
  0
LINE
  8
0
 62
     0
 10
216.932
 20
36.6723
 30
0.0
 11
216.932
 21
30.8722
 31
0.0
  0
LINE
  8
0
 62
     0
 10
216.932
 20
30.8722
 30
0.0
 11
216.131
 21
30.8722
 31
0.0
  0
LINE
  8
0
 62
     0
 10
216.131
 20
30.8722
 30
0.0
 11
216.131
 21
27.7716
 31
0.0
  0
LINE
  8
0
 62
     0
 10
216.131
 20
27.7716
 30
0.0
 11
216.932
 21
27.7716
 31
0.0
  0
LINE
  8
0
 62
     0
 10
216.932
 20
27.7716
 30
0.0
 11
216.932
 21
26.7725
 31
0.0
  0
LINE
  8
0
 62
     0
 10
216.932
 20
26.7725
 30
0.0
 11
230.932
 21
26.7725
 31
0.0
  0
LINE
  8
0
 62
     0
 10
230.932
 20
26.7725
 30
0.0
 11
230.932
 21
27.7716
 31
0.0
  0
LINE
  8
0
 62
     0
 10
230.932
 20
27.7716
 30
0.0
 11
231.731
 21
27.7716
 31
0.0
  0
LINE
  8
0
 62
     0
 10
231.731
 20
27.7716
 30
0.0
 11
231.731
 21
30.8722
 31
0.0
  0
LINE
  8
0
 62
     0
 10
231.731
 20
30.8722
 30
0.0
 11
230.932
 21
30.8722
 31
0.0
  0
LINE
  8
0
 62
     0
 10
230.932
 20
30.8722
 30
0.0
 11
230.932
 21
36.6723
 31
0.0
  0
LINE
  8
0
 62
     0
 10
230.932
 20
36.6723
 30
0.0
 11
231.731
 21
36.6723
 31
0.0
  0
LINE
  8
0
 62
     0
 10
231.731
 20
36.6723
 30
0.0
 11
231.731
 21
39.7715
 31
0.0
  0
LINE
  8
0
 62
     0
 10
231.731
 20
39.7715
 30
0.0
 11
230.932
 21
39.7715
 31
0.0
  0
LINE
  8
0
 62
     0
 10
230.932
 20
39.7715
 30
0.0
 11
230.932
 21
40.7719
 31
0.0
  0
LINE
  8
0
 62
     0
 10
230.932
 20
40.7719
 30
0.0
 11
216.932
 21
40.7719
 31
0.0
  0
LINE
  8
0
 62
     0
 10
197.882
 20
40.7719
 30
0.0
 11
197.882
 21
39.7715
 31
0.0
  0
LINE
  8
0
 62
     0
 10
197.882
 20
39.7715
 30
0.0
 11
197.081
 21
39.7715
 31
0.0
  0
LINE
  8
0
 62
     0
 10
197.081
 20
39.7715
 30
0.0
 11
197.081
 21
36.6723
 31
0.0
  0
LINE
  8
0
 62
     0
 10
197.081
 20
36.6723
 30
0.0
 11
197.882
 21
36.6723
 31
0.0
  0
LINE
  8
0
 62
     0
 10
197.882
 20
36.6723
 30
0.0
 11
197.882
 21
30.8722
 31
0.0
  0
LINE
  8
0
 62
     0
 10
197.882
 20
30.8722
 30
0.0
 11
197.081
 21
30.8722
 31
0.0
  0
LINE
  8
0
 62
     0
 10
197.081
 20
30.8722
 30
0.0
 11
197.081
 21
27.7716
 31
0.0
  0
LINE
  8
0
 62
     0
 10
197.081
 20
27.7716
 30
0.0
 11
197.882
 21
27.7716
 31
0.0
  0
LINE
  8
0
 62
     0
 10
197.882
 20
27.7716
 30
0.0
 11
197.882
 21
26.7725
 31
0.0
  0
LINE
  8
0
 62
     0
 10
197.882
 20
26.7725
 30
0.0
 11
211.882
 21
26.7725
 31
0.0
  0
LINE
  8
0
 62
     0
 10
211.882
 20
26.7725
 30
0.0
 11
211.882
 21
27.7716
 31
0.0
  0
LINE
  8
0
 62
     0
 10
211.882
 20
27.7716
 30
0.0
 11
212.681
 21
27.7716
 31
0.0
  0
LINE
  8
0
 62
     0
 10
212.681
 20
27.7716
 30
0.0
 11
212.681
 21
30.8722
 31
0.0
  0
LINE
  8
0
 62
     0
 10
212.681
 20
30.8722
 30
0.0
 11
211.882
 21
30.8722
 31
0.0
  0
LINE
  8
0
 62
     0
 10
211.882
 20
30.8722
 30
0.0
 11
211.882
 21
36.6723
 31
0.0
  0
LINE
  8
0
 62
     0
 10
211.882
 20
36.6723
 30
0.0
 11
212.681
 21
36.6723
 31
0.0
  0
LINE
  8
0
 62
     0
 10
212.681
 20
36.6723
 30
0.0
 11
212.681
 21
39.7715
 31
0.0
  0
LINE
  8
0
 62
     0
 10
212.681
 20
39.7715
 30
0.0
 11
211.882
 21
39.7715
 31
0.0
  0
LINE
  8
0
 62
     0
 10
211.882
 20
39.7715
 30
0.0
 11
211.882
 21
40.7719
 31
0.0
  0
LINE
  8
0
 62
     0
 10
211.882
 20
40.7719
 30
0.0
 11
197.882
 21
40.7719
 31
0.0
  0
LINE
  8
0
 62
     0
 10
178.832
 20
40.7719
 30
0.0
 11
178.832
 21
39.7715
 31
0.0
  0
LINE
  8
0
 62
     0
 10
178.832
 20
39.7715
 30
0.0
 11
178.031
 21
39.7715
 31
0.0
  0
LINE
  8
0
 62
     0
 10
178.031
 20
39.7715
 30
0.0
 11
178.031
 21
36.6723
 31
0.0
  0
LINE
  8
0
 62
     0
 10
178.031
 20
36.6723
 30
0.0
 11
178.832
 21
36.6723
 31
0.0
  0
LINE
  8
0
 62
     0
 10
178.832
 20
36.6723
 30
0.0
 11
178.832
 21
30.8722
 31
0.0
  0
LINE
  8
0
 62
     0
 10
178.832
 20
30.8722
 30
0.0
 11
178.031
 21
30.8722
 31
0.0
  0
LINE
  8
0
 62
     0
 10
178.031
 20
30.8722
 30
0.0
 11
178.031
 21
27.7716
 31
0.0
  0
LINE
  8
0
 62
     0
 10
178.031
 20
27.7716
 30
0.0
 11
178.832
 21
27.7716
 31
0.0
  0
LINE
  8
0
 62
     0
 10
178.832
 20
27.7716
 30
0.0
 11
178.832
 21
26.7725
 31
0.0
  0
LINE
  8
0
 62
     0
 10
178.832
 20
26.7725
 30
0.0
 11
192.832
 21
26.7725
 31
0.0
  0
LINE
  8
0
 62
     0
 10
192.832
 20
26.7725
 30
0.0
 11
192.832
 21
27.7716
 31
0.0
  0
LINE
  8
0
 62
     0
 10
192.832
 20
27.7716
 30
0.0
 11
193.631
 21
27.7716
 31
0.0
  0
LINE
  8
0
 62
     0
 10
193.631
 20
27.7716
 30
0.0
 11
193.631
 21
30.8722
 31
0.0
  0
LINE
  8
0
 62
     0
 10
193.631
 20
30.8722
 30
0.0
 11
192.832
 21
30.8722
 31
0.0
  0
LINE
  8
0
 62
     0
 10
192.832
 20
30.8722
 30
0.0
 11
192.832
 21
36.6723
 31
0.0
  0
LINE
  8
0
 62
     0
 10
192.832
 20
36.6723
 30
0.0
 11
193.631
 21
36.6723
 31
0.0
  0
LINE
  8
0
 62
     0
 10
193.631
 20
36.6723
 30
0.0
 11
193.631
 21
39.7715
 31
0.0
  0
LINE
  8
0
 62
     0
 10
193.631
 20
39.7715
 30
0.0
 11
192.832
 21
39.7715
 31
0.0
  0
LINE
  8
0
 62
     0
 10
192.832
 20
39.7715
 30
0.0
 11
192.832
 21
40.7719
 31
0.0
  0
LINE
  8
0
 62
     0
 10
192.832
 20
40.7719
 30
0.0
 11
178.832
 21
40.7719
 31
0.0
  0
LINE
  8
0
 62
     0
 10
159.782
 20
40.7719
 30
0.0
 11
159.782
 21
39.7715
 31
0.0
  0
LINE
  8
0
 62
     0
 10
159.782
 20
39.7715
 30
0.0
 11
158.981
 21
39.7715
 31
0.0
  0
LINE
  8
0
 62
     0
 10
158.981
 20
39.7715
 30
0.0
 11
158.981
 21
36.6723
 31
0.0
  0
LINE
  8
0
 62
     0
 10
158.981
 20
36.6723
 30
0.0
 11
159.782
 21
36.6723
 31
0.0
  0
LINE
  8
0
 62
     0
 10
159.782
 20
36.6723
 30
0.0
 11
159.782
 21
30.8722
 31
0.0
  0
LINE
  8
0
 62
     0
 10
159.782
 20
30.8722
 30
0.0
 11
158.981
 21
30.8722
 31
0.0
  0
LINE
  8
0
 62
     0
 10
158.981
 20
30.8722
 30
0.0
 11
158.981
 21
27.7716
 31
0.0
  0
LINE
  8
0
 62
     0
 10
158.981
 20
27.7716
 30
0.0
 11
159.782
 21
27.7716
 31
0.0
  0
LINE
  8
0
 62
     0
 10
159.782
 20
27.7716
 30
0.0
 11
159.782
 21
26.7725
 31
0.0
  0
LINE
  8
0
 62
     0
 10
159.782
 20
26.7725
 30
0.0
 11
173.782
 21
26.7725
 31
0.0
  0
LINE
  8
0
 62
     0
 10
173.782
 20
26.7725
 30
0.0
 11
173.782
 21
27.7716
 31
0.0
  0
LINE
  8
0
 62
     0
 10
173.782
 20
27.7716
 30
0.0
 11
174.581
 21
27.7716
 31
0.0
  0
LINE
  8
0
 62
     0
 10
174.581
 20
27.7716
 30
0.0
 11
174.581
 21
30.8722
 31
0.0
  0
LINE
  8
0
 62
     0
 10
174.581
 20
30.8722
 30
0.0
 11
173.782
 21
30.8722
 31
0.0
  0
LINE
  8
0
 62
     0
 10
173.782
 20
30.8722
 30
0.0
 11
173.782
 21
36.6723
 31
0.0
  0
LINE
  8
0
 62
     0
 10
173.782
 20
36.6723
 30
0.0
 11
174.581
 21
36.6723
 31
0.0
  0
LINE
  8
0
 62
     0
 10
174.581
 20
36.6723
 30
0.0
 11
174.581
 21
39.7715
 31
0.0
  0
LINE
  8
0
 62
     0
 10
174.581
 20
39.7715
 30
0.0
 11
173.782
 21
39.7715
 31
0.0
  0
LINE
  8
0
 62
     0
 10
173.782
 20
39.7715
 30
0.0
 11
173.782
 21
40.7719
 31
0.0
  0
LINE
  8
0
 62
     0
 10
173.782
 20
40.7719
 30
0.0
 11
159.782
 21
40.7719
 31
0.0
  0
LINE
  8
0
 62
     0
 10
140.732
 20
40.7719
 30
0.0
 11
140.732
 21
39.7715
 31
0.0
  0
LINE
  8
0
 62
     0
 10
140.732
 20
39.7715
 30
0.0
 11
139.931
 21
39.7715
 31
0.0
  0
LINE
  8
0
 62
     0
 10
139.931
 20
39.7715
 30
0.0
 11
139.931
 21
36.6723
 31
0.0
  0
LINE
  8
0
 62
     0
 10
139.931
 20
36.6723
 30
0.0
 11
140.732
 21
36.6723
 31
0.0
  0
LINE
  8
0
 62
     0
 10
140.732
 20
36.6723
 30
0.0
 11
140.732
 21
30.8722
 31
0.0
  0
LINE
  8
0
 62
     0
 10
140.732
 20
30.8722
 30
0.0
 11
139.931
 21
30.8722
 31
0.0
  0
LINE
  8
0
 62
     0
 10
139.931
 20
30.8722
 30
0.0
 11
139.931
 21
27.7716
 31
0.0
  0
LINE
  8
0
 62
     0
 10
139.931
 20
27.7716
 30
0.0
 11
140.732
 21
27.7716
 31
0.0
  0
LINE
  8
0
 62
     0
 10
140.732
 20
27.7716
 30
0.0
 11
140.732
 21
26.7725
 31
0.0
  0
LINE
  8
0
 62
     0
 10
140.732
 20
26.7725
 30
0.0
 11
154.732
 21
26.7725
 31
0.0
  0
LINE
  8
0
 62
     0
 10
154.732
 20
26.7725
 30
0.0
 11
154.732
 21
27.7716
 31
0.0
  0
LINE
  8
0
 62
     0
 10
154.732
 20
27.7716
 30
0.0
 11
155.531
 21
27.7716
 31
0.0
  0
LINE
  8
0
 62
     0
 10
155.531
 20
27.7716
 30
0.0
 11
155.531
 21
30.8722
 31
0.0
  0
LINE
  8
0
 62
     0
 10
155.531
 20
30.8722
 30
0.0
 11
154.732
 21
30.8722
 31
0.0
  0
LINE
  8
0
 62
     0
 10
154.732
 20
30.8722
 30
0.0
 11
154.732
 21
36.6723
 31
0.0
  0
LINE
  8
0
 62
     0
 10
154.732
 20
36.6723
 30
0.0
 11
155.531
 21
36.6723
 31
0.0
  0
LINE
  8
0
 62
     0
 10
155.531
 20
36.6723
 30
0.0
 11
155.531
 21
39.7715
 31
0.0
  0
LINE
  8
0
 62
     0
 10
155.531
 20
39.7715
 30
0.0
 11
154.732
 21
39.7715
 31
0.0
  0
LINE
  8
0
 62
     0
 10
154.732
 20
39.7715
 30
0.0
 11
154.732
 21
40.7719
 31
0.0
  0
LINE
  8
0
 62
     0
 10
154.732
 20
40.7719
 30
0.0
 11
140.732
 21
40.7719
 31
0.0
  0
LINE
  8
0
 62
     0
 10
121.682
 20
40.7719
 30
0.0
 11
121.682
 21
39.7715
 31
0.0
  0
LINE
  8
0
 62
     0
 10
121.682
 20
39.7715
 30
0.0
 11
120.881
 21
39.7715
 31
0.0
  0
LINE
  8
0
 62
     0
 10
120.881
 20
39.7715
 30
0.0
 11
120.881
 21
36.6723
 31
0.0
  0
LINE
  8
0
 62
     0
 10
120.881
 20
36.6723
 30
0.0
 11
121.682
 21
36.6723
 31
0.0
  0
LINE
  8
0
 62
     0
 10
121.682
 20
36.6723
 30
0.0
 11
121.682
 21
30.8722
 31
0.0
  0
LINE
  8
0
 62
     0
 10
121.682
 20
30.8722
 30
0.0
 11
120.881
 21
30.8722
 31
0.0
  0
LINE
  8
0
 62
     0
 10
120.881
 20
30.8722
 30
0.0
 11
120.881
 21
27.7716
 31
0.0
  0
LINE
  8
0
 62
     0
 10
120.881
 20
27.7716
 30
0.0
 11
121.682
 21
27.7716
 31
0.0
  0
LINE
  8
0
 62
     0
 10
121.682
 20
27.7716
 30
0.0
 11
121.682
 21
26.7725
 31
0.0
  0
LINE
  8
0
 62
     0
 10
121.682
 20
26.7725
 30
0.0
 11
135.682
 21
26.7725
 31
0.0
  0
LINE
  8
0
 62
     0
 10
135.682
 20
26.7725
 30
0.0
 11
135.682
 21
27.7716
 31
0.0
  0
LINE
  8
0
 62
     0
 10
135.682
 20
27.7716
 30
0.0
 11
136.481
 21
27.7716
 31
0.0
  0
LINE
  8
0
 62
     0
 10
136.481
 20
27.7716
 30
0.0
 11
136.481
 21
30.8722
 31
0.0
  0
LINE
  8
0
 62
     0
 10
136.481
 20
30.8722
 30
0.0
 11
135.682
 21
30.8722
 31
0.0
  0
LINE
  8
0
 62
     0
 10
135.682
 20
30.8722
 30
0.0
 11
135.682
 21
36.6723
 31
0.0
  0
LINE
  8
0
 62
     0
 10
135.682
 20
36.6723
 30
0.0
 11
136.481
 21
36.6723
 31
0.0
  0
LINE
  8
0
 62
     0
 10
136.481
 20
36.6723
 30
0.0
 11
136.481
 21
39.7715
 31
0.0
  0
LINE
  8
0
 62
     0
 10
136.481
 20
39.7715
 30
0.0
 11
135.682
 21
39.7715
 31
0.0
  0
LINE
  8
0
 62
     0
 10
135.682
 20
39.7715
 30
0.0
 11
135.682
 21
40.7719
 31
0.0
  0
LINE
  8
0
 62
     0
 10
135.682
 20
40.7719
 30
0.0
 11
121.682
 21
40.7719
 31
0.0
  0
LINE
  8
0
 62
     0
 10
102.632
 20
40.7719
 30
0.0
 11
102.632
 21
39.7715
 31
0.0
  0
LINE
  8
0
 62
     0
 10
102.632
 20
39.7715
 30
0.0
 11
101.831
 21
39.7715
 31
0.0
  0
LINE
  8
0
 62
     0
 10
101.831
 20
39.7715
 30
0.0
 11
101.831
 21
36.6723
 31
0.0
  0
LINE
  8
0
 62
     0
 10
101.831
 20
36.6723
 30
0.0
 11
102.632
 21
36.6723
 31
0.0
  0
LINE
  8
0
 62
     0
 10
102.632
 20
36.6723
 30
0.0
 11
102.632
 21
30.8722
 31
0.0
  0
LINE
  8
0
 62
     0
 10
102.632
 20
30.8722
 30
0.0
 11
101.831
 21
30.8722
 31
0.0
  0
LINE
  8
0
 62
     0
 10
101.831
 20
30.8722
 30
0.0
 11
101.831
 21
27.7716
 31
0.0
  0
LINE
  8
0
 62
     0
 10
101.831
 20
27.7716
 30
0.0
 11
102.632
 21
27.7716
 31
0.0
  0
LINE
  8
0
 62
     0
 10
102.632
 20
27.7716
 30
0.0
 11
102.632
 21
26.7725
 31
0.0
  0
LINE
  8
0
 62
     0
 10
102.632
 20
26.7725
 30
0.0
 11
116.632
 21
26.7725
 31
0.0
  0
LINE
  8
0
 62
     0
 10
116.632
 20
26.7725
 30
0.0
 11
116.632
 21
27.7716
 31
0.0
  0
LINE
  8
0
 62
     0
 10
116.632
 20
27.7716
 30
0.0
 11
117.431
 21
27.7716
 31
0.0
  0
LINE
  8
0
 62
     0
 10
117.431
 20
27.7716
 30
0.0
 11
117.431
 21
30.8722
 31
0.0
  0
LINE
  8
0
 62
     0
 10
117.431
 20
30.8722
 30
0.0
 11
116.632
 21
30.8722
 31
0.0
  0
LINE
  8
0
 62
     0
 10
116.632
 20
30.8722
 30
0.0
 11
116.632
 21
36.6723
 31
0.0
  0
LINE
  8
0
 62
     0
 10
116.632
 20
36.6723
 30
0.0
 11
117.431
 21
36.6723
 31
0.0
  0
LINE
  8
0
 62
     0
 10
117.431
 20
36.6723
 30
0.0
 11
117.431
 21
39.7715
 31
0.0
  0
LINE
  8
0
 62
     0
 10
117.431
 20
39.7715
 30
0.0
 11
116.632
 21
39.7715
 31
0.0
  0
LINE
  8
0
 62
     0
 10
116.632
 20
39.7715
 30
0.0
 11
116.632
 21
40.7719
 31
0.0
  0
LINE
  8
0
 62
     0
 10
116.632
 20
40.7719
 30
0.0
 11
102.632
 21
40.7719
 31
0.0
  0
LINE
  8
0
 62
     0
 10
83.5822
 20
40.7719
 30
0.0
 11
83.5822
 21
39.7715
 31
0.0
  0
LINE
  8
0
 62
     0
 10
83.5822
 20
39.7715
 30
0.0
 11
82.7814
 21
39.7715
 31
0.0
  0
LINE
  8
0
 62
     0
 10
82.7814
 20
39.7715
 30
0.0
 11
82.7814
 21
36.6723
 31
0.0
  0
LINE
  8
0
 62
     0
 10
82.7814
 20
36.6723
 30
0.0
 11
83.5822
 21
36.6723
 31
0.0
  0
LINE
  8
0
 62
     0
 10
83.5822
 20
36.6723
 30
0.0
 11
83.5822
 21
30.8722
 31
0.0
  0
LINE
  8
0
 62
     0
 10
83.5822
 20
30.8722
 30
0.0
 11
82.7814
 21
30.8722
 31
0.0
  0
LINE
  8
0
 62
     0
 10
82.7814
 20
30.8722
 30
0.0
 11
82.7814
 21
27.7716
 31
0.0
  0
LINE
  8
0
 62
     0
 10
82.7814
 20
27.7716
 30
0.0
 11
83.5822
 21
27.7716
 31
0.0
  0
LINE
  8
0
 62
     0
 10
83.5822
 20
27.7716
 30
0.0
 11
83.5822
 21
26.7725
 31
0.0
  0
LINE
  8
0
 62
     0
 10
83.5822
 20
26.7725
 30
0.0
 11
97.5815
 21
26.7725
 31
0.0
  0
LINE
  8
0
 62
     0
 10
97.5815
 20
26.7725
 30
0.0
 11
97.5815
 21
27.7716
 31
0.0
  0
LINE
  8
0
 62
     0
 10
97.5815
 20
27.7716
 30
0.0
 11
98.3809
 21
27.7716
 31
0.0
  0
LINE
  8
0
 62
     0
 10
98.3809
 20
27.7716
 30
0.0
 11
98.3809
 21
30.8722
 31
0.0
  0
LINE
  8
0
 62
     0
 10
98.3809
 20
30.8722
 30
0.0
 11
97.5815
 21
30.8722
 31
0.0
  0
LINE
  8
0
 62
     0
 10
97.5815
 20
30.8722
 30
0.0
 11
97.5815
 21
36.6723
 31
0.0
  0
LINE
  8
0
 62
     0
 10
97.5815
 20
36.6723
 30
0.0
 11
98.3809
 21
36.6723
 31
0.0
  0
LINE
  8
0
 62
     0
 10
98.3809
 20
36.6723
 30
0.0
 11
98.3809
 21
39.7715
 31
0.0
  0
LINE
  8
0
 62
     0
 10
98.3809
 20
39.7715
 30
0.0
 11
97.5815
 21
39.7715
 31
0.0
  0
LINE
  8
0
 62
     0
 10
97.5815
 20
39.7715
 30
0.0
 11
97.5815
 21
40.7719
 31
0.0
  0
LINE
  8
0
 62
     0
 10
97.5815
 20
40.7719
 30
0.0
 11
83.5822
 21
40.7719
 31
0.0
  0
LINE
  8
0
 62
     0
 10
64.5322
 20
40.7719
 30
0.0
 11
64.5322
 21
39.7715
 31
0.0
  0
LINE
  8
0
 62
     0
 10
64.5322
 20
39.7715
 30
0.0
 11
63.7314
 21
39.7715
 31
0.0
  0
LINE
  8
0
 62
     0
 10
63.7314
 20
39.7715
 30
0.0
 11
63.7314
 21
36.6723
 31
0.0
  0
LINE
  8
0
 62
     0
 10
63.7314
 20
36.6723
 30
0.0
 11
64.5322
 21
36.6723
 31
0.0
  0
LINE
  8
0
 62
     0
 10
64.5322
 20
36.6723
 30
0.0
 11
64.5322
 21
30.8722
 31
0.0
  0
LINE
  8
0
 62
     0
 10
64.5322
 20
30.8722
 30
0.0
 11
63.7314
 21
30.8722
 31
0.0
  0
LINE
  8
0
 62
     0
 10
63.7314
 20
30.8722
 30
0.0
 11
63.7314
 21
27.7716
 31
0.0
  0
LINE
  8
0
 62
     0
 10
63.7314
 20
27.7716
 30
0.0
 11
64.5322
 21
27.7716
 31
0.0
  0
LINE
  8
0
 62
     0
 10
64.5322
 20
27.7716
 30
0.0
 11
64.5322
 21
26.7725
 31
0.0
  0
LINE
  8
0
 62
     0
 10
64.5322
 20
26.7725
 30
0.0
 11
78.5315
 21
26.7725
 31
0.0
  0
LINE
  8
0
 62
     0
 10
78.5315
 20
26.7725
 30
0.0
 11
78.5315
 21
27.7716
 31
0.0
  0
LINE
  8
0
 62
     0
 10
78.5315
 20
27.7716
 30
0.0
 11
79.3309
 21
27.7716
 31
0.0
  0
LINE
  8
0
 62
     0
 10
79.3309
 20
27.7716
 30
0.0
 11
79.3309
 21
30.8722
 31
0.0
  0
LINE
  8
0
 62
     0
 10
79.3309
 20
30.8722
 30
0.0
 11
78.5315
 21
30.8722
 31
0.0
  0
LINE
  8
0
 62
     0
 10
78.5315
 20
30.8722
 30
0.0
 11
78.5315
 21
36.6723
 31
0.0
  0
LINE
  8
0
 62
     0
 10
78.5315
 20
36.6723
 30
0.0
 11
79.3309
 21
36.6723
 31
0.0
  0
LINE
  8
0
 62
     0
 10
79.3309
 20
36.6723
 30
0.0
 11
79.3309
 21
39.7715
 31
0.0
  0
LINE
  8
0
 62
     0
 10
79.3309
 20
39.7715
 30
0.0
 11
78.5315
 21
39.7715
 31
0.0
  0
LINE
  8
0
 62
     0
 10
78.5315
 20
39.7715
 30
0.0
 11
78.5315
 21
40.7719
 31
0.0
  0
LINE
  8
0
 62
     0
 10
78.5315
 20
40.7719
 30
0.0
 11
64.5322
 21
40.7719
 31
0.0
  0
LINE
  8
0
 62
     0
 10
45.4822
 20
40.7719
 30
0.0
 11
45.4822
 21
39.7715
 31
0.0
  0
LINE
  8
0
 62
     0
 10
45.4822
 20
39.7715
 30
0.0
 11
44.6814
 21
39.7715
 31
0.0
  0
LINE
  8
0
 62
     0
 10
44.6814
 20
39.7715
 30
0.0
 11
44.6814
 21
36.6723
 31
0.0
  0
LINE
  8
0
 62
     0
 10
44.6814
 20
36.6723
 30
0.0
 11
45.4822
 21
36.6723
 31
0.0
  0
LINE
  8
0
 62
     0
 10
45.4822
 20
36.6723
 30
0.0
 11
45.4822
 21
30.8722
 31
0.0
  0
LINE
  8
0
 62
     0
 10
45.4822
 20
30.8722
 30
0.0
 11
44.6814
 21
30.8722
 31
0.0
  0
LINE
  8
0
 62
     0
 10
44.6814
 20
30.8722
 30
0.0
 11
44.6814
 21
27.7716
 31
0.0
  0
LINE
  8
0
 62
     0
 10
44.6814
 20
27.7716
 30
0.0
 11
45.4822
 21
27.7716
 31
0.0
  0
LINE
  8
0
 62
     0
 10
45.4822
 20
27.7716
 30
0.0
 11
45.4822
 21
26.7725
 31
0.0
  0
LINE
  8
0
 62
     0
 10
45.4822
 20
26.7725
 30
0.0
 11
59.4815
 21
26.7725
 31
0.0
  0
LINE
  8
0
 62
     0
 10
59.4815
 20
26.7725
 30
0.0
 11
59.4815
 21
27.7716
 31
0.0
  0
LINE
  8
0
 62
     0
 10
59.4815
 20
27.7716
 30
0.0
 11
60.2809
 21
27.7716
 31
0.0
  0
LINE
  8
0
 62
     0
 10
60.2809
 20
27.7716
 30
0.0
 11
60.2809
 21
30.8722
 31
0.0
  0
LINE
  8
0
 62
     0
 10
60.2809
 20
30.8722
 30
0.0
 11
59.4815
 21
30.8722
 31
0.0
  0
LINE
  8
0
 62
     0
 10
59.4815
 20
30.8722
 30
0.0
 11
59.4815
 21
36.6723
 31
0.0
  0
LINE
  8
0
 62
     0
 10
59.4815
 20
36.6723
 30
0.0
 11
60.2809
 21
36.6723
 31
0.0
  0
LINE
  8
0
 62
     0
 10
60.2809
 20
36.6723
 30
0.0
 11
60.2809
 21
39.7715
 31
0.0
  0
LINE
  8
0
 62
     0
 10
60.2809
 20
39.7715
 30
0.0
 11
59.4815
 21
39.7715
 31
0.0
  0
LINE
  8
0
 62
     0
 10
59.4815
 20
39.7715
 30
0.0
 11
59.4815
 21
40.7719
 31
0.0
  0
LINE
  8
0
 62
     0
 10
59.4815
 20
40.7719
 30
0.0
 11
45.4822
 21
40.7719
 31
0.0
  0
LINE
  8
0
 62
     0
 10
257.412
 20
59.8219
 30
0.0
 11
257.412
 21
58.8215
 31
0.0
  0
LINE
  8
0
 62
     0
 10
257.412
 20
58.8215
 30
0.0
 11
256.611
 21
58.8215
 31
0.0
  0
LINE
  8
0
 62
     0
 10
256.611
 20
58.8215
 30
0.0
 11
256.611
 21
55.7223
 31
0.0
  0
LINE
  8
0
 62
     0
 10
256.611
 20
55.7223
 30
0.0
 11
257.412
 21
55.7223
 31
0.0
  0
LINE
  8
0
 62
     0
 10
257.412
 20
55.7223
 30
0.0
 11
257.412
 21
55.1215
 31
0.0
  0
LINE
  8
0
 62
     0
 10
257.412
 20
55.1215
 30
0.0
 11
255.888
 21
55.1215
 31
0.0
  0
LINE
  8
0
 62
     0
 10
255.888
 20
55.1215
 30
0.0
 11
255.888
 21
58.3516
 31
0.0
  0
LINE
  8
0
 62
     0
 10
255.888
 20
58.3516
 30
0.0
 11
254.161
 21
58.3516
 31
0.0
  0
LINE
  8
0
 62
     0
 10
254.161
 20
58.3516
 30
0.0
 11
254.161
 21
59.2723
 31
0.0
  0
LINE
  8
0
 62
     0
 10
254.161
 20
59.2723
 30
0.0
 11
250.862
 21
59.2723
 31
0.0
  0
LINE
  8
0
 62
     0
 10
250.862
 20
59.2723
 30
0.0
 11
250.862
 21
58.3516
 31
0.0
  0
LINE
  8
0
 62
     0
 10
250.862
 20
58.3516
 30
0.0
 11
249.137
 21
58.3516
 31
0.0
  0
LINE
  8
0
 62
     0
 10
249.137
 20
58.3516
 30
0.0
 11
249.137
 21
55.1215
 31
0.0
  0
LINE
  8
0
 62
     0
 10
249.137
 20
55.1215
 30
0.0
 11
248.313
 21
55.1215
 31
0.0
  0
LINE
  8
0
 62
     0
 10
248.313
 20
55.1215
 30
0.0
 11
248.313
 21
52.3226
 31
0.0
  0
LINE
  8
0
 62
     0
 10
248.313
 20
52.3226
 30
0.0
 11
249.137
 21
52.3226
 31
0.0
  0
LINE
  8
0
 62
     0
 10
249.137
 20
52.3226
 30
0.0
 11
249.137
 21
46.0527
 31
0.0
  0
LINE
  8
0
 62
     0
 10
249.137
 20
46.0527
 30
0.0
 11
250.862
 21
46.0527
 31
0.0
  0
LINE
  8
0
 62
     0
 10
250.862
 20
46.0527
 30
0.0
 11
250.862
 21
45.0716
 31
0.0
  0
LINE
  8
0
 62
     0
 10
250.862
 20
45.0716
 30
0.0
 11
254.161
 21
45.0716
 31
0.0
  0
LINE
  8
0
 62
     0
 10
254.161
 20
45.0716
 30
0.0
 11
254.161
 21
46.0527
 31
0.0
  0
LINE
  8
0
 62
     0
 10
254.161
 20
46.0527
 30
0.0
 11
255.888
 21
46.0527
 31
0.0
  0
LINE
  8
0
 62
     0
 10
255.888
 20
46.0527
 30
0.0
 11
255.888
 21
50.5217
 31
0.0
  0
LINE
  8
0
 62
     0
 10
255.888
 20
50.5217
 30
0.0
 11
257.412
 21
50.5217
 31
0.0
  0
LINE
  8
0
 62
     0
 10
257.412
 20
50.5217
 30
0.0
 11
257.412
 21
49.9223
 31
0.0
  0
LINE
  8
0
 62
     0
 10
257.412
 20
49.9223
 30
0.0
 11
256.611
 21
49.9223
 31
0.0
  0
LINE
  8
0
 62
     0
 10
256.611
 20
49.9223
 30
0.0
 11
256.611
 21
46.8217
 31
0.0
  0
LINE
  8
0
 62
     0
 10
256.611
 20
46.8217
 30
0.0
 11
257.412
 21
46.8217
 31
0.0
  0
LINE
  8
0
 62
     0
 10
257.412
 20
46.8217
 30
0.0
 11
257.412
 21
45.8227
 31
0.0
  0
LINE
  8
0
 62
     0
 10
257.412
 20
45.8227
 30
0.0
 11
271.413
 21
45.8227
 31
0.0
  0
LINE
  8
0
 62
     0
 10
271.413
 20
45.8227
 30
0.0
 11
271.413
 21
46.8217
 31
0.0
  0
LINE
  8
0
 62
     0
 10
271.413
 20
46.8217
 30
0.0
 11
272.212
 21
46.8217
 31
0.0
  0
LINE
  8
0
 62
     0
 10
272.212
 20
46.8217
 30
0.0
 11
272.212
 21
49.9223
 31
0.0
  0
LINE
  8
0
 62
     0
 10
272.212
 20
49.9223
 30
0.0
 11
271.413
 21
49.9223
 31
0.0
  0
LINE
  8
0
 62
     0
 10
271.413
 20
49.9223
 30
0.0
 11
271.413
 21
50.5217
 31
0.0
  0
LINE
  8
0
 62
     0
 10
271.413
 20
50.5217
 30
0.0
 11
272.937
 21
50.5217
 31
0.0
  0
LINE
  8
0
 62
     0
 10
272.937
 20
50.5217
 30
0.0
 11
272.937
 21
46.0527
 31
0.0
  0
LINE
  8
0
 62
     0
 10
272.937
 20
46.0527
 30
0.0
 11
274.662
 21
46.0527
 31
0.0
  0
LINE
  8
0
 62
     0
 10
274.662
 20
46.0527
 30
0.0
 11
274.662
 21
45.0716
 31
0.0
  0
LINE
  8
0
 62
     0
 10
274.662
 20
45.0716
 30
0.0
 11
277.963
 21
45.0716
 31
0.0
  0
LINE
  8
0
 62
     0
 10
277.963
 20
45.0716
 30
0.0
 11
277.963
 21
46.0527
 31
0.0
  0
LINE
  8
0
 62
     0
 10
277.963
 20
46.0527
 30
0.0
 11
279.688
 21
46.0527
 31
0.0
  0
LINE
  8
0
 62
     0
 10
279.688
 20
46.0527
 30
0.0
 11
279.688
 21
52.3226
 31
0.0
  0
LINE
  8
0
 62
     0
 10
279.688
 20
52.3226
 30
0.0
 11
280.512
 21
52.3226
 31
0.0
  0
LINE
  8
0
 62
     0
 10
280.512
 20
52.3226
 30
0.0
 11
280.512
 21
55.1215
 31
0.0
  0
LINE
  8
0
 62
     0
 10
280.512
 20
55.1215
 30
0.0
 11
279.688
 21
55.1215
 31
0.0
  0
LINE
  8
0
 62
     0
 10
279.688
 20
55.1215
 30
0.0
 11
279.688
 21
58.3516
 31
0.0
  0
LINE
  8
0
 62
     0
 10
279.688
 20
58.3516
 30
0.0
 11
277.963
 21
58.3516
 31
0.0
  0
LINE
  8
0
 62
     0
 10
277.963
 20
58.3516
 30
0.0
 11
277.963
 21
59.2723
 31
0.0
  0
LINE
  8
0
 62
     0
 10
277.963
 20
59.2723
 30
0.0
 11
274.662
 21
59.2723
 31
0.0
  0
LINE
  8
0
 62
     0
 10
274.662
 20
59.2723
 30
0.0
 11
274.662
 21
58.3516
 31
0.0
  0
LINE
  8
0
 62
     0
 10
274.662
 20
58.3516
 30
0.0
 11
272.937
 21
58.3516
 31
0.0
  0
LINE
  8
0
 62
     0
 10
272.937
 20
58.3516
 30
0.0
 11
272.937
 21
55.1215
 31
0.0
  0
LINE
  8
0
 62
     0
 10
272.937
 20
55.1215
 30
0.0
 11
271.413
 21
55.1215
 31
0.0
  0
LINE
  8
0
 62
     0
 10
271.413
 20
55.1215
 30
0.0
 11
271.413
 21
55.7223
 31
0.0
  0
LINE
  8
0
 62
     0
 10
271.413
 20
55.7223
 30
0.0
 11
272.212
 21
55.7223
 31
0.0
  0
LINE
  8
0
 62
     0
 10
272.212
 20
55.7223
 30
0.0
 11
272.212
 21
58.8215
 31
0.0
  0
LINE
  8
0
 62
     0
 10
272.212
 20
58.8215
 30
0.0
 11
271.413
 21
58.8215
 31
0.0
  0
LINE
  8
0
 62
     0
 10
271.413
 20
58.8215
 30
0.0
 11
271.413
 21
59.8219
 31
0.0
  0
LINE
  8
0
 62
     0
 10
271.413
 20
59.8219
 30
0.0
 11
257.412
 21
59.8219
 31
0.0
  0
LINE
  8
0
 62
     0
 10
335.995
 20
59.8219
 30
0.0
 11
335.995
 21
58.8215
 31
0.0
  0
LINE
  8
0
 62
     0
 10
335.995
 20
58.8215
 30
0.0
 11
335.194
 21
58.8215
 31
0.0
  0
LINE
  8
0
 62
     0
 10
335.194
 20
58.8215
 30
0.0
 11
335.194
 21
55.7223
 31
0.0
  0
LINE
  8
0
 62
     0
 10
335.194
 20
55.7223
 30
0.0
 11
335.995
 21
55.7223
 31
0.0
  0
LINE
  8
0
 62
     0
 10
335.995
 20
55.7223
 30
0.0
 11
335.995
 21
49.9223
 31
0.0
  0
LINE
  8
0
 62
     0
 10
335.995
 20
49.9223
 30
0.0
 11
335.194
 21
49.9223
 31
0.0
  0
LINE
  8
0
 62
     0
 10
335.194
 20
49.9223
 30
0.0
 11
335.194
 21
46.8217
 31
0.0
  0
LINE
  8
0
 62
     0
 10
335.194
 20
46.8217
 30
0.0
 11
335.995
 21
46.8217
 31
0.0
  0
LINE
  8
0
 62
     0
 10
335.995
 20
46.8217
 30
0.0
 11
335.995
 21
45.8227
 31
0.0
  0
LINE
  8
0
 62
     0
 10
335.995
 20
45.8227
 30
0.0
 11
349.994
 21
45.8227
 31
0.0
  0
LINE
  8
0
 62
     0
 10
349.994
 20
45.8227
 30
0.0
 11
349.994
 21
46.8217
 31
0.0
  0
LINE
  8
0
 62
     0
 10
349.994
 20
46.8217
 30
0.0
 11
350.795
 21
46.8217
 31
0.0
  0
LINE
  8
0
 62
     0
 10
350.795
 20
46.8217
 30
0.0
 11
350.795
 21
49.9223
 31
0.0
  0
LINE
  8
0
 62
     0
 10
350.795
 20
49.9223
 30
0.0
 11
349.994
 21
49.9223
 31
0.0
  0
LINE
  8
0
 62
     0
 10
349.994
 20
49.9223
 30
0.0
 11
349.994
 21
55.7223
 31
0.0
  0
LINE
  8
0
 62
     0
 10
349.994
 20
55.7223
 30
0.0
 11
350.795
 21
55.7223
 31
0.0
  0
LINE
  8
0
 62
     0
 10
350.795
 20
55.7223
 30
0.0
 11
350.795
 21
58.8215
 31
0.0
  0
LINE
  8
0
 62
     0
 10
350.795
 20
58.8215
 30
0.0
 11
349.994
 21
58.8215
 31
0.0
  0
LINE
  8
0
 62
     0
 10
349.994
 20
58.8215
 30
0.0
 11
349.994
 21
59.8219
 31
0.0
  0
LINE
  8
0
 62
     0
 10
349.994
 20
59.8219
 30
0.0
 11
335.995
 21
59.8219
 31
0.0
  0
LINE
  8
0
 62
     0
 10
316.945
 20
59.8219
 30
0.0
 11
316.945
 21
58.8215
 31
0.0
  0
LINE
  8
0
 62
     0
 10
316.945
 20
58.8215
 30
0.0
 11
316.144
 21
58.8215
 31
0.0
  0
LINE
  8
0
 62
     0
 10
316.144
 20
58.8215
 30
0.0
 11
316.144
 21
55.7223
 31
0.0
  0
LINE
  8
0
 62
     0
 10
316.144
 20
55.7223
 30
0.0
 11
316.945
 21
55.7223
 31
0.0
  0
LINE
  8
0
 62
     0
 10
316.945
 20
55.7223
 30
0.0
 11
316.945
 21
49.9223
 31
0.0
  0
LINE
  8
0
 62
     0
 10
316.945
 20
49.9223
 30
0.0
 11
316.144
 21
49.9223
 31
0.0
  0
LINE
  8
0
 62
     0
 10
316.144
 20
49.9223
 30
0.0
 11
316.144
 21
46.8217
 31
0.0
  0
LINE
  8
0
 62
     0
 10
316.144
 20
46.8217
 30
0.0
 11
316.945
 21
46.8217
 31
0.0
  0
LINE
  8
0
 62
     0
 10
316.945
 20
46.8217
 30
0.0
 11
316.945
 21
45.8227
 31
0.0
  0
LINE
  8
0
 62
     0
 10
316.945
 20
45.8227
 30
0.0
 11
330.944
 21
45.8227
 31
0.0
  0
LINE
  8
0
 62
     0
 10
330.944
 20
45.8227
 30
0.0
 11
330.944
 21
46.8217
 31
0.0
  0
LINE
  8
0
 62
     0
 10
330.944
 20
46.8217
 30
0.0
 11
331.745
 21
46.8217
 31
0.0
  0
LINE
  8
0
 62
     0
 10
331.745
 20
46.8217
 30
0.0
 11
331.745
 21
49.9223
 31
0.0
  0
LINE
  8
0
 62
     0
 10
331.745
 20
49.9223
 30
0.0
 11
330.944
 21
49.9223
 31
0.0
  0
LINE
  8
0
 62
     0
 10
330.944
 20
49.9223
 30
0.0
 11
330.944
 21
55.7223
 31
0.0
  0
LINE
  8
0
 62
     0
 10
330.944
 20
55.7223
 30
0.0
 11
331.745
 21
55.7223
 31
0.0
  0
LINE
  8
0
 62
     0
 10
331.745
 20
55.7223
 30
0.0
 11
331.745
 21
58.8215
 31
0.0
  0
LINE
  8
0
 62
     0
 10
331.745
 20
58.8215
 30
0.0
 11
330.944
 21
58.8215
 31
0.0
  0
LINE
  8
0
 62
     0
 10
330.944
 20
58.8215
 30
0.0
 11
330.944
 21
59.8219
 31
0.0
  0
LINE
  8
0
 62
     0
 10
330.944
 20
59.8219
 30
0.0
 11
316.945
 21
59.8219
 31
0.0
  0
LINE
  8
0
 62
     0
 10
297.895
 20
59.8219
 30
0.0
 11
297.895
 21
58.8215
 31
0.0
  0
LINE
  8
0
 62
     0
 10
297.895
 20
58.8215
 30
0.0
 11
297.094
 21
58.8215
 31
0.0
  0
LINE
  8
0
 62
     0
 10
297.094
 20
58.8215
 30
0.0
 11
297.094
 21
55.7223
 31
0.0
  0
LINE
  8
0
 62
     0
 10
297.094
 20
55.7223
 30
0.0
 11
297.895
 21
55.7223
 31
0.0
  0
LINE
  8
0
 62
     0
 10
297.895
 20
55.7223
 30
0.0
 11
297.895
 21
49.9223
 31
0.0
  0
LINE
  8
0
 62
     0
 10
297.895
 20
49.9223
 30
0.0
 11
297.094
 21
49.9223
 31
0.0
  0
LINE
  8
0
 62
     0
 10
297.094
 20
49.9223
 30
0.0
 11
297.094
 21
46.8217
 31
0.0
  0
LINE
  8
0
 62
     0
 10
297.094
 20
46.8217
 30
0.0
 11
297.895
 21
46.8217
 31
0.0
  0
LINE
  8
0
 62
     0
 10
297.895
 20
46.8217
 30
0.0
 11
297.895
 21
45.8227
 31
0.0
  0
LINE
  8
0
 62
     0
 10
297.895
 20
45.8227
 30
0.0
 11
311.894
 21
45.8227
 31
0.0
  0
LINE
  8
0
 62
     0
 10
311.894
 20
45.8227
 30
0.0
 11
311.894
 21
46.8217
 31
0.0
  0
LINE
  8
0
 62
     0
 10
311.894
 20
46.8217
 30
0.0
 11
312.695
 21
46.8217
 31
0.0
  0
LINE
  8
0
 62
     0
 10
312.695
 20
46.8217
 30
0.0
 11
312.695
 21
49.9223
 31
0.0
  0
LINE
  8
0
 62
     0
 10
312.695
 20
49.9223
 30
0.0
 11
311.894
 21
49.9223
 31
0.0
  0
LINE
  8
0
 62
     0
 10
311.894
 20
49.9223
 30
0.0
 11
311.894
 21
55.7223
 31
0.0
  0
LINE
  8
0
 62
     0
 10
311.894
 20
55.7223
 30
0.0
 11
312.695
 21
55.7223
 31
0.0
  0
LINE
  8
0
 62
     0
 10
312.695
 20
55.7223
 30
0.0
 11
312.695
 21
58.8215
 31
0.0
  0
LINE
  8
0
 62
     0
 10
312.695
 20
58.8215
 30
0.0
 11
311.894
 21
58.8215
 31
0.0
  0
LINE
  8
0
 62
     0
 10
311.894
 20
58.8215
 30
0.0
 11
311.894
 21
59.8219
 31
0.0
  0
LINE
  8
0
 62
     0
 10
311.894
 20
59.8219
 30
0.0
 11
297.895
 21
59.8219
 31
0.0
  0
LINE
  8
0
 62
     0
 10
226.457
 20
59.8219
 30
0.0
 11
226.457
 21
58.8215
 31
0.0
  0
LINE
  8
0
 62
     0
 10
226.457
 20
58.8215
 30
0.0
 11
225.656
 21
58.8215
 31
0.0
  0
LINE
  8
0
 62
     0
 10
225.656
 20
58.8215
 30
0.0
 11
225.656
 21
55.7223
 31
0.0
  0
LINE
  8
0
 62
     0
 10
225.656
 20
55.7223
 30
0.0
 11
226.457
 21
55.7223
 31
0.0
  0
LINE
  8
0
 62
     0
 10
226.457
 20
55.7223
 30
0.0
 11
226.457
 21
49.9223
 31
0.0
  0
LINE
  8
0
 62
     0
 10
226.457
 20
49.9223
 30
0.0
 11
225.656
 21
49.9223
 31
0.0
  0
LINE
  8
0
 62
     0
 10
225.656
 20
49.9223
 30
0.0
 11
225.656
 21
46.8217
 31
0.0
  0
LINE
  8
0
 62
     0
 10
225.656
 20
46.8217
 30
0.0
 11
226.457
 21
46.8217
 31
0.0
  0
LINE
  8
0
 62
     0
 10
226.457
 20
46.8217
 30
0.0
 11
226.457
 21
45.8227
 31
0.0
  0
LINE
  8
0
 62
     0
 10
226.457
 20
45.8227
 30
0.0
 11
240.457
 21
45.8227
 31
0.0
  0
LINE
  8
0
 62
     0
 10
240.457
 20
45.8227
 30
0.0
 11
240.457
 21
46.8217
 31
0.0
  0
LINE
  8
0
 62
     0
 10
240.457
 20
46.8217
 30
0.0
 11
241.256
 21
46.8217
 31
0.0
  0
LINE
  8
0
 62
     0
 10
241.256
 20
46.8217
 30
0.0
 11
241.256
 21
49.9223
 31
0.0
  0
LINE
  8
0
 62
     0
 10
241.256
 20
49.9223
 30
0.0
 11
240.457
 21
49.9223
 31
0.0
  0
LINE
  8
0
 62
     0
 10
240.457
 20
49.9223
 30
0.0
 11
240.457
 21
55.7223
 31
0.0
  0
LINE
  8
0
 62
     0
 10
240.457
 20
55.7223
 30
0.0
 11
241.256
 21
55.7223
 31
0.0
  0
LINE
  8
0
 62
     0
 10
241.256
 20
55.7223
 30
0.0
 11
241.256
 21
58.8215
 31
0.0
  0
LINE
  8
0
 62
     0
 10
241.256
 20
58.8215
 30
0.0
 11
240.457
 21
58.8215
 31
0.0
  0
LINE
  8
0
 62
     0
 10
240.457
 20
58.8215
 30
0.0
 11
240.457
 21
59.8219
 31
0.0
  0
LINE
  8
0
 62
     0
 10
240.457
 20
59.8219
 30
0.0
 11
226.457
 21
59.8219
 31
0.0
  0
LINE
  8
0
 62
     0
 10
207.407
 20
59.8219
 30
0.0
 11
207.407
 21
58.8215
 31
0.0
  0
LINE
  8
0
 62
     0
 10
207.407
 20
58.8215
 30
0.0
 11
206.606
 21
58.8215
 31
0.0
  0
LINE
  8
0
 62
     0
 10
206.606
 20
58.8215
 30
0.0
 11
206.606
 21
55.7223
 31
0.0
  0
LINE
  8
0
 62
     0
 10
206.606
 20
55.7223
 30
0.0
 11
207.407
 21
55.7223
 31
0.0
  0
LINE
  8
0
 62
     0
 10
207.407
 20
55.7223
 30
0.0
 11
207.407
 21
49.9223
 31
0.0
  0
LINE
  8
0
 62
     0
 10
207.407
 20
49.9223
 30
0.0
 11
206.606
 21
49.9223
 31
0.0
  0
LINE
  8
0
 62
     0
 10
206.606
 20
49.9223
 30
0.0
 11
206.606
 21
46.8217
 31
0.0
  0
LINE
  8
0
 62
     0
 10
206.606
 20
46.8217
 30
0.0
 11
207.407
 21
46.8217
 31
0.0
  0
LINE
  8
0
 62
     0
 10
207.407
 20
46.8217
 30
0.0
 11
207.407
 21
45.8227
 31
0.0
  0
LINE
  8
0
 62
     0
 10
207.407
 20
45.8227
 30
0.0
 11
221.407
 21
45.8227
 31
0.0
  0
LINE
  8
0
 62
     0
 10
221.407
 20
45.8227
 30
0.0
 11
221.407
 21
46.8217
 31
0.0
  0
LINE
  8
0
 62
     0
 10
221.407
 20
46.8217
 30
0.0
 11
222.206
 21
46.8217
 31
0.0
  0
LINE
  8
0
 62
     0
 10
222.206
 20
46.8217
 30
0.0
 11
222.206
 21
49.9223
 31
0.0
  0
LINE
  8
0
 62
     0
 10
222.206
 20
49.9223
 30
0.0
 11
221.407
 21
49.9223
 31
0.0
  0
LINE
  8
0
 62
     0
 10
221.407
 20
49.9223
 30
0.0
 11
221.407
 21
55.7223
 31
0.0
  0
LINE
  8
0
 62
     0
 10
221.407
 20
55.7223
 30
0.0
 11
222.206
 21
55.7223
 31
0.0
  0
LINE
  8
0
 62
     0
 10
222.206
 20
55.7223
 30
0.0
 11
222.206
 21
58.8215
 31
0.0
  0
LINE
  8
0
 62
     0
 10
222.206
 20
58.8215
 30
0.0
 11
221.407
 21
58.8215
 31
0.0
  0
LINE
  8
0
 62
     0
 10
221.407
 20
58.8215
 30
0.0
 11
221.407
 21
59.8219
 31
0.0
  0
LINE
  8
0
 62
     0
 10
221.407
 20
59.8219
 30
0.0
 11
207.407
 21
59.8219
 31
0.0
  0
LINE
  8
0
 62
     0
 10
188.357
 20
59.8219
 30
0.0
 11
188.357
 21
58.8215
 31
0.0
  0
LINE
  8
0
 62
     0
 10
188.357
 20
58.8215
 30
0.0
 11
187.556
 21
58.8215
 31
0.0
  0
LINE
  8
0
 62
     0
 10
187.556
 20
58.8215
 30
0.0
 11
187.556
 21
55.7223
 31
0.0
  0
LINE
  8
0
 62
     0
 10
187.556
 20
55.7223
 30
0.0
 11
188.357
 21
55.7223
 31
0.0
  0
LINE
  8
0
 62
     0
 10
188.357
 20
55.7223
 30
0.0
 11
188.357
 21
49.9223
 31
0.0
  0
LINE
  8
0
 62
     0
 10
188.357
 20
49.9223
 30
0.0
 11
187.556
 21
49.9223
 31
0.0
  0
LINE
  8
0
 62
     0
 10
187.556
 20
49.9223
 30
0.0
 11
187.556
 21
46.8217
 31
0.0
  0
LINE
  8
0
 62
     0
 10
187.556
 20
46.8217
 30
0.0
 11
188.357
 21
46.8217
 31
0.0
  0
LINE
  8
0
 62
     0
 10
188.357
 20
46.8217
 30
0.0
 11
188.357
 21
45.8227
 31
0.0
  0
LINE
  8
0
 62
     0
 10
188.357
 20
45.8227
 30
0.0
 11
202.357
 21
45.8227
 31
0.0
  0
LINE
  8
0
 62
     0
 10
202.357
 20
45.8227
 30
0.0
 11
202.357
 21
46.8217
 31
0.0
  0
LINE
  8
0
 62
     0
 10
202.357
 20
46.8217
 30
0.0
 11
203.156
 21
46.8217
 31
0.0
  0
LINE
  8
0
 62
     0
 10
203.156
 20
46.8217
 30
0.0
 11
203.156
 21
49.9223
 31
0.0
  0
LINE
  8
0
 62
     0
 10
203.156
 20
49.9223
 30
0.0
 11
202.357
 21
49.9223
 31
0.0
  0
LINE
  8
0
 62
     0
 10
202.357
 20
49.9223
 30
0.0
 11
202.357
 21
55.7223
 31
0.0
  0
LINE
  8
0
 62
     0
 10
202.357
 20
55.7223
 30
0.0
 11
203.156
 21
55.7223
 31
0.0
  0
LINE
  8
0
 62
     0
 10
203.156
 20
55.7223
 30
0.0
 11
203.156
 21
58.8215
 31
0.0
  0
LINE
  8
0
 62
     0
 10
203.156
 20
58.8215
 30
0.0
 11
202.357
 21
58.8215
 31
0.0
  0
LINE
  8
0
 62
     0
 10
202.357
 20
58.8215
 30
0.0
 11
202.357
 21
59.8219
 31
0.0
  0
LINE
  8
0
 62
     0
 10
202.357
 20
59.8219
 30
0.0
 11
188.357
 21
59.8219
 31
0.0
  0
LINE
  8
0
 62
     0
 10
169.307
 20
59.8219
 30
0.0
 11
169.307
 21
58.8215
 31
0.0
  0
LINE
  8
0
 62
     0
 10
169.307
 20
58.8215
 30
0.0
 11
168.506
 21
58.8215
 31
0.0
  0
LINE
  8
0
 62
     0
 10
168.506
 20
58.8215
 30
0.0
 11
168.506
 21
55.7223
 31
0.0
  0
LINE
  8
0
 62
     0
 10
168.506
 20
55.7223
 30
0.0
 11
169.307
 21
55.7223
 31
0.0
  0
LINE
  8
0
 62
     0
 10
169.307
 20
55.7223
 30
0.0
 11
169.307
 21
49.9223
 31
0.0
  0
LINE
  8
0
 62
     0
 10
169.307
 20
49.9223
 30
0.0
 11
168.506
 21
49.9223
 31
0.0
  0
LINE
  8
0
 62
     0
 10
168.506
 20
49.9223
 30
0.0
 11
168.506
 21
46.8217
 31
0.0
  0
LINE
  8
0
 62
     0
 10
168.506
 20
46.8217
 30
0.0
 11
169.307
 21
46.8217
 31
0.0
  0
LINE
  8
0
 62
     0
 10
169.307
 20
46.8217
 30
0.0
 11
169.307
 21
45.8227
 31
0.0
  0
LINE
  8
0
 62
     0
 10
169.307
 20
45.8227
 30
0.0
 11
183.307
 21
45.8227
 31
0.0
  0
LINE
  8
0
 62
     0
 10
183.307
 20
45.8227
 30
0.0
 11
183.307
 21
46.8217
 31
0.0
  0
LINE
  8
0
 62
     0
 10
183.307
 20
46.8217
 30
0.0
 11
184.106
 21
46.8217
 31
0.0
  0
LINE
  8
0
 62
     0
 10
184.106
 20
46.8217
 30
0.0
 11
184.106
 21
49.9223
 31
0.0
  0
LINE
  8
0
 62
     0
 10
184.106
 20
49.9223
 30
0.0
 11
183.307
 21
49.9223
 31
0.0
  0
LINE
  8
0
 62
     0
 10
183.307
 20
49.9223
 30
0.0
 11
183.307
 21
55.7223
 31
0.0
  0
LINE
  8
0
 62
     0
 10
183.307
 20
55.7223
 30
0.0
 11
184.106
 21
55.7223
 31
0.0
  0
LINE
  8
0
 62
     0
 10
184.106
 20
55.7223
 30
0.0
 11
184.106
 21
58.8215
 31
0.0
  0
LINE
  8
0
 62
     0
 10
184.106
 20
58.8215
 30
0.0
 11
183.307
 21
58.8215
 31
0.0
  0
LINE
  8
0
 62
     0
 10
183.307
 20
58.8215
 30
0.0
 11
183.307
 21
59.8219
 31
0.0
  0
LINE
  8
0
 62
     0
 10
183.307
 20
59.8219
 30
0.0
 11
169.307
 21
59.8219
 31
0.0
  0
LINE
  8
0
 62
     0
 10
150.257
 20
59.8219
 30
0.0
 11
150.257
 21
58.8215
 31
0.0
  0
LINE
  8
0
 62
     0
 10
150.257
 20
58.8215
 30
0.0
 11
149.456
 21
58.8215
 31
0.0
  0
LINE
  8
0
 62
     0
 10
149.456
 20
58.8215
 30
0.0
 11
149.456
 21
55.7223
 31
0.0
  0
LINE
  8
0
 62
     0
 10
149.456
 20
55.7223
 30
0.0
 11
150.257
 21
55.7223
 31
0.0
  0
LINE
  8
0
 62
     0
 10
150.257
 20
55.7223
 30
0.0
 11
150.257
 21
49.9223
 31
0.0
  0
LINE
  8
0
 62
     0
 10
150.257
 20
49.9223
 30
0.0
 11
149.456
 21
49.9223
 31
0.0
  0
LINE
  8
0
 62
     0
 10
149.456
 20
49.9223
 30
0.0
 11
149.456
 21
46.8217
 31
0.0
  0
LINE
  8
0
 62
     0
 10
149.456
 20
46.8217
 30
0.0
 11
150.257
 21
46.8217
 31
0.0
  0
LINE
  8
0
 62
     0
 10
150.257
 20
46.8217
 30
0.0
 11
150.257
 21
45.8227
 31
0.0
  0
LINE
  8
0
 62
     0
 10
150.257
 20
45.8227
 30
0.0
 11
164.257
 21
45.8227
 31
0.0
  0
LINE
  8
0
 62
     0
 10
164.257
 20
45.8227
 30
0.0
 11
164.257
 21
46.8217
 31
0.0
  0
LINE
  8
0
 62
     0
 10
164.257
 20
46.8217
 30
0.0
 11
165.056
 21
46.8217
 31
0.0
  0
LINE
  8
0
 62
     0
 10
165.056
 20
46.8217
 30
0.0
 11
165.056
 21
49.9223
 31
0.0
  0
LINE
  8
0
 62
     0
 10
165.056
 20
49.9223
 30
0.0
 11
164.257
 21
49.9223
 31
0.0
  0
LINE
  8
0
 62
     0
 10
164.257
 20
49.9223
 30
0.0
 11
164.257
 21
55.7223
 31
0.0
  0
LINE
  8
0
 62
     0
 10
164.257
 20
55.7223
 30
0.0
 11
165.056
 21
55.7223
 31
0.0
  0
LINE
  8
0
 62
     0
 10
165.056
 20
55.7223
 30
0.0
 11
165.056
 21
58.8215
 31
0.0
  0
LINE
  8
0
 62
     0
 10
165.056
 20
58.8215
 30
0.0
 11
164.257
 21
58.8215
 31
0.0
  0
LINE
  8
0
 62
     0
 10
164.257
 20
58.8215
 30
0.0
 11
164.257
 21
59.8219
 31
0.0
  0
LINE
  8
0
 62
     0
 10
164.257
 20
59.8219
 30
0.0
 11
150.257
 21
59.8219
 31
0.0
  0
LINE
  8
0
 62
     0
 10
131.207
 20
59.8219
 30
0.0
 11
131.207
 21
58.8215
 31
0.0
  0
LINE
  8
0
 62
     0
 10
131.207
 20
58.8215
 30
0.0
 11
130.406
 21
58.8215
 31
0.0
  0
LINE
  8
0
 62
     0
 10
130.406
 20
58.8215
 30
0.0
 11
130.406
 21
55.7223
 31
0.0
  0
LINE
  8
0
 62
     0
 10
130.406
 20
55.7223
 30
0.0
 11
131.207
 21
55.7223
 31
0.0
  0
LINE
  8
0
 62
     0
 10
131.207
 20
55.7223
 30
0.0
 11
131.207
 21
49.9223
 31
0.0
  0
LINE
  8
0
 62
     0
 10
131.207
 20
49.9223
 30
0.0
 11
130.406
 21
49.9223
 31
0.0
  0
LINE
  8
0
 62
     0
 10
130.406
 20
49.9223
 30
0.0
 11
130.406
 21
46.8217
 31
0.0
  0
LINE
  8
0
 62
     0
 10
130.406
 20
46.8217
 30
0.0
 11
131.207
 21
46.8217
 31
0.0
  0
LINE
  8
0
 62
     0
 10
131.207
 20
46.8217
 30
0.0
 11
131.207
 21
45.8227
 31
0.0
  0
LINE
  8
0
 62
     0
 10
131.207
 20
45.8227
 30
0.0
 11
145.207
 21
45.8227
 31
0.0
  0
LINE
  8
0
 62
     0
 10
145.207
 20
45.8227
 30
0.0
 11
145.207
 21
46.8217
 31
0.0
  0
LINE
  8
0
 62
     0
 10
145.207
 20
46.8217
 30
0.0
 11
146.006
 21
46.8217
 31
0.0
  0
LINE
  8
0
 62
     0
 10
146.006
 20
46.8217
 30
0.0
 11
146.006
 21
49.9223
 31
0.0
  0
LINE
  8
0
 62
     0
 10
146.006
 20
49.9223
 30
0.0
 11
145.207
 21
49.9223
 31
0.0
  0
LINE
  8
0
 62
     0
 10
145.207
 20
49.9223
 30
0.0
 11
145.207
 21
55.7223
 31
0.0
  0
LINE
  8
0
 62
     0
 10
145.207
 20
55.7223
 30
0.0
 11
146.006
 21
55.7223
 31
0.0
  0
LINE
  8
0
 62
     0
 10
146.006
 20
55.7223
 30
0.0
 11
146.006
 21
58.8215
 31
0.0
  0
LINE
  8
0
 62
     0
 10
146.006
 20
58.8215
 30
0.0
 11
145.207
 21
58.8215
 31
0.0
  0
LINE
  8
0
 62
     0
 10
145.207
 20
58.8215
 30
0.0
 11
145.207
 21
59.8219
 31
0.0
  0
LINE
  8
0
 62
     0
 10
145.207
 20
59.8219
 30
0.0
 11
131.207
 21
59.8219
 31
0.0
  0
LINE
  8
0
 62
     0
 10
112.157
 20
59.8219
 30
0.0
 11
112.157
 21
58.8215
 31
0.0
  0
LINE
  8
0
 62
     0
 10
112.157
 20
58.8215
 30
0.0
 11
111.356
 21
58.8215
 31
0.0
  0
LINE
  8
0
 62
     0
 10
111.356
 20
58.8215
 30
0.0
 11
111.356
 21
55.7223
 31
0.0
  0
LINE
  8
0
 62
     0
 10
111.356
 20
55.7223
 30
0.0
 11
112.157
 21
55.7223
 31
0.0
  0
LINE
  8
0
 62
     0
 10
112.157
 20
55.7223
 30
0.0
 11
112.157
 21
49.9223
 31
0.0
  0
LINE
  8
0
 62
     0
 10
112.157
 20
49.9223
 30
0.0
 11
111.356
 21
49.9223
 31
0.0
  0
LINE
  8
0
 62
     0
 10
111.356
 20
49.9223
 30
0.0
 11
111.356
 21
46.8217
 31
0.0
  0
LINE
  8
0
 62
     0
 10
111.356
 20
46.8217
 30
0.0
 11
112.157
 21
46.8217
 31
0.0
  0
LINE
  8
0
 62
     0
 10
112.157
 20
46.8217
 30
0.0
 11
112.157
 21
45.8227
 31
0.0
  0
LINE
  8
0
 62
     0
 10
112.157
 20
45.8227
 30
0.0
 11
126.157
 21
45.8227
 31
0.0
  0
LINE
  8
0
 62
     0
 10
126.157
 20
45.8227
 30
0.0
 11
126.157
 21
46.8217
 31
0.0
  0
LINE
  8
0
 62
     0
 10
126.157
 20
46.8217
 30
0.0
 11
126.956
 21
46.8217
 31
0.0
  0
LINE
  8
0
 62
     0
 10
126.956
 20
46.8217
 30
0.0
 11
126.956
 21
49.9223
 31
0.0
  0
LINE
  8
0
 62
     0
 10
126.956
 20
49.9223
 30
0.0
 11
126.157
 21
49.9223
 31
0.0
  0
LINE
  8
0
 62
     0
 10
126.157
 20
49.9223
 30
0.0
 11
126.157
 21
55.7223
 31
0.0
  0
LINE
  8
0
 62
     0
 10
126.157
 20
55.7223
 30
0.0
 11
126.956
 21
55.7223
 31
0.0
  0
LINE
  8
0
 62
     0
 10
126.956
 20
55.7223
 30
0.0
 11
126.956
 21
58.8215
 31
0.0
  0
LINE
  8
0
 62
     0
 10
126.956
 20
58.8215
 30
0.0
 11
126.157
 21
58.8215
 31
0.0
  0
LINE
  8
0
 62
     0
 10
126.157
 20
58.8215
 30
0.0
 11
126.157
 21
59.8219
 31
0.0
  0
LINE
  8
0
 62
     0
 10
126.157
 20
59.8219
 30
0.0
 11
112.157
 21
59.8219
 31
0.0
  0
LINE
  8
0
 62
     0
 10
93.1072
 20
59.8219
 30
0.0
 11
93.1072
 21
58.8215
 31
0.0
  0
LINE
  8
0
 62
     0
 10
93.1072
 20
58.8215
 30
0.0
 11
92.3064
 21
58.8215
 31
0.0
  0
LINE
  8
0
 62
     0
 10
92.3064
 20
58.8215
 30
0.0
 11
92.3064
 21
55.7223
 31
0.0
  0
LINE
  8
0
 62
     0
 10
92.3064
 20
55.7223
 30
0.0
 11
93.1072
 21
55.7223
 31
0.0
  0
LINE
  8
0
 62
     0
 10
93.1072
 20
55.7223
 30
0.0
 11
93.1072
 21
49.9223
 31
0.0
  0
LINE
  8
0
 62
     0
 10
93.1072
 20
49.9223
 30
0.0
 11
92.3064
 21
49.9223
 31
0.0
  0
LINE
  8
0
 62
     0
 10
92.3064
 20
49.9223
 30
0.0
 11
92.3064
 21
46.8217
 31
0.0
  0
LINE
  8
0
 62
     0
 10
92.3064
 20
46.8217
 30
0.0
 11
93.1072
 21
46.8217
 31
0.0
  0
LINE
  8
0
 62
     0
 10
93.1072
 20
46.8217
 30
0.0
 11
93.1072
 21
45.8227
 31
0.0
  0
LINE
  8
0
 62
     0
 10
93.1072
 20
45.8227
 30
0.0
 11
107.107
 21
45.8227
 31
0.0
  0
LINE
  8
0
 62
     0
 10
107.107
 20
45.8227
 30
0.0
 11
107.107
 21
46.8217
 31
0.0
  0
LINE
  8
0
 62
     0
 10
107.107
 20
46.8217
 30
0.0
 11
107.906
 21
46.8217
 31
0.0
  0
LINE
  8
0
 62
     0
 10
107.906
 20
46.8217
 30
0.0
 11
107.906
 21
49.9223
 31
0.0
  0
LINE
  8
0
 62
     0
 10
107.906
 20
49.9223
 30
0.0
 11
107.107
 21
49.9223
 31
0.0
  0
LINE
  8
0
 62
     0
 10
107.107
 20
49.9223
 30
0.0
 11
107.107
 21
55.7223
 31
0.0
  0
LINE
  8
0
 62
     0
 10
107.107
 20
55.7223
 30
0.0
 11
107.906
 21
55.7223
 31
0.0
  0
LINE
  8
0
 62
     0
 10
107.906
 20
55.7223
 30
0.0
 11
107.906
 21
58.8215
 31
0.0
  0
LINE
  8
0
 62
     0
 10
107.906
 20
58.8215
 30
0.0
 11
107.107
 21
58.8215
 31
0.0
  0
LINE
  8
0
 62
     0
 10
107.107
 20
58.8215
 30
0.0
 11
107.107
 21
59.8219
 31
0.0
  0
LINE
  8
0
 62
     0
 10
107.107
 20
59.8219
 30
0.0
 11
93.1072
 21
59.8219
 31
0.0
  0
LINE
  8
0
 62
     0
 10
74.0572
 20
59.8219
 30
0.0
 11
74.0572
 21
58.8215
 31
0.0
  0
LINE
  8
0
 62
     0
 10
74.0572
 20
58.8215
 30
0.0
 11
73.2564
 21
58.8215
 31
0.0
  0
LINE
  8
0
 62
     0
 10
73.2564
 20
58.8215
 30
0.0
 11
73.2564
 21
55.7223
 31
0.0
  0
LINE
  8
0
 62
     0
 10
73.2564
 20
55.7223
 30
0.0
 11
74.0572
 21
55.7223
 31
0.0
  0
LINE
  8
0
 62
     0
 10
74.0572
 20
55.7223
 30
0.0
 11
74.0572
 21
49.9223
 31
0.0
  0
LINE
  8
0
 62
     0
 10
74.0572
 20
49.9223
 30
0.0
 11
73.2564
 21
49.9223
 31
0.0
  0
LINE
  8
0
 62
     0
 10
73.2564
 20
49.9223
 30
0.0
 11
73.2564
 21
46.8217
 31
0.0
  0
LINE
  8
0
 62
     0
 10
73.2564
 20
46.8217
 30
0.0
 11
74.0572
 21
46.8217
 31
0.0
  0
LINE
  8
0
 62
     0
 10
74.0572
 20
46.8217
 30
0.0
 11
74.0572
 21
45.8227
 31
0.0
  0
LINE
  8
0
 62
     0
 10
74.0572
 20
45.8227
 30
0.0
 11
88.0565
 21
45.8227
 31
0.0
  0
LINE
  8
0
 62
     0
 10
88.0565
 20
45.8227
 30
0.0
 11
88.0565
 21
46.8217
 31
0.0
  0
LINE
  8
0
 62
     0
 10
88.0565
 20
46.8217
 30
0.0
 11
88.8559
 21
46.8217
 31
0.0
  0
LINE
  8
0
 62
     0
 10
88.8559
 20
46.8217
 30
0.0
 11
88.8559
 21
49.9223
 31
0.0
  0
LINE
  8
0
 62
     0
 10
88.8559
 20
49.9223
 30
0.0
 11
88.0565
 21
49.9223
 31
0.0
  0
LINE
  8
0
 62
     0
 10
88.0565
 20
49.9223
 30
0.0
 11
88.0565
 21
55.7223
 31
0.0
  0
LINE
  8
0
 62
     0
 10
88.0565
 20
55.7223
 30
0.0
 11
88.8559
 21
55.7223
 31
0.0
  0
LINE
  8
0
 62
     0
 10
88.8559
 20
55.7223
 30
0.0
 11
88.8559
 21
58.8215
 31
0.0
  0
LINE
  8
0
 62
     0
 10
88.8559
 20
58.8215
 30
0.0
 11
88.0565
 21
58.8215
 31
0.0
  0
LINE
  8
0
 62
     0
 10
88.0565
 20
58.8215
 30
0.0
 11
88.0565
 21
59.8219
 31
0.0
  0
LINE
  8
0
 62
     0
 10
88.0565
 20
59.8219
 30
0.0
 11
74.0572
 21
59.8219
 31
0.0
  0
LINE
  8
0
 62
     0
 10
55.0072
 20
59.8219
 30
0.0
 11
55.0072
 21
58.8215
 31
0.0
  0
LINE
  8
0
 62
     0
 10
55.0072
 20
58.8215
 30
0.0
 11
54.2064
 21
58.8215
 31
0.0
  0
LINE
  8
0
 62
     0
 10
54.2064
 20
58.8215
 30
0.0
 11
54.2064
 21
55.7223
 31
0.0
  0
LINE
  8
0
 62
     0
 10
54.2064
 20
55.7223
 30
0.0
 11
55.0072
 21
55.7223
 31
0.0
  0
LINE
  8
0
 62
     0
 10
55.0072
 20
55.7223
 30
0.0
 11
55.0072
 21
49.9223
 31
0.0
  0
LINE
  8
0
 62
     0
 10
55.0072
 20
49.9223
 30
0.0
 11
54.2064
 21
49.9223
 31
0.0
  0
LINE
  8
0
 62
     0
 10
54.2064
 20
49.9223
 30
0.0
 11
54.2064
 21
46.8217
 31
0.0
  0
LINE
  8
0
 62
     0
 10
54.2064
 20
46.8217
 30
0.0
 11
55.0072
 21
46.8217
 31
0.0
  0
LINE
  8
0
 62
     0
 10
55.0072
 20
46.8217
 30
0.0
 11
55.0072
 21
45.8227
 31
0.0
  0
LINE
  8
0
 62
     0
 10
55.0072
 20
45.8227
 30
0.0
 11
69.0065
 21
45.8227
 31
0.0
  0
LINE
  8
0
 62
     0
 10
69.0065
 20
45.8227
 30
0.0
 11
69.0065
 21
46.8217
 31
0.0
  0
LINE
  8
0
 62
     0
 10
69.0065
 20
46.8217
 30
0.0
 11
69.8059
 21
46.8217
 31
0.0
  0
LINE
  8
0
 62
     0
 10
69.8059
 20
46.8217
 30
0.0
 11
69.8059
 21
49.9223
 31
0.0
  0
LINE
  8
0
 62
     0
 10
69.8059
 20
49.9223
 30
0.0
 11
69.0065
 21
49.9223
 31
0.0
  0
LINE
  8
0
 62
     0
 10
69.0065
 20
49.9223
 30
0.0
 11
69.0065
 21
55.7223
 31
0.0
  0
LINE
  8
0
 62
     0
 10
69.0065
 20
55.7223
 30
0.0
 11
69.8059
 21
55.7223
 31
0.0
  0
LINE
  8
0
 62
     0
 10
69.8059
 20
55.7223
 30
0.0
 11
69.8059
 21
58.8215
 31
0.0
  0
LINE
  8
0
 62
     0
 10
69.8059
 20
58.8215
 30
0.0
 11
69.0065
 21
58.8215
 31
0.0
  0
LINE
  8
0
 62
     0
 10
69.0065
 20
58.8215
 30
0.0
 11
69.0065
 21
59.8219
 31
0.0
  0
LINE
  8
0
 62
     0
 10
69.0065
 20
59.8219
 30
0.0
 11
55.0072
 21
59.8219
 31
0.0
  0
LINE
  8
0
 62
     0
 10
35.9572
 20
59.8219
 30
0.0
 11
35.9572
 21
58.8215
 31
0.0
  0
LINE
  8
0
 62
     0
 10
35.9572
 20
58.8215
 30
0.0
 11
35.1565
 21
58.8215
 31
0.0
  0
LINE
  8
0
 62
     0
 10
35.1565
 20
58.8215
 30
0.0
 11
35.1565
 21
55.7223
 31
0.0
  0
LINE
  8
0
 62
     0
 10
35.1565
 20
55.7223
 30
0.0
 11
35.9572
 21
55.7223
 31
0.0
  0
LINE
  8
0
 62
     0
 10
35.9572
 20
55.7223
 30
0.0
 11
35.9572
 21
49.9223
 31
0.0
  0
LINE
  8
0
 62
     0
 10
35.9572
 20
49.9223
 30
0.0
 11
35.1565
 21
49.9223
 31
0.0
  0
LINE
  8
0
 62
     0
 10
35.1565
 20
49.9223
 30
0.0
 11
35.1565
 21
46.8217
 31
0.0
  0
LINE
  8
0
 62
     0
 10
35.1565
 20
46.8217
 30
0.0
 11
35.9572
 21
46.8217
 31
0.0
  0
LINE
  8
0
 62
     0
 10
35.9572
 20
46.8217
 30
0.0
 11
35.9572
 21
45.8227
 31
0.0
  0
LINE
  8
0
 62
     0
 10
35.9572
 20
45.8227
 30
0.0
 11
49.9565
 21
45.8227
 31
0.0
  0
LINE
  8
0
 62
     0
 10
49.9565
 20
45.8227
 30
0.0
 11
49.9565
 21
46.8217
 31
0.0
  0
LINE
  8
0
 62
     0
 10
49.9565
 20
46.8217
 30
0.0
 11
50.7559
 21
46.8217
 31
0.0
  0
LINE
  8
0
 62
     0
 10
50.7559
 20
46.8217
 30
0.0
 11
50.7559
 21
49.9223
 31
0.0
  0
LINE
  8
0
 62
     0
 10
50.7559
 20
49.9223
 30
0.0
 11
49.9565
 21
49.9223
 31
0.0
  0
LINE
  8
0
 62
     0
 10
49.9565
 20
49.9223
 30
0.0
 11
49.9565
 21
55.7223
 31
0.0
  0
LINE
  8
0
 62
     0
 10
49.9565
 20
55.7223
 30
0.0
 11
50.7559
 21
55.7223
 31
0.0
  0
LINE
  8
0
 62
     0
 10
50.7559
 20
55.7223
 30
0.0
 11
50.7559
 21
58.8215
 31
0.0
  0
LINE
  8
0
 62
     0
 10
50.7559
 20
58.8215
 30
0.0
 11
49.9565
 21
58.8215
 31
0.0
  0
LINE
  8
0
 62
     0
 10
49.9565
 20
58.8215
 30
0.0
 11
49.9565
 21
59.8219
 31
0.0
  0
LINE
  8
0
 62
     0
 10
49.9565
 20
59.8219
 30
0.0
 11
35.9572
 21
59.8219
 31
0.0
  0
LINE
  8
0
 62
     0
 10
9.76203
 20
59.8219
 30
0.0
 11
9.76203
 21
58.8215
 31
0.0
  0
LINE
  8
0
 62
     0
 10
9.76203
 20
58.8215
 30
0.0
 11
8.96278
 21
58.8215
 31
0.0
  0
LINE
  8
0
 62
     0
 10
8.96278
 20
58.8215
 30
0.0
 11
8.96278
 21
55.7223
 31
0.0
  0
LINE
  8
0
 62
     0
 10
8.96278
 20
55.7223
 30
0.0
 11
9.76203
 21
55.7223
 31
0.0
  0
LINE
  8
0
 62
     0
 10
9.76203
 20
55.7223
 30
0.0
 11
9.76203
 21
49.9223
 31
0.0
  0
LINE
  8
0
 62
     0
 10
9.76203
 20
49.9223
 30
0.0
 11
8.96278
 21
49.9223
 31
0.0
  0
LINE
  8
0
 62
     0
 10
8.96278
 20
49.9223
 30
0.0
 11
8.96278
 21
46.8217
 31
0.0
  0
LINE
  8
0
 62
     0
 10
8.96278
 20
46.8217
 30
0.0
 11
9.76203
 21
46.8217
 31
0.0
  0
LINE
  8
0
 62
     0
 10
9.76203
 20
46.8217
 30
0.0
 11
9.76203
 21
45.8227
 31
0.0
  0
LINE
  8
0
 62
     0
 10
9.76203
 20
45.8227
 30
0.0
 11
23.7629
 21
45.8227
 31
0.0
  0
LINE
  8
0
 62
     0
 10
23.7629
 20
45.8227
 30
0.0
 11
23.7629
 21
46.8217
 31
0.0
  0
LINE
  8
0
 62
     0
 10
23.7629
 20
46.8217
 30
0.0
 11
24.5622
 21
46.8217
 31
0.0
  0
LINE
  8
0
 62
     0
 10
24.5622
 20
46.8217
 30
0.0
 11
24.5622
 21
49.9223
 31
0.0
  0
LINE
  8
0
 62
     0
 10
24.5622
 20
49.9223
 30
0.0
 11
23.7629
 21
49.9223
 31
0.0
  0
LINE
  8
0
 62
     0
 10
23.7629
 20
49.9223
 30
0.0
 11
23.7629
 21
55.7223
 31
0.0
  0
LINE
  8
0
 62
     0
 10
23.7629
 20
55.7223
 30
0.0
 11
24.5622
 21
55.7223
 31
0.0
  0
LINE
  8
0
 62
     0
 10
24.5622
 20
55.7223
 30
0.0
 11
24.5622
 21
58.8215
 31
0.0
  0
LINE
  8
0
 62
     0
 10
24.5622
 20
58.8215
 30
0.0
 11
23.7629
 21
58.8215
 31
0.0
  0
LINE
  8
0
 62
     0
 10
23.7629
 20
58.8215
 30
0.0
 11
23.7629
 21
59.8219
 31
0.0
  0
LINE
  8
0
 62
     0
 10
23.7629
 20
59.8219
 30
0.0
 11
9.76203
 21
59.8219
 31
0.0
  0
LINE
  8
0
 62
     0
 10
361.544
 20
78.4475
 30
0.0
 11
361.544
 21
77.622
 31
0.0
  0
LINE
  8
0
 62
     0
 10
361.544
 20
77.622
 30
0.0
 11
355.275
 21
77.622
 31
0.0
  0
LINE
  8
0
 62
     0
 10
355.275
 20
77.622
 30
0.0
 11
355.275
 21
75.897
 31
0.0
  0
LINE
  8
0
 62
     0
 10
355.275
 20
75.897
 30
0.0
 11
354.295
 21
75.897
 31
0.0
  0
LINE
  8
0
 62
     0
 10
354.295
 20
75.897
 30
0.0
 11
354.295
 21
72.5978
 31
0.0
  0
LINE
  8
0
 62
     0
 10
354.295
 20
72.5978
 30
0.0
 11
355.275
 21
72.5978
 31
0.0
  0
LINE
  8
0
 62
     0
 10
355.275
 20
72.5978
 30
0.0
 11
355.275
 21
70.8723
 31
0.0
  0
LINE
  8
0
 62
     0
 10
355.275
 20
70.8723
 30
0.0
 11
359.745
 21
70.8723
 31
0.0
  0
LINE
  8
0
 62
     0
 10
359.745
 20
70.8723
 30
0.0
 11
359.745
 21
69.3469
 31
0.0
  0
LINE
  8
0
 62
     0
 10
359.745
 20
69.3469
 30
0.0
 11
359.145
 21
69.3469
 31
0.0
  0
LINE
  8
0
 62
     0
 10
359.145
 20
69.3469
 30
0.0
 11
359.145
 21
70.1477
 31
0.0
  0
LINE
  8
0
 62
     0
 10
359.145
 20
70.1477
 30
0.0
 11
356.045
 21
70.1477
 31
0.0
  0
LINE
  8
0
 62
     0
 10
356.045
 20
70.1477
 30
0.0
 11
356.045
 21
69.3469
 31
0.0
  0
LINE
  8
0
 62
     0
 10
356.045
 20
69.3469
 30
0.0
 11
355.046
 21
69.3469
 31
0.0
  0
LINE
  8
0
 62
     0
 10
355.046
 20
69.3469
 30
0.0
 11
355.046
 21
55.3477
 31
0.0
  0
LINE
  8
0
 62
     0
 10
355.046
 20
55.3477
 30
0.0
 11
356.045
 21
55.3477
 31
0.0
  0
LINE
  8
0
 62
     0
 10
356.045
 20
55.3477
 30
0.0
 11
356.045
 21
54.5469
 31
0.0
  0
LINE
  8
0
 62
     0
 10
356.045
 20
54.5469
 30
0.0
 11
359.145
 21
54.5469
 31
0.0
  0
LINE
  8
0
 62
     0
 10
359.145
 20
54.5469
 30
0.0
 11
359.145
 21
55.3477
 31
0.0
  0
LINE
  8
0
 62
     0
 10
359.145
 20
55.3477
 30
0.0
 11
359.745
 21
55.3477
 31
0.0
  0
LINE
  8
0
 62
     0
 10
359.745
 20
55.3477
 30
0.0
 11
359.745
 21
53.8219
 31
0.0
  0
LINE
  8
0
 62
     0
 10
359.745
 20
53.8219
 30
0.0
 11
355.275
 21
53.8219
 31
0.0
  0
LINE
  8
0
 62
     0
 10
355.275
 20
53.8219
 30
0.0
 11
355.275
 21
52.0968
 31
0.0
  0
LINE
  8
0
 62
     0
 10
355.275
 20
52.0968
 30
0.0
 11
354.295
 21
52.0968
 31
0.0
  0
LINE
  8
0
 62
     0
 10
354.295
 20
52.0968
 30
0.0
 11
354.295
 21
48.7976
 31
0.0
  0
LINE
  8
0
 62
     0
 10
354.295
 20
48.7976
 30
0.0
 11
355.275
 21
48.7976
 31
0.0
  0
LINE
  8
0
 62
     0
 10
355.275
 20
48.7976
 30
0.0
 11
355.275
 21
47.0726
 31
0.0
  0
LINE
  8
0
 62
     0
 10
355.275
 20
47.0726
 30
0.0
 11
361.544
 21
47.0726
 31
0.0
  0
LINE
  8
0
 62
     0
 10
361.544
 20
47.0726
 30
0.0
 11
361.544
 21
46.247
 31
0.0
  0
LINE
  8
0
 62
     0
 10
361.544
 20
46.247
 30
0.0
 11
364.345
 21
46.247
 31
0.0
  0
LINE
  8
0
 62
     0
 10
364.345
 20
46.247
 30
0.0
 11
364.345
 21
47.0726
 31
0.0
  0
LINE
  8
0
 62
     0
 10
364.345
 20
47.0726
 30
0.0
 11
367.577
 21
47.0726
 31
0.0
  0
LINE
  8
0
 62
     0
 10
367.577
 20
47.0726
 30
0.0
 11
367.577
 21
48.7976
 31
0.0
  0
LINE
  8
0
 62
     0
 10
367.577
 20
48.7976
 30
0.0
 11
368.494
 21
48.7976
 31
0.0
  0
LINE
  8
0
 62
     0
 10
368.494
 20
48.7976
 30
0.0
 11
368.494
 21
52.0968
 31
0.0
  0
LINE
  8
0
 62
     0
 10
368.494
 20
52.0968
 30
0.0
 11
367.577
 21
52.0968
 31
0.0
  0
LINE
  8
0
 62
     0
 10
367.577
 20
52.0968
 30
0.0
 11
367.577
 21
53.8219
 31
0.0
  0
LINE
  8
0
 62
     0
 10
367.577
 20
53.8219
 30
0.0
 11
364.345
 21
53.8219
 31
0.0
  0
LINE
  8
0
 62
     0
 10
364.345
 20
53.8219
 30
0.0
 11
364.345
 21
55.3477
 31
0.0
  0
LINE
  8
0
 62
     0
 10
364.345
 20
55.3477
 30
0.0
 11
364.945
 21
55.3477
 31
0.0
  0
LINE
  8
0
 62
     0
 10
364.945
 20
55.3477
 30
0.0
 11
364.945
 21
54.5469
 31
0.0
  0
LINE
  8
0
 62
     0
 10
364.945
 20
54.5469
 30
0.0
 11
368.046
 21
54.5469
 31
0.0
  0
LINE
  8
0
 62
     0
 10
368.046
 20
54.5469
 30
0.0
 11
368.046
 21
55.3477
 31
0.0
  0
LINE
  8
0
 62
     0
 10
368.046
 20
55.3477
 30
0.0
 11
369.044
 21
55.3477
 31
0.0
  0
LINE
  8
0
 62
     0
 10
369.044
 20
55.3477
 30
0.0
 11
369.044
 21
69.3469
 31
0.0
  0
LINE
  8
0
 62
     0
 10
369.044
 20
69.3469
 30
0.0
 11
368.046
 21
69.3469
 31
0.0
  0
LINE
  8
0
 62
     0
 10
368.046
 20
69.3469
 30
0.0
 11
368.046
 21
70.1477
 31
0.0
  0
LINE
  8
0
 62
     0
 10
368.046
 20
70.1477
 30
0.0
 11
364.945
 21
70.1477
 31
0.0
  0
LINE
  8
0
 62
     0
 10
364.945
 20
70.1477
 30
0.0
 11
364.945
 21
69.3469
 31
0.0
  0
LINE
  8
0
 62
     0
 10
364.945
 20
69.3469
 30
0.0
 11
364.345
 21
69.3469
 31
0.0
  0
LINE
  8
0
 62
     0
 10
364.345
 20
69.3469
 30
0.0
 11
364.345
 21
70.8723
 31
0.0
  0
LINE
  8
0
 62
     0
 10
364.345
 20
70.8723
 30
0.0
 11
367.577
 21
70.8723
 31
0.0
  0
LINE
  8
0
 62
     0
 10
367.577
 20
70.8723
 30
0.0
 11
367.577
 21
72.5978
 31
0.0
  0
LINE
  8
0
 62
     0
 10
367.577
 20
72.5978
 30
0.0
 11
368.494
 21
72.5978
 31
0.0
  0
LINE
  8
0
 62
     0
 10
368.494
 20
72.5978
 30
0.0
 11
368.494
 21
75.897
 31
0.0
  0
LINE
  8
0
 62
     0
 10
368.494
 20
75.897
 30
0.0
 11
367.577
 21
75.897
 31
0.0
  0
LINE
  8
0
 62
     0
 10
367.577
 20
75.897
 30
0.0
 11
367.577
 21
77.622
 31
0.0
  0
LINE
  8
0
 62
     0
 10
367.577
 20
77.622
 30
0.0
 11
364.345
 21
77.622
 31
0.0
  0
LINE
  8
0
 62
     0
 10
364.345
 20
77.622
 30
0.0
 11
364.345
 21
78.4475
 31
0.0
  0
LINE
  8
0
 62
     0
 10
364.345
 20
78.4475
 30
0.0
 11
361.544
 21
78.4475
 31
0.0
  0
LINE
  8
0
 62
     0
 10
335.995
 20
78.8719
 30
0.0
 11
335.995
 21
77.8715
 31
0.0
  0
LINE
  8
0
 62
     0
 10
335.995
 20
77.8715
 30
0.0
 11
335.194
 21
77.8715
 31
0.0
  0
LINE
  8
0
 62
     0
 10
335.194
 20
77.8715
 30
0.0
 11
335.194
 21
74.7723
 31
0.0
  0
LINE
  8
0
 62
     0
 10
335.194
 20
74.7723
 30
0.0
 11
335.995
 21
74.7723
 31
0.0
  0
LINE
  8
0
 62
     0
 10
335.995
 20
74.7723
 30
0.0
 11
335.995
 21
68.9723
 31
0.0
  0
LINE
  8
0
 62
     0
 10
335.995
 20
68.9723
 30
0.0
 11
335.194
 21
68.9723
 31
0.0
  0
LINE
  8
0
 62
     0
 10
335.194
 20
68.9723
 30
0.0
 11
335.194
 21
65.8717
 31
0.0
  0
LINE
  8
0
 62
     0
 10
335.194
 20
65.8717
 30
0.0
 11
335.995
 21
65.8717
 31
0.0
  0
LINE
  8
0
 62
     0
 10
335.995
 20
65.8717
 30
0.0
 11
335.995
 21
64.8727
 31
0.0
  0
LINE
  8
0
 62
     0
 10
335.995
 20
64.8727
 30
0.0
 11
349.994
 21
64.8727
 31
0.0
  0
LINE
  8
0
 62
     0
 10
349.994
 20
64.8727
 30
0.0
 11
349.994
 21
65.8717
 31
0.0
  0
LINE
  8
0
 62
     0
 10
349.994
 20
65.8717
 30
0.0
 11
350.795
 21
65.8717
 31
0.0
  0
LINE
  8
0
 62
     0
 10
350.795
 20
65.8717
 30
0.0
 11
350.795
 21
68.9723
 31
0.0
  0
LINE
  8
0
 62
     0
 10
350.795
 20
68.9723
 30
0.0
 11
349.994
 21
68.9723
 31
0.0
  0
LINE
  8
0
 62
     0
 10
349.994
 20
68.9723
 30
0.0
 11
349.994
 21
74.7723
 31
0.0
  0
LINE
  8
0
 62
     0
 10
349.994
 20
74.7723
 30
0.0
 11
350.795
 21
74.7723
 31
0.0
  0
LINE
  8
0
 62
     0
 10
350.795
 20
74.7723
 30
0.0
 11
350.795
 21
77.8715
 31
0.0
  0
LINE
  8
0
 62
     0
 10
350.795
 20
77.8715
 30
0.0
 11
349.994
 21
77.8715
 31
0.0
  0
LINE
  8
0
 62
     0
 10
349.994
 20
77.8715
 30
0.0
 11
349.994
 21
78.8719
 31
0.0
  0
LINE
  8
0
 62
     0
 10
349.994
 20
78.8719
 30
0.0
 11
335.995
 21
78.8719
 31
0.0
  0
LINE
  8
0
 62
     0
 10
316.945
 20
78.8719
 30
0.0
 11
316.945
 21
77.8715
 31
0.0
  0
LINE
  8
0
 62
     0
 10
316.945
 20
77.8715
 30
0.0
 11
316.144
 21
77.8715
 31
0.0
  0
LINE
  8
0
 62
     0
 10
316.144
 20
77.8715
 30
0.0
 11
316.144
 21
74.7723
 31
0.0
  0
LINE
  8
0
 62
     0
 10
316.144
 20
74.7723
 30
0.0
 11
316.945
 21
74.7723
 31
0.0
  0
LINE
  8
0
 62
     0
 10
316.945
 20
74.7723
 30
0.0
 11
316.945
 21
68.9723
 31
0.0
  0
LINE
  8
0
 62
     0
 10
316.945
 20
68.9723
 30
0.0
 11
316.144
 21
68.9723
 31
0.0
  0
LINE
  8
0
 62
     0
 10
316.144
 20
68.9723
 30
0.0
 11
316.144
 21
65.8717
 31
0.0
  0
LINE
  8
0
 62
     0
 10
316.144
 20
65.8717
 30
0.0
 11
316.945
 21
65.8717
 31
0.0
  0
LINE
  8
0
 62
     0
 10
316.945
 20
65.8717
 30
0.0
 11
316.945
 21
64.8727
 31
0.0
  0
LINE
  8
0
 62
     0
 10
316.945
 20
64.8727
 30
0.0
 11
330.944
 21
64.8727
 31
0.0
  0
LINE
  8
0
 62
     0
 10
330.944
 20
64.8727
 30
0.0
 11
330.944
 21
65.8717
 31
0.0
  0
LINE
  8
0
 62
     0
 10
330.944
 20
65.8717
 30
0.0
 11
331.745
 21
65.8717
 31
0.0
  0
LINE
  8
0
 62
     0
 10
331.745
 20
65.8717
 30
0.0
 11
331.745
 21
68.9723
 31
0.0
  0
LINE
  8
0
 62
     0
 10
331.745
 20
68.9723
 30
0.0
 11
330.944
 21
68.9723
 31
0.0
  0
LINE
  8
0
 62
     0
 10
330.944
 20
68.9723
 30
0.0
 11
330.944
 21
74.7723
 31
0.0
  0
LINE
  8
0
 62
     0
 10
330.944
 20
74.7723
 30
0.0
 11
331.745
 21
74.7723
 31
0.0
  0
LINE
  8
0
 62
     0
 10
331.745
 20
74.7723
 30
0.0
 11
331.745
 21
77.8715
 31
0.0
  0
LINE
  8
0
 62
     0
 10
331.745
 20
77.8715
 30
0.0
 11
330.944
 21
77.8715
 31
0.0
  0
LINE
  8
0
 62
     0
 10
330.944
 20
77.8715
 30
0.0
 11
330.944
 21
78.8719
 31
0.0
  0
LINE
  8
0
 62
     0
 10
330.944
 20
78.8719
 30
0.0
 11
316.945
 21
78.8719
 31
0.0
  0
LINE
  8
0
 62
     0
 10
297.895
 20
78.8719
 30
0.0
 11
297.895
 21
77.8715
 31
0.0
  0
LINE
  8
0
 62
     0
 10
297.895
 20
77.8715
 30
0.0
 11
297.094
 21
77.8715
 31
0.0
  0
LINE
  8
0
 62
     0
 10
297.094
 20
77.8715
 30
0.0
 11
297.094
 21
74.7723
 31
0.0
  0
LINE
  8
0
 62
     0
 10
297.094
 20
74.7723
 30
0.0
 11
297.895
 21
74.7723
 31
0.0
  0
LINE
  8
0
 62
     0
 10
297.895
 20
74.7723
 30
0.0
 11
297.895
 21
68.9723
 31
0.0
  0
LINE
  8
0
 62
     0
 10
297.895
 20
68.9723
 30
0.0
 11
297.094
 21
68.9723
 31
0.0
  0
LINE
  8
0
 62
     0
 10
297.094
 20
68.9723
 30
0.0
 11
297.094
 21
65.8717
 31
0.0
  0
LINE
  8
0
 62
     0
 10
297.094
 20
65.8717
 30
0.0
 11
297.895
 21
65.8717
 31
0.0
  0
LINE
  8
0
 62
     0
 10
297.895
 20
65.8717
 30
0.0
 11
297.895
 21
64.8727
 31
0.0
  0
LINE
  8
0
 62
     0
 10
297.895
 20
64.8727
 30
0.0
 11
311.894
 21
64.8727
 31
0.0
  0
LINE
  8
0
 62
     0
 10
311.894
 20
64.8727
 30
0.0
 11
311.894
 21
65.8717
 31
0.0
  0
LINE
  8
0
 62
     0
 10
311.894
 20
65.8717
 30
0.0
 11
312.695
 21
65.8717
 31
0.0
  0
LINE
  8
0
 62
     0
 10
312.695
 20
65.8717
 30
0.0
 11
312.695
 21
68.9723
 31
0.0
  0
LINE
  8
0
 62
     0
 10
312.695
 20
68.9723
 30
0.0
 11
311.894
 21
68.9723
 31
0.0
  0
LINE
  8
0
 62
     0
 10
311.894
 20
68.9723
 30
0.0
 11
311.894
 21
74.7723
 31
0.0
  0
LINE
  8
0
 62
     0
 10
311.894
 20
74.7723
 30
0.0
 11
312.695
 21
74.7723
 31
0.0
  0
LINE
  8
0
 62
     0
 10
312.695
 20
74.7723
 30
0.0
 11
312.695
 21
77.8715
 31
0.0
  0
LINE
  8
0
 62
     0
 10
312.695
 20
77.8715
 30
0.0
 11
311.894
 21
77.8715
 31
0.0
  0
LINE
  8
0
 62
     0
 10
311.894
 20
77.8715
 30
0.0
 11
311.894
 21
78.8719
 31
0.0
  0
LINE
  8
0
 62
     0
 10
311.894
 20
78.8719
 30
0.0
 11
297.895
 21
78.8719
 31
0.0
  0
LINE
  8
0
 62
     0
 10
264.557
 20
78.8719
 30
0.0
 11
264.557
 21
77.8715
 31
0.0
  0
LINE
  8
0
 62
     0
 10
264.557
 20
77.8715
 30
0.0
 11
263.756
 21
77.8715
 31
0.0
  0
LINE
  8
0
 62
     0
 10
263.756
 20
77.8715
 30
0.0
 11
263.756
 21
74.7723
 31
0.0
  0
LINE
  8
0
 62
     0
 10
263.756
 20
74.7723
 30
0.0
 11
264.557
 21
74.7723
 31
0.0
  0
LINE
  8
0
 62
     0
 10
264.557
 20
74.7723
 30
0.0
 11
264.557
 21
68.9723
 31
0.0
  0
LINE
  8
0
 62
     0
 10
264.557
 20
68.9723
 30
0.0
 11
263.756
 21
68.9723
 31
0.0
  0
LINE
  8
0
 62
     0
 10
263.756
 20
68.9723
 30
0.0
 11
263.756
 21
65.8717
 31
0.0
  0
LINE
  8
0
 62
     0
 10
263.756
 20
65.8717
 30
0.0
 11
264.557
 21
65.8717
 31
0.0
  0
LINE
  8
0
 62
     0
 10
264.557
 20
65.8717
 30
0.0
 11
264.557
 21
64.8727
 31
0.0
  0
LINE
  8
0
 62
     0
 10
264.557
 20
64.8727
 30
0.0
 11
278.557
 21
64.8727
 31
0.0
  0
LINE
  8
0
 62
     0
 10
278.557
 20
64.8727
 30
0.0
 11
278.557
 21
65.8717
 31
0.0
  0
LINE
  8
0
 62
     0
 10
278.557
 20
65.8717
 30
0.0
 11
279.356
 21
65.8717
 31
0.0
  0
LINE
  8
0
 62
     0
 10
279.356
 20
65.8717
 30
0.0
 11
279.356
 21
68.9723
 31
0.0
  0
LINE
  8
0
 62
     0
 10
279.356
 20
68.9723
 30
0.0
 11
278.557
 21
68.9723
 31
0.0
  0
LINE
  8
0
 62
     0
 10
278.557
 20
68.9723
 30
0.0
 11
278.557
 21
74.7723
 31
0.0
  0
LINE
  8
0
 62
     0
 10
278.557
 20
74.7723
 30
0.0
 11
279.356
 21
74.7723
 31
0.0
  0
LINE
  8
0
 62
     0
 10
279.356
 20
74.7723
 30
0.0
 11
279.356
 21
77.8715
 31
0.0
  0
LINE
  8
0
 62
     0
 10
279.356
 20
77.8715
 30
0.0
 11
278.557
 21
77.8715
 31
0.0
  0
LINE
  8
0
 62
     0
 10
278.557
 20
77.8715
 30
0.0
 11
278.557
 21
78.8719
 31
0.0
  0
LINE
  8
0
 62
     0
 10
278.557
 20
78.8719
 30
0.0
 11
264.557
 21
78.8719
 31
0.0
  0
LINE
  8
0
 62
     0
 10
240.745
 20
78.8719
 30
0.0
 11
240.745
 21
77.8715
 31
0.0
  0
LINE
  8
0
 62
     0
 10
240.745
 20
77.8715
 30
0.0
 11
239.944
 21
77.8715
 31
0.0
  0
LINE
  8
0
 62
     0
 10
239.944
 20
77.8715
 30
0.0
 11
239.944
 21
74.7723
 31
0.0
  0
LINE
  8
0
 62
     0
 10
239.944
 20
74.7723
 30
0.0
 11
240.745
 21
74.7723
 31
0.0
  0
LINE
  8
0
 62
     0
 10
240.745
 20
74.7723
 30
0.0
 11
240.745
 21
68.9723
 31
0.0
  0
LINE
  8
0
 62
     0
 10
240.745
 20
68.9723
 30
0.0
 11
239.944
 21
68.9723
 31
0.0
  0
LINE
  8
0
 62
     0
 10
239.944
 20
68.9723
 30
0.0
 11
239.944
 21
65.8717
 31
0.0
  0
LINE
  8
0
 62
     0
 10
239.944
 20
65.8717
 30
0.0
 11
240.745
 21
65.8717
 31
0.0
  0
LINE
  8
0
 62
     0
 10
240.745
 20
65.8717
 30
0.0
 11
240.745
 21
64.8727
 31
0.0
  0
LINE
  8
0
 62
     0
 10
240.745
 20
64.8727
 30
0.0
 11
254.744
 21
64.8727
 31
0.0
  0
LINE
  8
0
 62
     0
 10
254.744
 20
64.8727
 30
0.0
 11
254.744
 21
65.8717
 31
0.0
  0
LINE
  8
0
 62
     0
 10
254.744
 20
65.8717
 30
0.0
 11
255.545
 21
65.8717
 31
0.0
  0
LINE
  8
0
 62
     0
 10
255.545
 20
65.8717
 30
0.0
 11
255.545
 21
68.9723
 31
0.0
  0
LINE
  8
0
 62
     0
 10
255.545
 20
68.9723
 30
0.0
 11
254.744
 21
68.9723
 31
0.0
  0
LINE
  8
0
 62
     0
 10
254.744
 20
68.9723
 30
0.0
 11
254.744
 21
74.7723
 31
0.0
  0
LINE
  8
0
 62
     0
 10
254.744
 20
74.7723
 30
0.0
 11
255.545
 21
74.7723
 31
0.0
  0
LINE
  8
0
 62
     0
 10
255.545
 20
74.7723
 30
0.0
 11
255.545
 21
77.8715
 31
0.0
  0
LINE
  8
0
 62
     0
 10
255.545
 20
77.8715
 30
0.0
 11
254.744
 21
77.8715
 31
0.0
  0
LINE
  8
0
 62
     0
 10
254.744
 20
77.8715
 30
0.0
 11
254.744
 21
78.8719
 31
0.0
  0
LINE
  8
0
 62
     0
 10
254.744
 20
78.8719
 30
0.0
 11
240.745
 21
78.8719
 31
0.0
  0
LINE
  8
0
 62
     0
 10
221.695
 20
78.8719
 30
0.0
 11
221.695
 21
77.8715
 31
0.0
  0
LINE
  8
0
 62
     0
 10
221.695
 20
77.8715
 30
0.0
 11
220.894
 21
77.8715
 31
0.0
  0
LINE
  8
0
 62
     0
 10
220.894
 20
77.8715
 30
0.0
 11
220.894
 21
74.7723
 31
0.0
  0
LINE
  8
0
 62
     0
 10
220.894
 20
74.7723
 30
0.0
 11
221.695
 21
74.7723
 31
0.0
  0
LINE
  8
0
 62
     0
 10
221.695
 20
74.7723
 30
0.0
 11
221.695
 21
68.9723
 31
0.0
  0
LINE
  8
0
 62
     0
 10
221.695
 20
68.9723
 30
0.0
 11
220.894
 21
68.9723
 31
0.0
  0
LINE
  8
0
 62
     0
 10
220.894
 20
68.9723
 30
0.0
 11
220.894
 21
65.8717
 31
0.0
  0
LINE
  8
0
 62
     0
 10
220.894
 20
65.8717
 30
0.0
 11
221.695
 21
65.8717
 31
0.0
  0
LINE
  8
0
 62
     0
 10
221.695
 20
65.8717
 30
0.0
 11
221.695
 21
64.8727
 31
0.0
  0
LINE
  8
0
 62
     0
 10
221.695
 20
64.8727
 30
0.0
 11
235.694
 21
64.8727
 31
0.0
  0
LINE
  8
0
 62
     0
 10
235.694
 20
64.8727
 30
0.0
 11
235.694
 21
65.8717
 31
0.0
  0
LINE
  8
0
 62
     0
 10
235.694
 20
65.8717
 30
0.0
 11
236.495
 21
65.8717
 31
0.0
  0
LINE
  8
0
 62
     0
 10
236.495
 20
65.8717
 30
0.0
 11
236.495
 21
68.9723
 31
0.0
  0
LINE
  8
0
 62
     0
 10
236.495
 20
68.9723
 30
0.0
 11
235.694
 21
68.9723
 31
0.0
  0
LINE
  8
0
 62
     0
 10
235.694
 20
68.9723
 30
0.0
 11
235.694
 21
74.7723
 31
0.0
  0
LINE
  8
0
 62
     0
 10
235.694
 20
74.7723
 30
0.0
 11
236.495
 21
74.7723
 31
0.0
  0
LINE
  8
0
 62
     0
 10
236.495
 20
74.7723
 30
0.0
 11
236.495
 21
77.8715
 31
0.0
  0
LINE
  8
0
 62
     0
 10
236.495
 20
77.8715
 30
0.0
 11
235.694
 21
77.8715
 31
0.0
  0
LINE
  8
0
 62
     0
 10
235.694
 20
77.8715
 30
0.0
 11
235.694
 21
78.8719
 31
0.0
  0
LINE
  8
0
 62
     0
 10
235.694
 20
78.8719
 30
0.0
 11
221.695
 21
78.8719
 31
0.0
  0
LINE
  8
0
 62
     0
 10
202.645
 20
78.8719
 30
0.0
 11
202.645
 21
77.8715
 31
0.0
  0
LINE
  8
0
 62
     0
 10
202.645
 20
77.8715
 30
0.0
 11
201.844
 21
77.8715
 31
0.0
  0
LINE
  8
0
 62
     0
 10
201.844
 20
77.8715
 30
0.0
 11
201.844
 21
74.7723
 31
0.0
  0
LINE
  8
0
 62
     0
 10
201.844
 20
74.7723
 30
0.0
 11
202.645
 21
74.7723
 31
0.0
  0
LINE
  8
0
 62
     0
 10
202.645
 20
74.7723
 30
0.0
 11
202.645
 21
68.9723
 31
0.0
  0
LINE
  8
0
 62
     0
 10
202.645
 20
68.9723
 30
0.0
 11
201.844
 21
68.9723
 31
0.0
  0
LINE
  8
0
 62
     0
 10
201.844
 20
68.9723
 30
0.0
 11
201.844
 21
65.8717
 31
0.0
  0
LINE
  8
0
 62
     0
 10
201.844
 20
65.8717
 30
0.0
 11
202.645
 21
65.8717
 31
0.0
  0
LINE
  8
0
 62
     0
 10
202.645
 20
65.8717
 30
0.0
 11
202.645
 21
64.8727
 31
0.0
  0
LINE
  8
0
 62
     0
 10
202.645
 20
64.8727
 30
0.0
 11
216.644
 21
64.8727
 31
0.0
  0
LINE
  8
0
 62
     0
 10
216.644
 20
64.8727
 30
0.0
 11
216.644
 21
65.8717
 31
0.0
  0
LINE
  8
0
 62
     0
 10
216.644
 20
65.8717
 30
0.0
 11
217.445
 21
65.8717
 31
0.0
  0
LINE
  8
0
 62
     0
 10
217.445
 20
65.8717
 30
0.0
 11
217.445
 21
68.9723
 31
0.0
  0
LINE
  8
0
 62
     0
 10
217.445
 20
68.9723
 30
0.0
 11
216.644
 21
68.9723
 31
0.0
  0
LINE
  8
0
 62
     0
 10
216.644
 20
68.9723
 30
0.0
 11
216.644
 21
74.7723
 31
0.0
  0
LINE
  8
0
 62
     0
 10
216.644
 20
74.7723
 30
0.0
 11
217.445
 21
74.7723
 31
0.0
  0
LINE
  8
0
 62
     0
 10
217.445
 20
74.7723
 30
0.0
 11
217.445
 21
77.8715
 31
0.0
  0
LINE
  8
0
 62
     0
 10
217.445
 20
77.8715
 30
0.0
 11
216.644
 21
77.8715
 31
0.0
  0
LINE
  8
0
 62
     0
 10
216.644
 20
77.8715
 30
0.0
 11
216.644
 21
78.8719
 31
0.0
  0
LINE
  8
0
 62
     0
 10
216.644
 20
78.8719
 30
0.0
 11
202.645
 21
78.8719
 31
0.0
  0
LINE
  8
0
 62
     0
 10
183.595
 20
78.8719
 30
0.0
 11
183.595
 21
77.8715
 31
0.0
  0
LINE
  8
0
 62
     0
 10
183.595
 20
77.8715
 30
0.0
 11
182.794
 21
77.8715
 31
0.0
  0
LINE
  8
0
 62
     0
 10
182.794
 20
77.8715
 30
0.0
 11
182.794
 21
74.7723
 31
0.0
  0
LINE
  8
0
 62
     0
 10
182.794
 20
74.7723
 30
0.0
 11
183.595
 21
74.7723
 31
0.0
  0
LINE
  8
0
 62
     0
 10
183.595
 20
74.7723
 30
0.0
 11
183.595
 21
68.9723
 31
0.0
  0
LINE
  8
0
 62
     0
 10
183.595
 20
68.9723
 30
0.0
 11
182.794
 21
68.9723
 31
0.0
  0
LINE
  8
0
 62
     0
 10
182.794
 20
68.9723
 30
0.0
 11
182.794
 21
65.8717
 31
0.0
  0
LINE
  8
0
 62
     0
 10
182.794
 20
65.8717
 30
0.0
 11
183.595
 21
65.8717
 31
0.0
  0
LINE
  8
0
 62
     0
 10
183.595
 20
65.8717
 30
0.0
 11
183.595
 21
64.8727
 31
0.0
  0
LINE
  8
0
 62
     0
 10
183.595
 20
64.8727
 30
0.0
 11
197.594
 21
64.8727
 31
0.0
  0
LINE
  8
0
 62
     0
 10
197.594
 20
64.8727
 30
0.0
 11
197.594
 21
65.8717
 31
0.0
  0
LINE
  8
0
 62
     0
 10
197.594
 20
65.8717
 30
0.0
 11
198.395
 21
65.8717
 31
0.0
  0
LINE
  8
0
 62
     0
 10
198.395
 20
65.8717
 30
0.0
 11
198.395
 21
68.9723
 31
0.0
  0
LINE
  8
0
 62
     0
 10
198.395
 20
68.9723
 30
0.0
 11
197.594
 21
68.9723
 31
0.0
  0
LINE
  8
0
 62
     0
 10
197.594
 20
68.9723
 30
0.0
 11
197.594
 21
74.7723
 31
0.0
  0
LINE
  8
0
 62
     0
 10
197.594
 20
74.7723
 30
0.0
 11
198.395
 21
74.7723
 31
0.0
  0
LINE
  8
0
 62
     0
 10
198.395
 20
74.7723
 30
0.0
 11
198.395
 21
77.8715
 31
0.0
  0
LINE
  8
0
 62
     0
 10
198.395
 20
77.8715
 30
0.0
 11
197.594
 21
77.8715
 31
0.0
  0
LINE
  8
0
 62
     0
 10
197.594
 20
77.8715
 30
0.0
 11
197.594
 21
78.8719
 31
0.0
  0
LINE
  8
0
 62
     0
 10
197.594
 20
78.8719
 30
0.0
 11
183.595
 21
78.8719
 31
0.0
  0
LINE
  8
0
 62
     0
 10
164.545
 20
78.8719
 30
0.0
 11
164.545
 21
77.8715
 31
0.0
  0
LINE
  8
0
 62
     0
 10
164.545
 20
77.8715
 30
0.0
 11
163.744
 21
77.8715
 31
0.0
  0
LINE
  8
0
 62
     0
 10
163.744
 20
77.8715
 30
0.0
 11
163.744
 21
74.7723
 31
0.0
  0
LINE
  8
0
 62
     0
 10
163.744
 20
74.7723
 30
0.0
 11
164.545
 21
74.7723
 31
0.0
  0
LINE
  8
0
 62
     0
 10
164.545
 20
74.7723
 30
0.0
 11
164.545
 21
68.9723
 31
0.0
  0
LINE
  8
0
 62
     0
 10
164.545
 20
68.9723
 30
0.0
 11
163.744
 21
68.9723
 31
0.0
  0
LINE
  8
0
 62
     0
 10
163.744
 20
68.9723
 30
0.0
 11
163.744
 21
65.8717
 31
0.0
  0
LINE
  8
0
 62
     0
 10
163.744
 20
65.8717
 30
0.0
 11
164.545
 21
65.8717
 31
0.0
  0
LINE
  8
0
 62
     0
 10
164.545
 20
65.8717
 30
0.0
 11
164.545
 21
64.8727
 31
0.0
  0
LINE
  8
0
 62
     0
 10
164.545
 20
64.8727
 30
0.0
 11
178.544
 21
64.8727
 31
0.0
  0
LINE
  8
0
 62
     0
 10
178.544
 20
64.8727
 30
0.0
 11
178.544
 21
65.8717
 31
0.0
  0
LINE
  8
0
 62
     0
 10
178.544
 20
65.8717
 30
0.0
 11
179.345
 21
65.8717
 31
0.0
  0
LINE
  8
0
 62
     0
 10
179.345
 20
65.8717
 30
0.0
 11
179.345
 21
68.9723
 31
0.0
  0
LINE
  8
0
 62
     0
 10
179.345
 20
68.9723
 30
0.0
 11
178.544
 21
68.9723
 31
0.0
  0
LINE
  8
0
 62
     0
 10
178.544
 20
68.9723
 30
0.0
 11
178.544
 21
74.7723
 31
0.0
  0
LINE
  8
0
 62
     0
 10
178.544
 20
74.7723
 30
0.0
 11
179.345
 21
74.7723
 31
0.0
  0
LINE
  8
0
 62
     0
 10
179.345
 20
74.7723
 30
0.0
 11
179.345
 21
77.8715
 31
0.0
  0
LINE
  8
0
 62
     0
 10
179.345
 20
77.8715
 30
0.0
 11
178.544
 21
77.8715
 31
0.0
  0
LINE
  8
0
 62
     0
 10
178.544
 20
77.8715
 30
0.0
 11
178.544
 21
78.8719
 31
0.0
  0
LINE
  8
0
 62
     0
 10
178.544
 20
78.8719
 30
0.0
 11
164.545
 21
78.8719
 31
0.0
  0
LINE
  8
0
 62
     0
 10
145.495
 20
78.8719
 30
0.0
 11
145.495
 21
77.8715
 31
0.0
  0
LINE
  8
0
 62
     0
 10
145.495
 20
77.8715
 30
0.0
 11
144.694
 21
77.8715
 31
0.0
  0
LINE
  8
0
 62
     0
 10
144.694
 20
77.8715
 30
0.0
 11
144.694
 21
74.7723
 31
0.0
  0
LINE
  8
0
 62
     0
 10
144.694
 20
74.7723
 30
0.0
 11
145.495
 21
74.7723
 31
0.0
  0
LINE
  8
0
 62
     0
 10
145.495
 20
74.7723
 30
0.0
 11
145.495
 21
68.9723
 31
0.0
  0
LINE
  8
0
 62
     0
 10
145.495
 20
68.9723
 30
0.0
 11
144.694
 21
68.9723
 31
0.0
  0
LINE
  8
0
 62
     0
 10
144.694
 20
68.9723
 30
0.0
 11
144.694
 21
65.8717
 31
0.0
  0
LINE
  8
0
 62
     0
 10
144.694
 20
65.8717
 30
0.0
 11
145.495
 21
65.8717
 31
0.0
  0
LINE
  8
0
 62
     0
 10
145.495
 20
65.8717
 30
0.0
 11
145.495
 21
64.8727
 31
0.0
  0
LINE
  8
0
 62
     0
 10
145.495
 20
64.8727
 30
0.0
 11
159.494
 21
64.8727
 31
0.0
  0
LINE
  8
0
 62
     0
 10
159.494
 20
64.8727
 30
0.0
 11
159.494
 21
65.8717
 31
0.0
  0
LINE
  8
0
 62
     0
 10
159.494
 20
65.8717
 30
0.0
 11
160.295
 21
65.8717
 31
0.0
  0
LINE
  8
0
 62
     0
 10
160.295
 20
65.8717
 30
0.0
 11
160.295
 21
68.9723
 31
0.0
  0
LINE
  8
0
 62
     0
 10
160.295
 20
68.9723
 30
0.0
 11
159.494
 21
68.9723
 31
0.0
  0
LINE
  8
0
 62
     0
 10
159.494
 20
68.9723
 30
0.0
 11
159.494
 21
74.7723
 31
0.0
  0
LINE
  8
0
 62
     0
 10
159.494
 20
74.7723
 30
0.0
 11
160.295
 21
74.7723
 31
0.0
  0
LINE
  8
0
 62
     0
 10
160.295
 20
74.7723
 30
0.0
 11
160.295
 21
77.8715
 31
0.0
  0
LINE
  8
0
 62
     0
 10
160.295
 20
77.8715
 30
0.0
 11
159.494
 21
77.8715
 31
0.0
  0
LINE
  8
0
 62
     0
 10
159.494
 20
77.8715
 30
0.0
 11
159.494
 21
78.8719
 31
0.0
  0
LINE
  8
0
 62
     0
 10
159.494
 20
78.8719
 30
0.0
 11
145.495
 21
78.8719
 31
0.0
  0
LINE
  8
0
 62
     0
 10
126.445
 20
78.8719
 30
0.0
 11
126.445
 21
77.8715
 31
0.0
  0
LINE
  8
0
 62
     0
 10
126.445
 20
77.8715
 30
0.0
 11
125.644
 21
77.8715
 31
0.0
  0
LINE
  8
0
 62
     0
 10
125.644
 20
77.8715
 30
0.0
 11
125.644
 21
74.7723
 31
0.0
  0
LINE
  8
0
 62
     0
 10
125.644
 20
74.7723
 30
0.0
 11
126.445
 21
74.7723
 31
0.0
  0
LINE
  8
0
 62
     0
 10
126.445
 20
74.7723
 30
0.0
 11
126.445
 21
68.9723
 31
0.0
  0
LINE
  8
0
 62
     0
 10
126.445
 20
68.9723
 30
0.0
 11
125.644
 21
68.9723
 31
0.0
  0
LINE
  8
0
 62
     0
 10
125.644
 20
68.9723
 30
0.0
 11
125.644
 21
65.8717
 31
0.0
  0
LINE
  8
0
 62
     0
 10
125.644
 20
65.8717
 30
0.0
 11
126.445
 21
65.8717
 31
0.0
  0
LINE
  8
0
 62
     0
 10
126.445
 20
65.8717
 30
0.0
 11
126.445
 21
64.8727
 31
0.0
  0
LINE
  8
0
 62
     0
 10
126.445
 20
64.8727
 30
0.0
 11
140.444
 21
64.8727
 31
0.0
  0
LINE
  8
0
 62
     0
 10
140.444
 20
64.8727
 30
0.0
 11
140.444
 21
65.8717
 31
0.0
  0
LINE
  8
0
 62
     0
 10
140.444
 20
65.8717
 30
0.0
 11
141.245
 21
65.8717
 31
0.0
  0
LINE
  8
0
 62
     0
 10
141.245
 20
65.8717
 30
0.0
 11
141.245
 21
68.9723
 31
0.0
  0
LINE
  8
0
 62
     0
 10
141.245
 20
68.9723
 30
0.0
 11
140.444
 21
68.9723
 31
0.0
  0
LINE
  8
0
 62
     0
 10
140.444
 20
68.9723
 30
0.0
 11
140.444
 21
74.7723
 31
0.0
  0
LINE
  8
0
 62
     0
 10
140.444
 20
74.7723
 30
0.0
 11
141.245
 21
74.7723
 31
0.0
  0
LINE
  8
0
 62
     0
 10
141.245
 20
74.7723
 30
0.0
 11
141.245
 21
77.8715
 31
0.0
  0
LINE
  8
0
 62
     0
 10
141.245
 20
77.8715
 30
0.0
 11
140.444
 21
77.8715
 31
0.0
  0
LINE
  8
0
 62
     0
 10
140.444
 20
77.8715
 30
0.0
 11
140.444
 21
78.8719
 31
0.0
  0
LINE
  8
0
 62
     0
 10
140.444
 20
78.8719
 30
0.0
 11
126.445
 21
78.8719
 31
0.0
  0
LINE
  8
0
 62
     0
 10
107.395
 20
78.8719
 30
0.0
 11
107.395
 21
77.8715
 31
0.0
  0
LINE
  8
0
 62
     0
 10
107.395
 20
77.8715
 30
0.0
 11
106.594
 21
77.8715
 31
0.0
  0
LINE
  8
0
 62
     0
 10
106.594
 20
77.8715
 30
0.0
 11
106.594
 21
74.7723
 31
0.0
  0
LINE
  8
0
 62
     0
 10
106.594
 20
74.7723
 30
0.0
 11
107.395
 21
74.7723
 31
0.0
  0
LINE
  8
0
 62
     0
 10
107.395
 20
74.7723
 30
0.0
 11
107.395
 21
68.9723
 31
0.0
  0
LINE
  8
0
 62
     0
 10
107.395
 20
68.9723
 30
0.0
 11
106.594
 21
68.9723
 31
0.0
  0
LINE
  8
0
 62
     0
 10
106.594
 20
68.9723
 30
0.0
 11
106.594
 21
65.8717
 31
0.0
  0
LINE
  8
0
 62
     0
 10
106.594
 20
65.8717
 30
0.0
 11
107.395
 21
65.8717
 31
0.0
  0
LINE
  8
0
 62
     0
 10
107.395
 20
65.8717
 30
0.0
 11
107.395
 21
64.8727
 31
0.0
  0
LINE
  8
0
 62
     0
 10
107.395
 20
64.8727
 30
0.0
 11
121.394
 21
64.8727
 31
0.0
  0
LINE
  8
0
 62
     0
 10
121.394
 20
64.8727
 30
0.0
 11
121.394
 21
65.8717
 31
0.0
  0
LINE
  8
0
 62
     0
 10
121.394
 20
65.8717
 30
0.0
 11
122.195
 21
65.8717
 31
0.0
  0
LINE
  8
0
 62
     0
 10
122.195
 20
65.8717
 30
0.0
 11
122.195
 21
68.9723
 31
0.0
  0
LINE
  8
0
 62
     0
 10
122.195
 20
68.9723
 30
0.0
 11
121.394
 21
68.9723
 31
0.0
  0
LINE
  8
0
 62
     0
 10
121.394
 20
68.9723
 30
0.0
 11
121.394
 21
74.7723
 31
0.0
  0
LINE
  8
0
 62
     0
 10
121.394
 20
74.7723
 30
0.0
 11
122.195
 21
74.7723
 31
0.0
  0
LINE
  8
0
 62
     0
 10
122.195
 20
74.7723
 30
0.0
 11
122.195
 21
77.8715
 31
0.0
  0
LINE
  8
0
 62
     0
 10
122.195
 20
77.8715
 30
0.0
 11
121.394
 21
77.8715
 31
0.0
  0
LINE
  8
0
 62
     0
 10
121.394
 20
77.8715
 30
0.0
 11
121.394
 21
78.8719
 31
0.0
  0
LINE
  8
0
 62
     0
 10
121.394
 20
78.8719
 30
0.0
 11
107.395
 21
78.8719
 31
0.0
  0
LINE
  8
0
 62
     0
 10
88.3447
 20
78.8719
 30
0.0
 11
88.3447
 21
77.8715
 31
0.0
  0
LINE
  8
0
 62
     0
 10
88.3447
 20
77.8715
 30
0.0
 11
87.5439
 21
77.8715
 31
0.0
  0
LINE
  8
0
 62
     0
 10
87.5439
 20
77.8715
 30
0.0
 11
87.5439
 21
74.7723
 31
0.0
  0
LINE
  8
0
 62
     0
 10
87.5439
 20
74.7723
 30
0.0
 11
88.3447
 21
74.7723
 31
0.0
  0
LINE
  8
0
 62
     0
 10
88.3447
 20
74.7723
 30
0.0
 11
88.3447
 21
68.9723
 31
0.0
  0
LINE
  8
0
 62
     0
 10
88.3447
 20
68.9723
 30
0.0
 11
87.5439
 21
68.9723
 31
0.0
  0
LINE
  8
0
 62
     0
 10
87.5439
 20
68.9723
 30
0.0
 11
87.5439
 21
65.8717
 31
0.0
  0
LINE
  8
0
 62
     0
 10
87.5439
 20
65.8717
 30
0.0
 11
88.3447
 21
65.8717
 31
0.0
  0
LINE
  8
0
 62
     0
 10
88.3447
 20
65.8717
 30
0.0
 11
88.3447
 21
64.8727
 31
0.0
  0
LINE
  8
0
 62
     0
 10
88.3447
 20
64.8727
 30
0.0
 11
102.344
 21
64.8727
 31
0.0
  0
LINE
  8
0
 62
     0
 10
102.344
 20
64.8727
 30
0.0
 11
102.344
 21
65.8717
 31
0.0
  0
LINE
  8
0
 62
     0
 10
102.344
 20
65.8717
 30
0.0
 11
103.145
 21
65.8717
 31
0.0
  0
LINE
  8
0
 62
     0
 10
103.145
 20
65.8717
 30
0.0
 11
103.145
 21
68.9723
 31
0.0
  0
LINE
  8
0
 62
     0
 10
103.145
 20
68.9723
 30
0.0
 11
102.344
 21
68.9723
 31
0.0
  0
LINE
  8
0
 62
     0
 10
102.344
 20
68.9723
 30
0.0
 11
102.344
 21
74.7723
 31
0.0
  0
LINE
  8
0
 62
     0
 10
102.344
 20
74.7723
 30
0.0
 11
103.145
 21
74.7723
 31
0.0
  0
LINE
  8
0
 62
     0
 10
103.145
 20
74.7723
 30
0.0
 11
103.145
 21
77.8715
 31
0.0
  0
LINE
  8
0
 62
     0
 10
103.145
 20
77.8715
 30
0.0
 11
102.344
 21
77.8715
 31
0.0
  0
LINE
  8
0
 62
     0
 10
102.344
 20
77.8715
 30
0.0
 11
102.344
 21
78.8719
 31
0.0
  0
LINE
  8
0
 62
     0
 10
102.344
 20
78.8719
 30
0.0
 11
88.3447
 21
78.8719
 31
0.0
  0
LINE
  8
0
 62
     0
 10
69.2947
 20
78.8719
 30
0.0
 11
69.2947
 21
77.8715
 31
0.0
  0
LINE
  8
0
 62
     0
 10
69.2947
 20
77.8715
 30
0.0
 11
68.4939
 21
77.8715
 31
0.0
  0
LINE
  8
0
 62
     0
 10
68.4939
 20
77.8715
 30
0.0
 11
68.4939
 21
74.7723
 31
0.0
  0
LINE
  8
0
 62
     0
 10
68.4939
 20
74.7723
 30
0.0
 11
69.2947
 21
74.7723
 31
0.0
  0
LINE
  8
0
 62
     0
 10
69.2947
 20
74.7723
 30
0.0
 11
69.2947
 21
68.9723
 31
0.0
  0
LINE
  8
0
 62
     0
 10
69.2947
 20
68.9723
 30
0.0
 11
68.4939
 21
68.9723
 31
0.0
  0
LINE
  8
0
 62
     0
 10
68.4939
 20
68.9723
 30
0.0
 11
68.4939
 21
65.8717
 31
0.0
  0
LINE
  8
0
 62
     0
 10
68.4939
 20
65.8717
 30
0.0
 11
69.2947
 21
65.8717
 31
0.0
  0
LINE
  8
0
 62
     0
 10
69.2947
 20
65.8717
 30
0.0
 11
69.2947
 21
64.8727
 31
0.0
  0
LINE
  8
0
 62
     0
 10
69.2947
 20
64.8727
 30
0.0
 11
83.294
 21
64.8727
 31
0.0
  0
LINE
  8
0
 62
     0
 10
83.294
 20
64.8727
 30
0.0
 11
83.294
 21
65.8717
 31
0.0
  0
LINE
  8
0
 62
     0
 10
83.294
 20
65.8717
 30
0.0
 11
84.0948
 21
65.8717
 31
0.0
  0
LINE
  8
0
 62
     0
 10
84.0948
 20
65.8717
 30
0.0
 11
84.0948
 21
68.9723
 31
0.0
  0
LINE
  8
0
 62
     0
 10
84.0948
 20
68.9723
 30
0.0
 11
83.294
 21
68.9723
 31
0.0
  0
LINE
  8
0
 62
     0
 10
83.294
 20
68.9723
 30
0.0
 11
83.294
 21
74.7723
 31
0.0
  0
LINE
  8
0
 62
     0
 10
83.294
 20
74.7723
 30
0.0
 11
84.0948
 21
74.7723
 31
0.0
  0
LINE
  8
0
 62
     0
 10
84.0948
 20
74.7723
 30
0.0
 11
84.0948
 21
77.8715
 31
0.0
  0
LINE
  8
0
 62
     0
 10
84.0948
 20
77.8715
 30
0.0
 11
83.294
 21
77.8715
 31
0.0
  0
LINE
  8
0
 62
     0
 10
83.294
 20
77.8715
 30
0.0
 11
83.294
 21
78.8719
 31
0.0
  0
LINE
  8
0
 62
     0
 10
83.294
 20
78.8719
 30
0.0
 11
69.2947
 21
78.8719
 31
0.0
  0
LINE
  8
0
 62
     0
 10
50.2447
 20
78.8719
 30
0.0
 11
50.2447
 21
77.8715
 31
0.0
  0
LINE
  8
0
 62
     0
 10
50.2447
 20
77.8715
 30
0.0
 11
49.4439
 21
77.8715
 31
0.0
  0
LINE
  8
0
 62
     0
 10
49.4439
 20
77.8715
 30
0.0
 11
49.4439
 21
74.7723
 31
0.0
  0
LINE
  8
0
 62
     0
 10
49.4439
 20
74.7723
 30
0.0
 11
50.2447
 21
74.7723
 31
0.0
  0
LINE
  8
0
 62
     0
 10
50.2447
 20
74.7723
 30
0.0
 11
50.2447
 21
68.9723
 31
0.0
  0
LINE
  8
0
 62
     0
 10
50.2447
 20
68.9723
 30
0.0
 11
49.4439
 21
68.9723
 31
0.0
  0
LINE
  8
0
 62
     0
 10
49.4439
 20
68.9723
 30
0.0
 11
49.4439
 21
65.8717
 31
0.0
  0
LINE
  8
0
 62
     0
 10
49.4439
 20
65.8717
 30
0.0
 11
50.2447
 21
65.8717
 31
0.0
  0
LINE
  8
0
 62
     0
 10
50.2447
 20
65.8717
 30
0.0
 11
50.2447
 21
64.8727
 31
0.0
  0
LINE
  8
0
 62
     0
 10
50.2447
 20
64.8727
 30
0.0
 11
64.244
 21
64.8727
 31
0.0
  0
LINE
  8
0
 62
     0
 10
64.244
 20
64.8727
 30
0.0
 11
64.244
 21
65.8717
 31
0.0
  0
LINE
  8
0
 62
     0
 10
64.244
 20
65.8717
 30
0.0
 11
65.0448
 21
65.8717
 31
0.0
  0
LINE
  8
0
 62
     0
 10
65.0448
 20
65.8717
 30
0.0
 11
65.0448
 21
68.9723
 31
0.0
  0
LINE
  8
0
 62
     0
 10
65.0448
 20
68.9723
 30
0.0
 11
64.244
 21
68.9723
 31
0.0
  0
LINE
  8
0
 62
     0
 10
64.244
 20
68.9723
 30
0.0
 11
64.244
 21
74.7723
 31
0.0
  0
LINE
  8
0
 62
     0
 10
64.244
 20
74.7723
 30
0.0
 11
65.0448
 21
74.7723
 31
0.0
  0
LINE
  8
0
 62
     0
 10
65.0448
 20
74.7723
 30
0.0
 11
65.0448
 21
77.8715
 31
0.0
  0
LINE
  8
0
 62
     0
 10
65.0448
 20
77.8715
 30
0.0
 11
64.244
 21
77.8715
 31
0.0
  0
LINE
  8
0
 62
     0
 10
64.244
 20
77.8715
 30
0.0
 11
64.244
 21
78.8719
 31
0.0
  0
LINE
  8
0
 62
     0
 10
64.244
 20
78.8719
 30
0.0
 11
50.2447
 21
78.8719
 31
0.0
  0
LINE
  8
0
 62
     0
 10
31.1947
 20
78.8719
 30
0.0
 11
31.1947
 21
77.8715
 31
0.0
  0
LINE
  8
0
 62
     0
 10
31.1947
 20
77.8715
 30
0.0
 11
30.394
 21
77.8715
 31
0.0
  0
LINE
  8
0
 62
     0
 10
30.394
 20
77.8715
 30
0.0
 11
30.394
 21
74.7723
 31
0.0
  0
LINE
  8
0
 62
     0
 10
30.394
 20
74.7723
 30
0.0
 11
31.1947
 21
74.7723
 31
0.0
  0
LINE
  8
0
 62
     0
 10
31.1947
 20
74.7723
 30
0.0
 11
31.1947
 21
68.9723
 31
0.0
  0
LINE
  8
0
 62
     0
 10
31.1947
 20
68.9723
 30
0.0
 11
30.394
 21
68.9723
 31
0.0
  0
LINE
  8
0
 62
     0
 10
30.394
 20
68.9723
 30
0.0
 11
30.394
 21
65.8717
 31
0.0
  0
LINE
  8
0
 62
     0
 10
30.394
 20
65.8717
 30
0.0
 11
31.1947
 21
65.8717
 31
0.0
  0
LINE
  8
0
 62
     0
 10
31.1947
 20
65.8717
 30
0.0
 11
31.1947
 21
64.8727
 31
0.0
  0
LINE
  8
0
 62
     0
 10
31.1947
 20
64.8727
 30
0.0
 11
45.194
 21
64.8727
 31
0.0
  0
LINE
  8
0
 62
     0
 10
45.194
 20
64.8727
 30
0.0
 11
45.194
 21
65.8717
 31
0.0
  0
LINE
  8
0
 62
     0
 10
45.194
 20
65.8717
 30
0.0
 11
45.9948
 21
65.8717
 31
0.0
  0
LINE
  8
0
 62
     0
 10
45.9948
 20
65.8717
 30
0.0
 11
45.9948
 21
68.9723
 31
0.0
  0
LINE
  8
0
 62
     0
 10
45.9948
 20
68.9723
 30
0.0
 11
45.194
 21
68.9723
 31
0.0
  0
LINE
  8
0
 62
     0
 10
45.194
 20
68.9723
 30
0.0
 11
45.194
 21
74.7723
 31
0.0
  0
LINE
  8
0
 62
     0
 10
45.194
 20
74.7723
 30
0.0
 11
45.9948
 21
74.7723
 31
0.0
  0
LINE
  8
0
 62
     0
 10
45.9948
 20
74.7723
 30
0.0
 11
45.9948
 21
77.8715
 31
0.0
  0
LINE
  8
0
 62
     0
 10
45.9948
 20
77.8715
 30
0.0
 11
45.194
 21
77.8715
 31
0.0
  0
LINE
  8
0
 62
     0
 10
45.194
 20
77.8715
 30
0.0
 11
45.194
 21
78.8719
 31
0.0
  0
LINE
  8
0
 62
     0
 10
45.194
 20
78.8719
 30
0.0
 11
31.1947
 21
78.8719
 31
0.0
  0
LINE
  8
0
 62
     0
 10
7.38216
 20
78.8719
 30
0.0
 11
7.38216
 21
77.8715
 31
0.0
  0
LINE
  8
0
 62
     0
 10
7.38216
 20
77.8715
 30
0.0
 11
6.58153
 21
77.8715
 31
0.0
  0
LINE
  8
0
 62
     0
 10
6.58153
 20
77.8715
 30
0.0
 11
6.58153
 21
74.7723
 31
0.0
  0
LINE
  8
0
 62
     0
 10
6.58153
 20
74.7723
 30
0.0
 11
7.38216
 21
74.7723
 31
0.0
  0
LINE
  8
0
 62
     0
 10
7.38216
 20
74.7723
 30
0.0
 11
7.38216
 21
68.9723
 31
0.0
  0
LINE
  8
0
 62
     0
 10
7.38216
 20
68.9723
 30
0.0
 11
6.58153
 21
68.9723
 31
0.0
  0
LINE
  8
0
 62
     0
 10
6.58153
 20
68.9723
 30
0.0
 11
6.58153
 21
65.8717
 31
0.0
  0
LINE
  8
0
 62
     0
 10
6.58153
 20
65.8717
 30
0.0
 11
7.38216
 21
65.8717
 31
0.0
  0
LINE
  8
0
 62
     0
 10
7.38216
 20
65.8717
 30
0.0
 11
7.38216
 21
64.8727
 31
0.0
  0
LINE
  8
0
 62
     0
 10
7.38216
 20
64.8727
 30
0.0
 11
21.3817
 21
64.8727
 31
0.0
  0
LINE
  8
0
 62
     0
 10
21.3817
 20
64.8727
 30
0.0
 11
21.3817
 21
65.8717
 31
0.0
  0
LINE
  8
0
 62
     0
 10
21.3817
 20
65.8717
 30
0.0
 11
22.1809
 21
65.8717
 31
0.0
  0
LINE
  8
0
 62
     0
 10
22.1809
 20
65.8717
 30
0.0
 11
22.1809
 21
68.9723
 31
0.0
  0
LINE
  8
0
 62
     0
 10
22.1809
 20
68.9723
 30
0.0
 11
21.3817
 21
68.9723
 31
0.0
  0
LINE
  8
0
 62
     0
 10
21.3817
 20
68.9723
 30
0.0
 11
21.3817
 21
74.7723
 31
0.0
  0
LINE
  8
0
 62
     0
 10
21.3817
 20
74.7723
 30
0.0
 11
22.1809
 21
74.7723
 31
0.0
  0
LINE
  8
0
 62
     0
 10
22.1809
 20
74.7723
 30
0.0
 11
22.1809
 21
77.8715
 31
0.0
  0
LINE
  8
0
 62
     0
 10
22.1809
 20
77.8715
 30
0.0
 11
21.3817
 21
77.8715
 31
0.0
  0
LINE
  8
0
 62
     0
 10
21.3817
 20
77.8715
 30
0.0
 11
21.3817
 21
78.8719
 31
0.0
  0
LINE
  8
0
 62
     0
 10
21.3817
 20
78.8719
 30
0.0
 11
7.38216
 21
78.8719
 31
0.0
  0
LINE
  8
0
 62
     0
 10
355.046
 20
97.9219
 30
0.0
 11
355.046
 21
96.9215
 31
0.0
  0
LINE
  8
0
 62
     0
 10
355.046
 20
96.9215
 30
0.0
 11
354.245
 21
96.9215
 31
0.0
  0
LINE
  8
0
 62
     0
 10
354.245
 20
96.9215
 30
0.0
 11
354.245
 21
93.8223
 31
0.0
  0
LINE
  8
0
 62
     0
 10
354.245
 20
93.8223
 30
0.0
 11
355.046
 21
93.8223
 31
0.0
  0
LINE
  8
0
 62
     0
 10
355.046
 20
93.8223
 30
0.0
 11
355.046
 21
88.0223
 31
0.0
  0
LINE
  8
0
 62
     0
 10
355.046
 20
88.0223
 30
0.0
 11
354.245
 21
88.0223
 31
0.0
  0
LINE
  8
0
 62
     0
 10
354.245
 20
88.0223
 30
0.0
 11
354.245
 21
84.9217
 31
0.0
  0
LINE
  8
0
 62
     0
 10
354.245
 20
84.9217
 30
0.0
 11
355.046
 21
84.9217
 31
0.0
  0
LINE
  8
0
 62
     0
 10
355.046
 20
84.9217
 30
0.0
 11
355.046
 21
83.9227
 31
0.0
  0
LINE
  8
0
 62
     0
 10
355.046
 20
83.9227
 30
0.0
 11
369.044
 21
83.9227
 31
0.0
  0
LINE
  8
0
 62
     0
 10
369.044
 20
83.9227
 30
0.0
 11
369.044
 21
84.9217
 31
0.0
  0
LINE
  8
0
 62
     0
 10
369.044
 20
84.9217
 30
0.0
 11
369.845
 21
84.9217
 31
0.0
  0
LINE
  8
0
 62
     0
 10
369.845
 20
84.9217
 30
0.0
 11
369.845
 21
88.0223
 31
0.0
  0
LINE
  8
0
 62
     0
 10
369.845
 20
88.0223
 30
0.0
 11
369.044
 21
88.0223
 31
0.0
  0
LINE
  8
0
 62
     0
 10
369.044
 20
88.0223
 30
0.0
 11
369.044
 21
93.8223
 31
0.0
  0
LINE
  8
0
 62
     0
 10
369.044
 20
93.8223
 30
0.0
 11
369.845
 21
93.8223
 31
0.0
  0
LINE
  8
0
 62
     0
 10
369.845
 20
93.8223
 30
0.0
 11
369.845
 21
96.9215
 31
0.0
  0
LINE
  8
0
 62
     0
 10
369.845
 20
96.9215
 30
0.0
 11
369.044
 21
96.9215
 31
0.0
  0
LINE
  8
0
 62
     0
 10
369.044
 20
96.9215
 30
0.0
 11
369.044
 21
97.9219
 31
0.0
  0
LINE
  8
0
 62
     0
 10
369.044
 20
97.9219
 30
0.0
 11
355.046
 21
97.9219
 31
0.0
  0
LINE
  8
0
 62
     0
 10
335.995
 20
97.9219
 30
0.0
 11
335.995
 21
96.9215
 31
0.0
  0
LINE
  8
0
 62
     0
 10
335.995
 20
96.9215
 30
0.0
 11
335.194
 21
96.9215
 31
0.0
  0
LINE
  8
0
 62
     0
 10
335.194
 20
96.9215
 30
0.0
 11
335.194
 21
93.8223
 31
0.0
  0
LINE
  8
0
 62
     0
 10
335.194
 20
93.8223
 30
0.0
 11
335.995
 21
93.8223
 31
0.0
  0
LINE
  8
0
 62
     0
 10
335.995
 20
93.8223
 30
0.0
 11
335.995
 21
88.0223
 31
0.0
  0
LINE
  8
0
 62
     0
 10
335.995
 20
88.0223
 30
0.0
 11
335.194
 21
88.0223
 31
0.0
  0
LINE
  8
0
 62
     0
 10
335.194
 20
88.0223
 30
0.0
 11
335.194
 21
84.9217
 31
0.0
  0
LINE
  8
0
 62
     0
 10
335.194
 20
84.9217
 30
0.0
 11
335.995
 21
84.9217
 31
0.0
  0
LINE
  8
0
 62
     0
 10
335.995
 20
84.9217
 30
0.0
 11
335.995
 21
83.9227
 31
0.0
  0
LINE
  8
0
 62
     0
 10
335.995
 20
83.9227
 30
0.0
 11
349.994
 21
83.9227
 31
0.0
  0
LINE
  8
0
 62
     0
 10
349.994
 20
83.9227
 30
0.0
 11
349.994
 21
84.9217
 31
0.0
  0
LINE
  8
0
 62
     0
 10
349.994
 20
84.9217
 30
0.0
 11
350.795
 21
84.9217
 31
0.0
  0
LINE
  8
0
 62
     0
 10
350.795
 20
84.9217
 30
0.0
 11
350.795
 21
88.0223
 31
0.0
  0
LINE
  8
0
 62
     0
 10
350.795
 20
88.0223
 30
0.0
 11
349.994
 21
88.0223
 31
0.0
  0
LINE
  8
0
 62
     0
 10
349.994
 20
88.0223
 30
0.0
 11
349.994
 21
93.8223
 31
0.0
  0
LINE
  8
0
 62
     0
 10
349.994
 20
93.8223
 30
0.0
 11
350.795
 21
93.8223
 31
0.0
  0
LINE
  8
0
 62
     0
 10
350.795
 20
93.8223
 30
0.0
 11
350.795
 21
96.9215
 31
0.0
  0
LINE
  8
0
 62
     0
 10
350.795
 20
96.9215
 30
0.0
 11
349.994
 21
96.9215
 31
0.0
  0
LINE
  8
0
 62
     0
 10
349.994
 20
96.9215
 30
0.0
 11
349.994
 21
97.9219
 31
0.0
  0
LINE
  8
0
 62
     0
 10
349.994
 20
97.9219
 30
0.0
 11
335.995
 21
97.9219
 31
0.0
  0
LINE
  8
0
 62
     0
 10
316.945
 20
97.9219
 30
0.0
 11
316.945
 21
96.9215
 31
0.0
  0
LINE
  8
0
 62
     0
 10
316.945
 20
96.9215
 30
0.0
 11
316.144
 21
96.9215
 31
0.0
  0
LINE
  8
0
 62
     0
 10
316.144
 20
96.9215
 30
0.0
 11
316.144
 21
93.8223
 31
0.0
  0
LINE
  8
0
 62
     0
 10
316.144
 20
93.8223
 30
0.0
 11
316.945
 21
93.8223
 31
0.0
  0
LINE
  8
0
 62
     0
 10
316.945
 20
93.8223
 30
0.0
 11
316.945
 21
88.0223
 31
0.0
  0
LINE
  8
0
 62
     0
 10
316.945
 20
88.0223
 30
0.0
 11
316.144
 21
88.0223
 31
0.0
  0
LINE
  8
0
 62
     0
 10
316.144
 20
88.0223
 30
0.0
 11
316.144
 21
84.9217
 31
0.0
  0
LINE
  8
0
 62
     0
 10
316.144
 20
84.9217
 30
0.0
 11
316.945
 21
84.9217
 31
0.0
  0
LINE
  8
0
 62
     0
 10
316.945
 20
84.9217
 30
0.0
 11
316.945
 21
83.9227
 31
0.0
  0
LINE
  8
0
 62
     0
 10
316.945
 20
83.9227
 30
0.0
 11
330.944
 21
83.9227
 31
0.0
  0
LINE
  8
0
 62
     0
 10
330.944
 20
83.9227
 30
0.0
 11
330.944
 21
84.9217
 31
0.0
  0
LINE
  8
0
 62
     0
 10
330.944
 20
84.9217
 30
0.0
 11
331.745
 21
84.9217
 31
0.0
  0
LINE
  8
0
 62
     0
 10
331.745
 20
84.9217
 30
0.0
 11
331.745
 21
88.0223
 31
0.0
  0
LINE
  8
0
 62
     0
 10
331.745
 20
88.0223
 30
0.0
 11
330.944
 21
88.0223
 31
0.0
  0
LINE
  8
0
 62
     0
 10
330.944
 20
88.0223
 30
0.0
 11
330.944
 21
93.8223
 31
0.0
  0
LINE
  8
0
 62
     0
 10
330.944
 20
93.8223
 30
0.0
 11
331.745
 21
93.8223
 31
0.0
  0
LINE
  8
0
 62
     0
 10
331.745
 20
93.8223
 30
0.0
 11
331.745
 21
96.9215
 31
0.0
  0
LINE
  8
0
 62
     0
 10
331.745
 20
96.9215
 30
0.0
 11
330.944
 21
96.9215
 31
0.0
  0
LINE
  8
0
 62
     0
 10
330.944
 20
96.9215
 30
0.0
 11
330.944
 21
97.9219
 31
0.0
  0
LINE
  8
0
 62
     0
 10
330.944
 20
97.9219
 30
0.0
 11
316.945
 21
97.9219
 31
0.0
  0
LINE
  8
0
 62
     0
 10
297.895
 20
97.9219
 30
0.0
 11
297.895
 21
96.9215
 31
0.0
  0
LINE
  8
0
 62
     0
 10
297.895
 20
96.9215
 30
0.0
 11
297.094
 21
96.9215
 31
0.0
  0
LINE
  8
0
 62
     0
 10
297.094
 20
96.9215
 30
0.0
 11
297.094
 21
93.8223
 31
0.0
  0
LINE
  8
0
 62
     0
 10
297.094
 20
93.8223
 30
0.0
 11
297.895
 21
93.8223
 31
0.0
  0
LINE
  8
0
 62
     0
 10
297.895
 20
93.8223
 30
0.0
 11
297.895
 21
88.0223
 31
0.0
  0
LINE
  8
0
 62
     0
 10
297.895
 20
88.0223
 30
0.0
 11
297.094
 21
88.0223
 31
0.0
  0
LINE
  8
0
 62
     0
 10
297.094
 20
88.0223
 30
0.0
 11
297.094
 21
84.9217
 31
0.0
  0
LINE
  8
0
 62
     0
 10
297.094
 20
84.9217
 30
0.0
 11
297.895
 21
84.9217
 31
0.0
  0
LINE
  8
0
 62
     0
 10
297.895
 20
84.9217
 30
0.0
 11
297.895
 21
83.9227
 31
0.0
  0
LINE
  8
0
 62
     0
 10
297.895
 20
83.9227
 30
0.0
 11
311.894
 21
83.9227
 31
0.0
  0
LINE
  8
0
 62
     0
 10
311.894
 20
83.9227
 30
0.0
 11
311.894
 21
84.9217
 31
0.0
  0
LINE
  8
0
 62
     0
 10
311.894
 20
84.9217
 30
0.0
 11
312.695
 21
84.9217
 31
0.0
  0
LINE
  8
0
 62
     0
 10
312.695
 20
84.9217
 30
0.0
 11
312.695
 21
88.0223
 31
0.0
  0
LINE
  8
0
 62
     0
 10
312.695
 20
88.0223
 30
0.0
 11
311.894
 21
88.0223
 31
0.0
  0
LINE
  8
0
 62
     0
 10
311.894
 20
88.0223
 30
0.0
 11
311.894
 21
93.8223
 31
0.0
  0
LINE
  8
0
 62
     0
 10
311.894
 20
93.8223
 30
0.0
 11
312.695
 21
93.8223
 31
0.0
  0
LINE
  8
0
 62
     0
 10
312.695
 20
93.8223
 30
0.0
 11
312.695
 21
96.9215
 31
0.0
  0
LINE
  8
0
 62
     0
 10
312.695
 20
96.9215
 30
0.0
 11
311.894
 21
96.9215
 31
0.0
  0
LINE
  8
0
 62
     0
 10
311.894
 20
96.9215
 30
0.0
 11
311.894
 21
97.9219
 31
0.0
  0
LINE
  8
0
 62
     0
 10
311.894
 20
97.9219
 30
0.0
 11
297.895
 21
97.9219
 31
0.0
  0
LINE
  8
0
 62
     0
 10
269.32
 20
97.9219
 30
0.0
 11
269.32
 21
96.9215
 31
0.0
  0
LINE
  8
0
 62
     0
 10
269.32
 20
96.9215
 30
0.0
 11
268.519
 21
96.9215
 31
0.0
  0
LINE
  8
0
 62
     0
 10
268.519
 20
96.9215
 30
0.0
 11
268.519
 21
93.8223
 31
0.0
  0
LINE
  8
0
 62
     0
 10
268.519
 20
93.8223
 30
0.0
 11
269.32
 21
93.8223
 31
0.0
  0
LINE
  8
0
 62
     0
 10
269.32
 20
93.8223
 30
0.0
 11
269.32
 21
88.0223
 31
0.0
  0
LINE
  8
0
 62
     0
 10
269.32
 20
88.0223
 30
0.0
 11
268.519
 21
88.0223
 31
0.0
  0
LINE
  8
0
 62
     0
 10
268.519
 20
88.0223
 30
0.0
 11
268.519
 21
84.9217
 31
0.0
  0
LINE
  8
0
 62
     0
 10
268.519
 20
84.9217
 30
0.0
 11
269.32
 21
84.9217
 31
0.0
  0
LINE
  8
0
 62
     0
 10
269.32
 20
84.9217
 30
0.0
 11
269.32
 21
83.9227
 31
0.0
  0
LINE
  8
0
 62
     0
 10
269.32
 20
83.9227
 30
0.0
 11
283.319
 21
83.9227
 31
0.0
  0
LINE
  8
0
 62
     0
 10
283.319
 20
83.9227
 30
0.0
 11
283.319
 21
84.9217
 31
0.0
  0
LINE
  8
0
 62
     0
 10
283.319
 20
84.9217
 30
0.0
 11
284.12
 21
84.9217
 31
0.0
  0
LINE
  8
0
 62
     0
 10
284.12
 20
84.9217
 30
0.0
 11
284.12
 21
88.0223
 31
0.0
  0
LINE
  8
0
 62
     0
 10
284.12
 20
88.0223
 30
0.0
 11
283.319
 21
88.0223
 31
0.0
  0
LINE
  8
0
 62
     0
 10
283.319
 20
88.0223
 30
0.0
 11
283.319
 21
93.8223
 31
0.0
  0
LINE
  8
0
 62
     0
 10
283.319
 20
93.8223
 30
0.0
 11
284.12
 21
93.8223
 31
0.0
  0
LINE
  8
0
 62
     0
 10
284.12
 20
93.8223
 30
0.0
 11
284.12
 21
96.9215
 31
0.0
  0
LINE
  8
0
 62
     0
 10
284.12
 20
96.9215
 30
0.0
 11
283.319
 21
96.9215
 31
0.0
  0
LINE
  8
0
 62
     0
 10
283.319
 20
96.9215
 30
0.0
 11
283.319
 21
97.9219
 31
0.0
  0
LINE
  8
0
 62
     0
 10
283.319
 20
97.9219
 30
0.0
 11
269.32
 21
97.9219
 31
0.0
  0
LINE
  8
0
 62
     0
 10
250.27
 20
97.9219
 30
0.0
 11
250.27
 21
96.9215
 31
0.0
  0
LINE
  8
0
 62
     0
 10
250.27
 20
96.9215
 30
0.0
 11
249.469
 21
96.9215
 31
0.0
  0
LINE
  8
0
 62
     0
 10
249.469
 20
96.9215
 30
0.0
 11
249.469
 21
93.8223
 31
0.0
  0
LINE
  8
0
 62
     0
 10
249.469
 20
93.8223
 30
0.0
 11
250.27
 21
93.8223
 31
0.0
  0
LINE
  8
0
 62
     0
 10
250.27
 20
93.8223
 30
0.0
 11
250.27
 21
88.0223
 31
0.0
  0
LINE
  8
0
 62
     0
 10
250.27
 20
88.0223
 30
0.0
 11
249.469
 21
88.0223
 31
0.0
  0
LINE
  8
0
 62
     0
 10
249.469
 20
88.0223
 30
0.0
 11
249.469
 21
84.9217
 31
0.0
  0
LINE
  8
0
 62
     0
 10
249.469
 20
84.9217
 30
0.0
 11
250.27
 21
84.9217
 31
0.0
  0
LINE
  8
0
 62
     0
 10
250.27
 20
84.9217
 30
0.0
 11
250.27
 21
83.9227
 31
0.0
  0
LINE
  8
0
 62
     0
 10
250.27
 20
83.9227
 30
0.0
 11
264.269
 21
83.9227
 31
0.0
  0
LINE
  8
0
 62
     0
 10
264.269
 20
83.9227
 30
0.0
 11
264.269
 21
84.9217
 31
0.0
  0
LINE
  8
0
 62
     0
 10
264.269
 20
84.9217
 30
0.0
 11
265.07
 21
84.9217
 31
0.0
  0
LINE
  8
0
 62
     0
 10
265.07
 20
84.9217
 30
0.0
 11
265.07
 21
88.0223
 31
0.0
  0
LINE
  8
0
 62
     0
 10
265.07
 20
88.0223
 30
0.0
 11
264.269
 21
88.0223
 31
0.0
  0
LINE
  8
0
 62
     0
 10
264.269
 20
88.0223
 30
0.0
 11
264.269
 21
93.8223
 31
0.0
  0
LINE
  8
0
 62
     0
 10
264.269
 20
93.8223
 30
0.0
 11
265.07
 21
93.8223
 31
0.0
  0
LINE
  8
0
 62
     0
 10
265.07
 20
93.8223
 30
0.0
 11
265.07
 21
96.9215
 31
0.0
  0
LINE
  8
0
 62
     0
 10
265.07
 20
96.9215
 30
0.0
 11
264.269
 21
96.9215
 31
0.0
  0
LINE
  8
0
 62
     0
 10
264.269
 20
96.9215
 30
0.0
 11
264.269
 21
97.9219
 31
0.0
  0
LINE
  8
0
 62
     0
 10
264.269
 20
97.9219
 30
0.0
 11
250.27
 21
97.9219
 31
0.0
  0
LINE
  8
0
 62
     0
 10
231.22
 20
97.9219
 30
0.0
 11
231.22
 21
96.9215
 31
0.0
  0
LINE
  8
0
 62
     0
 10
231.22
 20
96.9215
 30
0.0
 11
230.419
 21
96.9215
 31
0.0
  0
LINE
  8
0
 62
     0
 10
230.419
 20
96.9215
 30
0.0
 11
230.419
 21
93.8223
 31
0.0
  0
LINE
  8
0
 62
     0
 10
230.419
 20
93.8223
 30
0.0
 11
231.22
 21
93.8223
 31
0.0
  0
LINE
  8
0
 62
     0
 10
231.22
 20
93.8223
 30
0.0
 11
231.22
 21
88.0223
 31
0.0
  0
LINE
  8
0
 62
     0
 10
231.22
 20
88.0223
 30
0.0
 11
230.419
 21
88.0223
 31
0.0
  0
LINE
  8
0
 62
     0
 10
230.419
 20
88.0223
 30
0.0
 11
230.419
 21
84.9217
 31
0.0
  0
LINE
  8
0
 62
     0
 10
230.419
 20
84.9217
 30
0.0
 11
231.22
 21
84.9217
 31
0.0
  0
LINE
  8
0
 62
     0
 10
231.22
 20
84.9217
 30
0.0
 11
231.22
 21
83.9227
 31
0.0
  0
LINE
  8
0
 62
     0
 10
231.22
 20
83.9227
 30
0.0
 11
245.219
 21
83.9227
 31
0.0
  0
LINE
  8
0
 62
     0
 10
245.219
 20
83.9227
 30
0.0
 11
245.219
 21
84.9217
 31
0.0
  0
LINE
  8
0
 62
     0
 10
245.219
 20
84.9217
 30
0.0
 11
246.02
 21
84.9217
 31
0.0
  0
LINE
  8
0
 62
     0
 10
246.02
 20
84.9217
 30
0.0
 11
246.02
 21
88.0223
 31
0.0
  0
LINE
  8
0
 62
     0
 10
246.02
 20
88.0223
 30
0.0
 11
245.219
 21
88.0223
 31
0.0
  0
LINE
  8
0
 62
     0
 10
245.219
 20
88.0223
 30
0.0
 11
245.219
 21
93.8223
 31
0.0
  0
LINE
  8
0
 62
     0
 10
245.219
 20
93.8223
 30
0.0
 11
246.02
 21
93.8223
 31
0.0
  0
LINE
  8
0
 62
     0
 10
246.02
 20
93.8223
 30
0.0
 11
246.02
 21
96.9215
 31
0.0
  0
LINE
  8
0
 62
     0
 10
246.02
 20
96.9215
 30
0.0
 11
245.219
 21
96.9215
 31
0.0
  0
LINE
  8
0
 62
     0
 10
245.219
 20
96.9215
 30
0.0
 11
245.219
 21
97.9219
 31
0.0
  0
LINE
  8
0
 62
     0
 10
245.219
 20
97.9219
 30
0.0
 11
231.22
 21
97.9219
 31
0.0
  0
LINE
  8
0
 62
     0
 10
212.17
 20
97.9219
 30
0.0
 11
212.17
 21
96.9215
 31
0.0
  0
LINE
  8
0
 62
     0
 10
212.17
 20
96.9215
 30
0.0
 11
211.369
 21
96.9215
 31
0.0
  0
LINE
  8
0
 62
     0
 10
211.369
 20
96.9215
 30
0.0
 11
211.369
 21
93.8223
 31
0.0
  0
LINE
  8
0
 62
     0
 10
211.369
 20
93.8223
 30
0.0
 11
212.17
 21
93.8223
 31
0.0
  0
LINE
  8
0
 62
     0
 10
212.17
 20
93.8223
 30
0.0
 11
212.17
 21
88.0223
 31
0.0
  0
LINE
  8
0
 62
     0
 10
212.17
 20
88.0223
 30
0.0
 11
211.369
 21
88.0223
 31
0.0
  0
LINE
  8
0
 62
     0
 10
211.369
 20
88.0223
 30
0.0
 11
211.369
 21
84.9217
 31
0.0
  0
LINE
  8
0
 62
     0
 10
211.369
 20
84.9217
 30
0.0
 11
212.17
 21
84.9217
 31
0.0
  0
LINE
  8
0
 62
     0
 10
212.17
 20
84.9217
 30
0.0
 11
212.17
 21
83.9227
 31
0.0
  0
LINE
  8
0
 62
     0
 10
212.17
 20
83.9227
 30
0.0
 11
226.169
 21
83.9227
 31
0.0
  0
LINE
  8
0
 62
     0
 10
226.169
 20
83.9227
 30
0.0
 11
226.169
 21
84.9217
 31
0.0
  0
LINE
  8
0
 62
     0
 10
226.169
 20
84.9217
 30
0.0
 11
226.97
 21
84.9217
 31
0.0
  0
LINE
  8
0
 62
     0
 10
226.97
 20
84.9217
 30
0.0
 11
226.97
 21
88.0223
 31
0.0
  0
LINE
  8
0
 62
     0
 10
226.97
 20
88.0223
 30
0.0
 11
226.169
 21
88.0223
 31
0.0
  0
LINE
  8
0
 62
     0
 10
226.169
 20
88.0223
 30
0.0
 11
226.169
 21
93.8223
 31
0.0
  0
LINE
  8
0
 62
     0
 10
226.169
 20
93.8223
 30
0.0
 11
226.97
 21
93.8223
 31
0.0
  0
LINE
  8
0
 62
     0
 10
226.97
 20
93.8223
 30
0.0
 11
226.97
 21
96.9215
 31
0.0
  0
LINE
  8
0
 62
     0
 10
226.97
 20
96.9215
 30
0.0
 11
226.169
 21
96.9215
 31
0.0
  0
LINE
  8
0
 62
     0
 10
226.169
 20
96.9215
 30
0.0
 11
226.169
 21
97.9219
 31
0.0
  0
LINE
  8
0
 62
     0
 10
226.169
 20
97.9219
 30
0.0
 11
212.17
 21
97.9219
 31
0.0
  0
LINE
  8
0
 62
     0
 10
193.12
 20
97.9219
 30
0.0
 11
193.12
 21
96.9215
 31
0.0
  0
LINE
  8
0
 62
     0
 10
193.12
 20
96.9215
 30
0.0
 11
192.319
 21
96.9215
 31
0.0
  0
LINE
  8
0
 62
     0
 10
192.319
 20
96.9215
 30
0.0
 11
192.319
 21
93.8223
 31
0.0
  0
LINE
  8
0
 62
     0
 10
192.319
 20
93.8223
 30
0.0
 11
193.12
 21
93.8223
 31
0.0
  0
LINE
  8
0
 62
     0
 10
193.12
 20
93.8223
 30
0.0
 11
193.12
 21
88.0223
 31
0.0
  0
LINE
  8
0
 62
     0
 10
193.12
 20
88.0223
 30
0.0
 11
192.319
 21
88.0223
 31
0.0
  0
LINE
  8
0
 62
     0
 10
192.319
 20
88.0223
 30
0.0
 11
192.319
 21
84.9217
 31
0.0
  0
LINE
  8
0
 62
     0
 10
192.319
 20
84.9217
 30
0.0
 11
193.12
 21
84.9217
 31
0.0
  0
LINE
  8
0
 62
     0
 10
193.12
 20
84.9217
 30
0.0
 11
193.12
 21
83.9227
 31
0.0
  0
LINE
  8
0
 62
     0
 10
193.12
 20
83.9227
 30
0.0
 11
207.119
 21
83.9227
 31
0.0
  0
LINE
  8
0
 62
     0
 10
207.119
 20
83.9227
 30
0.0
 11
207.119
 21
84.9217
 31
0.0
  0
LINE
  8
0
 62
     0
 10
207.119
 20
84.9217
 30
0.0
 11
207.92
 21
84.9217
 31
0.0
  0
LINE
  8
0
 62
     0
 10
207.92
 20
84.9217
 30
0.0
 11
207.92
 21
88.0223
 31
0.0
  0
LINE
  8
0
 62
     0
 10
207.92
 20
88.0223
 30
0.0
 11
207.119
 21
88.0223
 31
0.0
  0
LINE
  8
0
 62
     0
 10
207.119
 20
88.0223
 30
0.0
 11
207.119
 21
93.8223
 31
0.0
  0
LINE
  8
0
 62
     0
 10
207.119
 20
93.8223
 30
0.0
 11
207.92
 21
93.8223
 31
0.0
  0
LINE
  8
0
 62
     0
 10
207.92
 20
93.8223
 30
0.0
 11
207.92
 21
96.9215
 31
0.0
  0
LINE
  8
0
 62
     0
 10
207.92
 20
96.9215
 30
0.0
 11
207.119
 21
96.9215
 31
0.0
  0
LINE
  8
0
 62
     0
 10
207.119
 20
96.9215
 30
0.0
 11
207.119
 21
97.9219
 31
0.0
  0
LINE
  8
0
 62
     0
 10
207.119
 20
97.9219
 30
0.0
 11
193.12
 21
97.9219
 31
0.0
  0
LINE
  8
0
 62
     0
 10
174.07
 20
97.9219
 30
0.0
 11
174.07
 21
96.9215
 31
0.0
  0
LINE
  8
0
 62
     0
 10
174.07
 20
96.9215
 30
0.0
 11
173.269
 21
96.9215
 31
0.0
  0
LINE
  8
0
 62
     0
 10
173.269
 20
96.9215
 30
0.0
 11
173.269
 21
93.8223
 31
0.0
  0
LINE
  8
0
 62
     0
 10
173.269
 20
93.8223
 30
0.0
 11
174.07
 21
93.8223
 31
0.0
  0
LINE
  8
0
 62
     0
 10
174.07
 20
93.8223
 30
0.0
 11
174.07
 21
88.0223
 31
0.0
  0
LINE
  8
0
 62
     0
 10
174.07
 20
88.0223
 30
0.0
 11
173.269
 21
88.0223
 31
0.0
  0
LINE
  8
0
 62
     0
 10
173.269
 20
88.0223
 30
0.0
 11
173.269
 21
84.9217
 31
0.0
  0
LINE
  8
0
 62
     0
 10
173.269
 20
84.9217
 30
0.0
 11
174.07
 21
84.9217
 31
0.0
  0
LINE
  8
0
 62
     0
 10
174.07
 20
84.9217
 30
0.0
 11
174.07
 21
83.9227
 31
0.0
  0
LINE
  8
0
 62
     0
 10
174.07
 20
83.9227
 30
0.0
 11
188.069
 21
83.9227
 31
0.0
  0
LINE
  8
0
 62
     0
 10
188.069
 20
83.9227
 30
0.0
 11
188.069
 21
84.9217
 31
0.0
  0
LINE
  8
0
 62
     0
 10
188.069
 20
84.9217
 30
0.0
 11
188.87
 21
84.9217
 31
0.0
  0
LINE
  8
0
 62
     0
 10
188.87
 20
84.9217
 30
0.0
 11
188.87
 21
88.0223
 31
0.0
  0
LINE
  8
0
 62
     0
 10
188.87
 20
88.0223
 30
0.0
 11
188.069
 21
88.0223
 31
0.0
  0
LINE
  8
0
 62
     0
 10
188.069
 20
88.0223
 30
0.0
 11
188.069
 21
93.8223
 31
0.0
  0
LINE
  8
0
 62
     0
 10
188.069
 20
93.8223
 30
0.0
 11
188.87
 21
93.8223
 31
0.0
  0
LINE
  8
0
 62
     0
 10
188.87
 20
93.8223
 30
0.0
 11
188.87
 21
96.9215
 31
0.0
  0
LINE
  8
0
 62
     0
 10
188.87
 20
96.9215
 30
0.0
 11
188.069
 21
96.9215
 31
0.0
  0
LINE
  8
0
 62
     0
 10
188.069
 20
96.9215
 30
0.0
 11
188.069
 21
97.9219
 31
0.0
  0
LINE
  8
0
 62
     0
 10
188.069
 20
97.9219
 30
0.0
 11
174.07
 21
97.9219
 31
0.0
  0
LINE
  8
0
 62
     0
 10
155.02
 20
97.9219
 30
0.0
 11
155.02
 21
96.9215
 31
0.0
  0
LINE
  8
0
 62
     0
 10
155.02
 20
96.9215
 30
0.0
 11
154.219
 21
96.9215
 31
0.0
  0
LINE
  8
0
 62
     0
 10
154.219
 20
96.9215
 30
0.0
 11
154.219
 21
93.8223
 31
0.0
  0
LINE
  8
0
 62
     0
 10
154.219
 20
93.8223
 30
0.0
 11
155.02
 21
93.8223
 31
0.0
  0
LINE
  8
0
 62
     0
 10
155.02
 20
93.8223
 30
0.0
 11
155.02
 21
88.0223
 31
0.0
  0
LINE
  8
0
 62
     0
 10
155.02
 20
88.0223
 30
0.0
 11
154.219
 21
88.0223
 31
0.0
  0
LINE
  8
0
 62
     0
 10
154.219
 20
88.0223
 30
0.0
 11
154.219
 21
84.9217
 31
0.0
  0
LINE
  8
0
 62
     0
 10
154.219
 20
84.9217
 30
0.0
 11
155.02
 21
84.9217
 31
0.0
  0
LINE
  8
0
 62
     0
 10
155.02
 20
84.9217
 30
0.0
 11
155.02
 21
83.9227
 31
0.0
  0
LINE
  8
0
 62
     0
 10
155.02
 20
83.9227
 30
0.0
 11
169.019
 21
83.9227
 31
0.0
  0
LINE
  8
0
 62
     0
 10
169.019
 20
83.9227
 30
0.0
 11
169.019
 21
84.9217
 31
0.0
  0
LINE
  8
0
 62
     0
 10
169.019
 20
84.9217
 30
0.0
 11
169.82
 21
84.9217
 31
0.0
  0
LINE
  8
0
 62
     0
 10
169.82
 20
84.9217
 30
0.0
 11
169.82
 21
88.0223
 31
0.0
  0
LINE
  8
0
 62
     0
 10
169.82
 20
88.0223
 30
0.0
 11
169.019
 21
88.0223
 31
0.0
  0
LINE
  8
0
 62
     0
 10
169.019
 20
88.0223
 30
0.0
 11
169.019
 21
93.8223
 31
0.0
  0
LINE
  8
0
 62
     0
 10
169.019
 20
93.8223
 30
0.0
 11
169.82
 21
93.8223
 31
0.0
  0
LINE
  8
0
 62
     0
 10
169.82
 20
93.8223
 30
0.0
 11
169.82
 21
96.9215
 31
0.0
  0
LINE
  8
0
 62
     0
 10
169.82
 20
96.9215
 30
0.0
 11
169.019
 21
96.9215
 31
0.0
  0
LINE
  8
0
 62
     0
 10
169.019
 20
96.9215
 30
0.0
 11
169.019
 21
97.9219
 31
0.0
  0
LINE
  8
0
 62
     0
 10
169.019
 20
97.9219
 30
0.0
 11
155.02
 21
97.9219
 31
0.0
  0
LINE
  8
0
 62
     0
 10
135.97
 20
97.9219
 30
0.0
 11
135.97
 21
96.9215
 31
0.0
  0
LINE
  8
0
 62
     0
 10
135.97
 20
96.9215
 30
0.0
 11
135.169
 21
96.9215
 31
0.0
  0
LINE
  8
0
 62
     0
 10
135.169
 20
96.9215
 30
0.0
 11
135.169
 21
93.8223
 31
0.0
  0
LINE
  8
0
 62
     0
 10
135.169
 20
93.8223
 30
0.0
 11
135.97
 21
93.8223
 31
0.0
  0
LINE
  8
0
 62
     0
 10
135.97
 20
93.8223
 30
0.0
 11
135.97
 21
88.0223
 31
0.0
  0
LINE
  8
0
 62
     0
 10
135.97
 20
88.0223
 30
0.0
 11
135.169
 21
88.0223
 31
0.0
  0
LINE
  8
0
 62
     0
 10
135.169
 20
88.0223
 30
0.0
 11
135.169
 21
84.9217
 31
0.0
  0
LINE
  8
0
 62
     0
 10
135.169
 20
84.9217
 30
0.0
 11
135.97
 21
84.9217
 31
0.0
  0
LINE
  8
0
 62
     0
 10
135.97
 20
84.9217
 30
0.0
 11
135.97
 21
83.9227
 31
0.0
  0
LINE
  8
0
 62
     0
 10
135.97
 20
83.9227
 30
0.0
 11
149.969
 21
83.9227
 31
0.0
  0
LINE
  8
0
 62
     0
 10
149.969
 20
83.9227
 30
0.0
 11
149.969
 21
84.9217
 31
0.0
  0
LINE
  8
0
 62
     0
 10
149.969
 20
84.9217
 30
0.0
 11
150.77
 21
84.9217
 31
0.0
  0
LINE
  8
0
 62
     0
 10
150.77
 20
84.9217
 30
0.0
 11
150.77
 21
88.0223
 31
0.0
  0
LINE
  8
0
 62
     0
 10
150.77
 20
88.0223
 30
0.0
 11
149.969
 21
88.0223
 31
0.0
  0
LINE
  8
0
 62
     0
 10
149.969
 20
88.0223
 30
0.0
 11
149.969
 21
93.8223
 31
0.0
  0
LINE
  8
0
 62
     0
 10
149.969
 20
93.8223
 30
0.0
 11
150.77
 21
93.8223
 31
0.0
  0
LINE
  8
0
 62
     0
 10
150.77
 20
93.8223
 30
0.0
 11
150.77
 21
96.9215
 31
0.0
  0
LINE
  8
0
 62
     0
 10
150.77
 20
96.9215
 30
0.0
 11
149.969
 21
96.9215
 31
0.0
  0
LINE
  8
0
 62
     0
 10
149.969
 20
96.9215
 30
0.0
 11
149.969
 21
97.9219
 31
0.0
  0
LINE
  8
0
 62
     0
 10
149.969
 20
97.9219
 30
0.0
 11
135.97
 21
97.9219
 31
0.0
  0
LINE
  8
0
 62
     0
 10
116.918
 20
97.9219
 30
0.0
 11
116.918
 21
96.9215
 31
0.0
  0
LINE
  8
0
 62
     0
 10
116.918
 20
96.9215
 30
0.0
 11
116.119
 21
96.9215
 31
0.0
  0
LINE
  8
0
 62
     0
 10
116.119
 20
96.9215
 30
0.0
 11
116.119
 21
93.8223
 31
0.0
  0
LINE
  8
0
 62
     0
 10
116.119
 20
93.8223
 30
0.0
 11
116.918
 21
93.8223
 31
0.0
  0
LINE
  8
0
 62
     0
 10
116.918
 20
93.8223
 30
0.0
 11
116.918
 21
88.0223
 31
0.0
  0
LINE
  8
0
 62
     0
 10
116.918
 20
88.0223
 30
0.0
 11
116.119
 21
88.0223
 31
0.0
  0
LINE
  8
0
 62
     0
 10
116.119
 20
88.0223
 30
0.0
 11
116.119
 21
84.9217
 31
0.0
  0
LINE
  8
0
 62
     0
 10
116.119
 20
84.9217
 30
0.0
 11
116.918
 21
84.9217
 31
0.0
  0
LINE
  8
0
 62
     0
 10
116.918
 20
84.9217
 30
0.0
 11
116.918
 21
83.9227
 31
0.0
  0
LINE
  8
0
 62
     0
 10
116.918
 20
83.9227
 30
0.0
 11
130.919
 21
83.9227
 31
0.0
  0
LINE
  8
0
 62
     0
 10
130.919
 20
83.9227
 30
0.0
 11
130.919
 21
84.9217
 31
0.0
  0
LINE
  8
0
 62
     0
 10
130.919
 20
84.9217
 30
0.0
 11
131.72
 21
84.9217
 31
0.0
  0
LINE
  8
0
 62
     0
 10
131.72
 20
84.9217
 30
0.0
 11
131.72
 21
88.0223
 31
0.0
  0
LINE
  8
0
 62
     0
 10
131.72
 20
88.0223
 30
0.0
 11
130.919
 21
88.0223
 31
0.0
  0
LINE
  8
0
 62
     0
 10
130.919
 20
88.0223
 30
0.0
 11
130.919
 21
93.8223
 31
0.0
  0
LINE
  8
0
 62
     0
 10
130.919
 20
93.8223
 30
0.0
 11
131.72
 21
93.8223
 31
0.0
  0
LINE
  8
0
 62
     0
 10
131.72
 20
93.8223
 30
0.0
 11
131.72
 21
96.9215
 31
0.0
  0
LINE
  8
0
 62
     0
 10
131.72
 20
96.9215
 30
0.0
 11
130.919
 21
96.9215
 31
0.0
  0
LINE
  8
0
 62
     0
 10
130.919
 20
96.9215
 30
0.0
 11
130.919
 21
97.9219
 31
0.0
  0
LINE
  8
0
 62
     0
 10
130.919
 20
97.9219
 30
0.0
 11
116.918
 21
97.9219
 31
0.0
  0
LINE
  8
0
 62
     0
 10
97.8683
 20
97.9219
 30
0.0
 11
97.8683
 21
96.9215
 31
0.0
  0
LINE
  8
0
 62
     0
 10
97.8683
 20
96.9215
 30
0.0
 11
97.0689
 21
96.9215
 31
0.0
  0
LINE
  8
0
 62
     0
 10
97.0689
 20
96.9215
 30
0.0
 11
97.0689
 21
93.8223
 31
0.0
  0
LINE
  8
0
 62
     0
 10
97.0689
 20
93.8223
 30
0.0
 11
97.8683
 21
93.8223
 31
0.0
  0
LINE
  8
0
 62
     0
 10
97.8683
 20
93.8223
 30
0.0
 11
97.8683
 21
88.0223
 31
0.0
  0
LINE
  8
0
 62
     0
 10
97.8683
 20
88.0223
 30
0.0
 11
97.0689
 21
88.0223
 31
0.0
  0
LINE
  8
0
 62
     0
 10
97.0689
 20
88.0223
 30
0.0
 11
97.0689
 21
84.9217
 31
0.0
  0
LINE
  8
0
 62
     0
 10
97.0689
 20
84.9217
 30
0.0
 11
97.8683
 21
84.9217
 31
0.0
  0
LINE
  8
0
 62
     0
 10
97.8683
 20
84.9217
 30
0.0
 11
97.8683
 21
83.9227
 31
0.0
  0
LINE
  8
0
 62
     0
 10
97.8683
 20
83.9227
 30
0.0
 11
111.869
 21
83.9227
 31
0.0
  0
LINE
  8
0
 62
     0
 10
111.869
 20
83.9227
 30
0.0
 11
111.869
 21
84.9217
 31
0.0
  0
LINE
  8
0
 62
     0
 10
111.869
 20
84.9217
 30
0.0
 11
112.668
 21
84.9217
 31
0.0
  0
LINE
  8
0
 62
     0
 10
112.668
 20
84.9217
 30
0.0
 11
112.668
 21
88.0223
 31
0.0
  0
LINE
  8
0
 62
     0
 10
112.668
 20
88.0223
 30
0.0
 11
111.869
 21
88.0223
 31
0.0
  0
LINE
  8
0
 62
     0
 10
111.869
 20
88.0223
 30
0.0
 11
111.869
 21
93.8223
 31
0.0
  0
LINE
  8
0
 62
     0
 10
111.869
 20
93.8223
 30
0.0
 11
112.668
 21
93.8223
 31
0.0
  0
LINE
  8
0
 62
     0
 10
112.668
 20
93.8223
 30
0.0
 11
112.668
 21
96.9215
 31
0.0
  0
LINE
  8
0
 62
     0
 10
112.668
 20
96.9215
 30
0.0
 11
111.869
 21
96.9215
 31
0.0
  0
LINE
  8
0
 62
     0
 10
111.869
 20
96.9215
 30
0.0
 11
111.869
 21
97.9219
 31
0.0
  0
LINE
  8
0
 62
     0
 10
111.869
 20
97.9219
 30
0.0
 11
97.8683
 21
97.9219
 31
0.0
  0
LINE
  8
0
 62
     0
 10
78.8197
 20
97.9219
 30
0.0
 11
78.8197
 21
96.9215
 31
0.0
  0
LINE
  8
0
 62
     0
 10
78.8197
 20
96.9215
 30
0.0
 11
78.0189
 21
96.9215
 31
0.0
  0
LINE
  8
0
 62
     0
 10
78.0189
 20
96.9215
 30
0.0
 11
78.0189
 21
93.8223
 31
0.0
  0
LINE
  8
0
 62
     0
 10
78.0189
 20
93.8223
 30
0.0
 11
78.8197
 21
93.8223
 31
0.0
  0
LINE
  8
0
 62
     0
 10
78.8197
 20
93.8223
 30
0.0
 11
78.8197
 21
88.0223
 31
0.0
  0
LINE
  8
0
 62
     0
 10
78.8197
 20
88.0223
 30
0.0
 11
78.0189
 21
88.0223
 31
0.0
  0
LINE
  8
0
 62
     0
 10
78.0189
 20
88.0223
 30
0.0
 11
78.0189
 21
84.9217
 31
0.0
  0
LINE
  8
0
 62
     0
 10
78.0189
 20
84.9217
 30
0.0
 11
78.8197
 21
84.9217
 31
0.0
  0
LINE
  8
0
 62
     0
 10
78.8197
 20
84.9217
 30
0.0
 11
78.8197
 21
83.9227
 31
0.0
  0
LINE
  8
0
 62
     0
 10
78.8197
 20
83.9227
 30
0.0
 11
92.819
 21
83.9227
 31
0.0
  0
LINE
  8
0
 62
     0
 10
92.819
 20
83.9227
 30
0.0
 11
92.819
 21
84.9217
 31
0.0
  0
LINE
  8
0
 62
     0
 10
92.819
 20
84.9217
 30
0.0
 11
93.6184
 21
84.9217
 31
0.0
  0
LINE
  8
0
 62
     0
 10
93.6184
 20
84.9217
 30
0.0
 11
93.6184
 21
88.0223
 31
0.0
  0
LINE
  8
0
 62
     0
 10
93.6184
 20
88.0223
 30
0.0
 11
92.819
 21
88.0223
 31
0.0
  0
LINE
  8
0
 62
     0
 10
92.819
 20
88.0223
 30
0.0
 11
92.819
 21
93.8223
 31
0.0
  0
LINE
  8
0
 62
     0
 10
92.819
 20
93.8223
 30
0.0
 11
93.6184
 21
93.8223
 31
0.0
  0
LINE
  8
0
 62
     0
 10
93.6184
 20
93.8223
 30
0.0
 11
93.6184
 21
96.9215
 31
0.0
  0
LINE
  8
0
 62
     0
 10
93.6184
 20
96.9215
 30
0.0
 11
92.819
 21
96.9215
 31
0.0
  0
LINE
  8
0
 62
     0
 10
92.819
 20
96.9215
 30
0.0
 11
92.819
 21
97.9219
 31
0.0
  0
LINE
  8
0
 62
     0
 10
92.819
 20
97.9219
 30
0.0
 11
78.8197
 21
97.9219
 31
0.0
  0
LINE
  8
0
 62
     0
 10
59.7697
 20
97.9219
 30
0.0
 11
59.7697
 21
96.9215
 31
0.0
  0
LINE
  8
0
 62
     0
 10
59.7697
 20
96.9215
 30
0.0
 11
58.9689
 21
96.9215
 31
0.0
  0
LINE
  8
0
 62
     0
 10
58.9689
 20
96.9215
 30
0.0
 11
58.9689
 21
93.8223
 31
0.0
  0
LINE
  8
0
 62
     0
 10
58.9689
 20
93.8223
 30
0.0
 11
59.7697
 21
93.8223
 31
0.0
  0
LINE
  8
0
 62
     0
 10
59.7697
 20
93.8223
 30
0.0
 11
59.7697
 21
88.0223
 31
0.0
  0
LINE
  8
0
 62
     0
 10
59.7697
 20
88.0223
 30
0.0
 11
58.9689
 21
88.0223
 31
0.0
  0
LINE
  8
0
 62
     0
 10
58.9689
 20
88.0223
 30
0.0
 11
58.9689
 21
84.9217
 31
0.0
  0
LINE
  8
0
 62
     0
 10
58.9689
 20
84.9217
 30
0.0
 11
59.7697
 21
84.9217
 31
0.0
  0
LINE
  8
0
 62
     0
 10
59.7697
 20
84.9217
 30
0.0
 11
59.7697
 21
83.9227
 31
0.0
  0
LINE
  8
0
 62
     0
 10
59.7697
 20
83.9227
 30
0.0
 11
73.769
 21
83.9227
 31
0.0
  0
LINE
  8
0
 62
     0
 10
73.769
 20
83.9227
 30
0.0
 11
73.769
 21
84.9217
 31
0.0
  0
LINE
  8
0
 62
     0
 10
73.769
 20
84.9217
 30
0.0
 11
74.5698
 21
84.9217
 31
0.0
  0
LINE
  8
0
 62
     0
 10
74.5698
 20
84.9217
 30
0.0
 11
74.5698
 21
88.0223
 31
0.0
  0
LINE
  8
0
 62
     0
 10
74.5698
 20
88.0223
 30
0.0
 11
73.769
 21
88.0223
 31
0.0
  0
LINE
  8
0
 62
     0
 10
73.769
 20
88.0223
 30
0.0
 11
73.769
 21
93.8223
 31
0.0
  0
LINE
  8
0
 62
     0
 10
73.769
 20
93.8223
 30
0.0
 11
74.5698
 21
93.8223
 31
0.0
  0
LINE
  8
0
 62
     0
 10
74.5698
 20
93.8223
 30
0.0
 11
74.5698
 21
96.9215
 31
0.0
  0
LINE
  8
0
 62
     0
 10
74.5698
 20
96.9215
 30
0.0
 11
73.769
 21
96.9215
 31
0.0
  0
LINE
  8
0
 62
     0
 10
73.769
 20
96.9215
 30
0.0
 11
73.769
 21
97.9219
 31
0.0
  0
LINE
  8
0
 62
     0
 10
73.769
 20
97.9219
 30
0.0
 11
59.7697
 21
97.9219
 31
0.0
  0
LINE
  8
0
 62
     0
 10
40.7197
 20
97.9219
 30
0.0
 11
40.7197
 21
96.9215
 31
0.0
  0
LINE
  8
0
 62
     0
 10
40.7197
 20
96.9215
 30
0.0
 11
39.9189
 21
96.9215
 31
0.0
  0
LINE
  8
0
 62
     0
 10
39.9189
 20
96.9215
 30
0.0
 11
39.9189
 21
93.8223
 31
0.0
  0
LINE
  8
0
 62
     0
 10
39.9189
 20
93.8223
 30
0.0
 11
40.7197
 21
93.8223
 31
0.0
  0
LINE
  8
0
 62
     0
 10
40.7197
 20
93.8223
 30
0.0
 11
40.7197
 21
88.0223
 31
0.0
  0
LINE
  8
0
 62
     0
 10
40.7197
 20
88.0223
 30
0.0
 11
39.9189
 21
88.0223
 31
0.0
  0
LINE
  8
0
 62
     0
 10
39.9189
 20
88.0223
 30
0.0
 11
39.9189
 21
84.9217
 31
0.0
  0
LINE
  8
0
 62
     0
 10
39.9189
 20
84.9217
 30
0.0
 11
40.7197
 21
84.9217
 31
0.0
  0
LINE
  8
0
 62
     0
 10
40.7197
 20
84.9217
 30
0.0
 11
40.7197
 21
83.9227
 31
0.0
  0
LINE
  8
0
 62
     0
 10
40.7197
 20
83.9227
 30
0.0
 11
54.719
 21
83.9227
 31
0.0
  0
LINE
  8
0
 62
     0
 10
54.719
 20
83.9227
 30
0.0
 11
54.719
 21
84.9217
 31
0.0
  0
LINE
  8
0
 62
     0
 10
54.719
 20
84.9217
 30
0.0
 11
55.5198
 21
84.9217
 31
0.0
  0
LINE
  8
0
 62
     0
 10
55.5198
 20
84.9217
 30
0.0
 11
55.5198
 21
88.0223
 31
0.0
  0
LINE
  8
0
 62
     0
 10
55.5198
 20
88.0223
 30
0.0
 11
54.719
 21
88.0223
 31
0.0
  0
LINE
  8
0
 62
     0
 10
54.719
 20
88.0223
 30
0.0
 11
54.719
 21
93.8223
 31
0.0
  0
LINE
  8
0
 62
     0
 10
54.719
 20
93.8223
 30
0.0
 11
55.5198
 21
93.8223
 31
0.0
  0
LINE
  8
0
 62
     0
 10
55.5198
 20
93.8223
 30
0.0
 11
55.5198
 21
96.9215
 31
0.0
  0
LINE
  8
0
 62
     0
 10
55.5198
 20
96.9215
 30
0.0
 11
54.719
 21
96.9215
 31
0.0
  0
LINE
  8
0
 62
     0
 10
54.719
 20
96.9215
 30
0.0
 11
54.719
 21
97.9219
 31
0.0
  0
LINE
  8
0
 62
     0
 10
54.719
 20
97.9219
 30
0.0
 11
40.7197
 21
97.9219
 31
0.0
  0
LINE
  8
0
 62
     0
 10
21.6697
 20
97.9219
 30
0.0
 11
21.6697
 21
96.9215
 31
0.0
  0
LINE
  8
0
 62
     0
 10
21.6697
 20
96.9215
 30
0.0
 11
20.869
 21
96.9215
 31
0.0
  0
LINE
  8
0
 62
     0
 10
20.869
 20
96.9215
 30
0.0
 11
20.869
 21
93.8223
 31
0.0
  0
LINE
  8
0
 62
     0
 10
20.869
 20
93.8223
 30
0.0
 11
21.6697
 21
93.8223
 31
0.0
  0
LINE
  8
0
 62
     0
 10
21.6697
 20
93.8223
 30
0.0
 11
21.6697
 21
88.0223
 31
0.0
  0
LINE
  8
0
 62
     0
 10
21.6697
 20
88.0223
 30
0.0
 11
20.869
 21
88.0223
 31
0.0
  0
LINE
  8
0
 62
     0
 10
20.869
 20
88.0223
 30
0.0
 11
20.869
 21
84.9217
 31
0.0
  0
LINE
  8
0
 62
     0
 10
20.869
 20
84.9217
 30
0.0
 11
21.6697
 21
84.9217
 31
0.0
  0
LINE
  8
0
 62
     0
 10
21.6697
 20
84.9217
 30
0.0
 11
21.6697
 21
83.9227
 31
0.0
  0
LINE
  8
0
 62
     0
 10
21.6697
 20
83.9227
 30
0.0
 11
35.669
 21
83.9227
 31
0.0
  0
LINE
  8
0
 62
     0
 10
35.669
 20
83.9227
 30
0.0
 11
35.669
 21
84.9217
 31
0.0
  0
LINE
  8
0
 62
     0
 10
35.669
 20
84.9217
 30
0.0
 11
36.4698
 21
84.9217
 31
0.0
  0
LINE
  8
0
 62
     0
 10
36.4698
 20
84.9217
 30
0.0
 11
36.4698
 21
88.0223
 31
0.0
  0
LINE
  8
0
 62
     0
 10
36.4698
 20
88.0223
 30
0.0
 11
35.669
 21
88.0223
 31
0.0
  0
LINE
  8
0
 62
     0
 10
35.669
 20
88.0223
 30
0.0
 11
35.669
 21
93.8223
 31
0.0
  0
LINE
  8
0
 62
     0
 10
35.669
 20
93.8223
 30
0.0
 11
36.4698
 21
93.8223
 31
0.0
  0
LINE
  8
0
 62
     0
 10
36.4698
 20
93.8223
 30
0.0
 11
36.4698
 21
96.9215
 31
0.0
  0
LINE
  8
0
 62
     0
 10
36.4698
 20
96.9215
 30
0.0
 11
35.669
 21
96.9215
 31
0.0
  0
LINE
  8
0
 62
     0
 10
35.669
 20
96.9215
 30
0.0
 11
35.669
 21
97.9219
 31
0.0
  0
LINE
  8
0
 62
     0
 10
35.669
 20
97.9219
 30
0.0
 11
21.6697
 21
97.9219
 31
0.0
  0
LINE
  8
0
 62
     0
 10
2.61965
 20
97.9219
 30
0.0
 11
2.61965
 21
96.9215
 31
0.0
  0
LINE
  8
0
 62
     0
 10
2.61965
 20
96.9215
 30
0.0
 11
1.81901
 21
96.9215
 31
0.0
  0
LINE
  8
0
 62
     0
 10
1.81901
 20
96.9215
 30
0.0
 11
1.81901
 21
93.8223
 31
0.0
  0
LINE
  8
0
 62
     0
 10
1.81901
 20
93.8223
 30
0.0
 11
2.61965
 21
93.8223
 31
0.0
  0
LINE
  8
0
 62
     0
 10
2.61965
 20
93.8223
 30
0.0
 11
2.61965
 21
88.0223
 31
0.0
  0
LINE
  8
0
 62
     0
 10
2.61965
 20
88.0223
 30
0.0
 11
1.81901
 21
88.0223
 31
0.0
  0
LINE
  8
0
 62
     0
 10
1.81901
 20
88.0223
 30
0.0
 11
1.81901
 21
84.9217
 31
0.0
  0
LINE
  8
0
 62
     0
 10
1.81901
 20
84.9217
 30
0.0
 11
2.61965
 21
84.9217
 31
0.0
  0
LINE
  8
0
 62
     0
 10
2.61965
 20
84.9217
 30
0.0
 11
2.61965
 21
83.9227
 31
0.0
  0
LINE
  8
0
 62
     0
 10
2.61965
 20
83.9227
 30
0.0
 11
16.6192
 21
83.9227
 31
0.0
  0
LINE
  8
0
 62
     0
 10
16.6192
 20
83.9227
 30
0.0
 11
16.6192
 21
84.9217
 31
0.0
  0
LINE
  8
0
 62
     0
 10
16.6192
 20
84.9217
 30
0.0
 11
17.4198
 21
84.9217
 31
0.0
  0
LINE
  8
0
 62
     0
 10
17.4198
 20
84.9217
 30
0.0
 11
17.4198
 21
88.0223
 31
0.0
  0
LINE
  8
0
 62
     0
 10
17.4198
 20
88.0223
 30
0.0
 11
16.6192
 21
88.0223
 31
0.0
  0
LINE
  8
0
 62
     0
 10
16.6192
 20
88.0223
 30
0.0
 11
16.6192
 21
93.8223
 31
0.0
  0
LINE
  8
0
 62
     0
 10
16.6192
 20
93.8223
 30
0.0
 11
17.4198
 21
93.8223
 31
0.0
  0
LINE
  8
0
 62
     0
 10
17.4198
 20
93.8223
 30
0.0
 11
17.4198
 21
96.9215
 31
0.0
  0
LINE
  8
0
 62
     0
 10
17.4198
 20
96.9215
 30
0.0
 11
16.6192
 21
96.9215
 31
0.0
  0
LINE
  8
0
 62
     0
 10
16.6192
 20
96.9215
 30
0.0
 11
16.6192
 21
97.9219
 31
0.0
  0
LINE
  8
0
 62
     0
 10
16.6192
 20
97.9219
 30
0.0
 11
2.61965
 21
97.9219
 31
0.0
  0
ENDSEC
  0
EOF
